<?xml version="1.0" standalone="no"?>
<!DOCTYPE svg PUBLIC "-//W3C//DTD SVG 1.1//EN" "http://www.w3.org/Graphics/SVG/1.1/DTD/svg11.dtd" >
<svg xmlns="http://www.w3.org/2000/svg" xmlns:xlink="http://www.w3.org/1999/xlink" version="1.1">
<metadata>
Created by FontForge 20160407 at Wed Nov  2 05:59:48 2016
 By Jimmy Wärting
Copyright  2015 Spoqa (http://bi.spoqa.com/)
</metadata>
<defs>
<font id="SpoqaHanSans-Regular" horiz-adv-x="920" >
  <font-face 
    font-family="SpoqaHanSans"
    font-weight="400"
    font-stretch="normal"
    units-per-em="1000"
    panose-1="2 11 5 0 0 0 0 0 0 0"
    ascent="880"
    descent="-120"
    x-height="543"
    cap-height="733"
    bbox="-44 -279 1000 959"
    underline-thickness="50"
    underline-position="-100"
    unicode-range="U+000D-FFE6"
  />
<missing-glyph horiz-adv-x="1000" 
 />
    <glyph glyph-name=".notdef" horiz-adv-x="1000" 
 />
    <glyph glyph-name="NULL" horiz-adv-x="0" 
 />
    <glyph glyph-name="NULL" horiz-adv-x="0" 
 />
    <glyph glyph-name="nonmarkingreturn" unicode="&#xd;" horiz-adv-x="224" 
 />
    <glyph glyph-name="cid1" unicode=" " horiz-adv-x="224" 
 />
    <glyph glyph-name="cid2" unicode="!" horiz-adv-x="323" 
d="M118 645l-3 104h93l-3 -104l-12 -424h-63zM161 -13c-18 0 -33.499 6.33301 -46.499 19s-19.5 29.334 -19.5 50.001s6.5 37.667 19.5 51s28.5 20 46.5 20c18.667 0 34.334 -6.66699 47 -20c12.667 -13.333 19 -30.333 19 -51s-6.33301 -37.334 -19 -50.001
s-28.334 -19 -47.001 -19z" />
    <glyph glyph-name="cid3" unicode="&#x22;" horiz-adv-x="475" 
d="M92 668l-2 103h96l-2 -103l-18 -185h-56zM289 668l-3 103h97l-2 -103l-19 -185h-55z" />
    <glyph glyph-name="cid4" unicode="#" horiz-adv-x="555" 
d="M128 228h-88v64h96l21 166h-95v63h102l26 205h59l-25 -205h148l27 205h58l-25 -205h89v-63h-96l-21 -166h95v-64h-103l-27 -228h-60l27 228h-148l-28 -228h-59zM344 292l21 166h-149l-20 -166h148z" />
    <glyph glyph-name="cid5" unicode="$" horiz-adv-x="599" 
d="M535 200c0.666992 -14 -0.333008 -27.5 -3 -40.5s-6.66699 -25.5 -12 -37.5c-10.667 -23.333 -26.667 -44.666 -48 -63.999c-10 -9.33301 -21.333 -17.666 -34 -24.999s-26.667 -13.666 -42 -18.999c-10.667 -2.66699 -21.167 -5.33398 -31.5 -8.00098
s-21.166 -4.66699 -32.499 -6v-86h-62v84c-41.333 2 -81.666 10.667 -120.999 26c-21.333 9.33301 -41.166 19.833 -59.499 31.5s-35.166 25.5 -50.499 41.5l46 54c14 -13.333 28.667 -25 44 -35s31.666 -18.667 48.999 -26c15.333 -6.66699 30.5 -11.834 45.5 -15.5
c15 -3.66699 30.5 -6.16699 46.5 -7.5v275l-56 25c-8.66699 2.66699 -17.334 6 -26.001 10s-17.334 8.66699 -26.001 14c-8.66699 4.66699 -17 10 -25 16s-16 12.333 -24 19c-14 14 -25.667 31 -35 51c-4.66699 9.33301 -8.33398 19.5 -11.001 30.5s-4 23.167 -4 36.5
c-0.666992 13.333 0.5 26 3.5 38s7.16699 24 12.5 36c5.33301 11.333 11.833 22 19.5 32s16.167 19 25.5 27c20 16 44.333 29.667 73 41c11.333 3.33301 23 6.16602 35 8.49902s24.667 4.16602 38 5.49902v83h62v-86c26.667 -2.66699 52.334 -9.33398 77.001 -20.001
c18 -7.33887 34.5 -15.6719 49.5 -25c15 -9.33301 28.833 -20.333 41.5 -33l-41 -51c-23.333 19.333 -48 35 -74 47l-26 8c-8.66699 2.66699 -17.667 4.66699 -27 6v-262l50 -21c11.333 -4 22 -8.33301 32 -13s19.333 -10 28 -16c21.333 -11.333 39 -24.166 53 -38.499
s23.333 -28.5 28 -42.5c3.33301 -10 6.16602 -20.5 8.49902 -31.5s3.5 -23.167 3.5 -36.5zM232 439c12 -5.33301 24.667 -10.666 38 -15.999v239c-18 -1.33301 -33.833 -4.5 -47.5 -9.5s-26.167 -11.833 -37.5 -20.5c-13.334 -10 -23.667 -21.833 -31 -35.5
s-10.333 -28.834 -9 -45.501c0 -9.33301 1 -18.5 3 -27.5s5.33301 -16.833 10 -23.5c3.33301 -6.66699 8 -13.167 14 -19.5s12.333 -11.833 19 -16.5c12 -10 25.667 -18.333 41 -25zM409 101c28.667 24 42.666 54.001 41.999 90.001c0 9.33301 -1 18.166 -3 26.499
s-4.66699 16.166 -8 23.499c-6.66797 12 -16.335 23.333 -29 34c-5.33301 4.66699 -11.333 9.16699 -18 13.5c-6.66699 4.33594 -14 8.16895 -22 11.5c-6 3.33301 -12.167 6.33301 -18.5 9s-13.166 5.33398 -20.499 8.00098v-248c33.333 6 59 16.667 77 32z" />
    <glyph glyph-name="cid6" unicode="%" horiz-adv-x="864" 
d="M39 546v18c0 26.6689 3.83301 50.8359 11.5 72.5c7.66699 21.6689 18.667 40.3359 33 56c14.333 15.667 31.5 27.667 51.5 36s42.667 12.5 68 12.5s48.166 -4 68.499 -12c20.334 -8 37.667 -19.5 52 -34.5s25.333 -33.167 33 -54.5
c7.66699 -21.334 11.5 -44.667 11.5 -70v-18c0 -52.667 -14.667 -95 -44 -127s-69.666 -48 -120.999 -48c-50 0 -89.833 15.333 -119.5 46s-44.5 71.667 -44.5 123zM277 546v24c0 73.333 -24.667 110 -74 110c-50 0 -75 -36.667 -75 -110v-24c0 -74 25 -111 75 -111
c26 0 44.833 9.16699 56.5 27.5c11.667 18.334 17.5 46.167 17.5 83.5zM627 747h83l-480 -746h-83zM498 202l-0.000976562 16.9961c0 26 3.83301 49.833 11.5 71.5s18.5 40.334 32.5 56.001s31 27.834 51 36.501s42.667 13 68 13c50.668 0 90.835 -15.333 120.5 -46
c29.667 -30.667 44.5 -72.667 44.5 -126v-16c0 -26.667 -3.83301 -50.667 -11.5 -72s-18.667 -39.666 -33 -54.999c-14.3359 -15.333 -31.6689 -27.166 -51.999 -35.499c-20.3359 -8.33301 -43.1689 -12.5 -68.5 -12.5c-50.667 0 -90.5 14.833 -119.5 44.5
s-43.5 71.167 -43.5 124.5zM735.999 201.996l0.000976562 22c0 38 -5.66699 65.833 -17 83.5c-11.3359 17.667 -30.6689 26.5 -58 26.5c-24 0 -42.333 -8.83301 -55 -26.5s-19 -45.5 -19 -83.5v-22c0 -73.333 24.667 -110 74 -110c27.333 0 46.666 9.16699 57.999 27.5
s17 45.833 17 82.5z" />
    <glyph glyph-name="cid7" unicode="&#x26;" horiz-adv-x="649" 
d="M37 192c-1.33301 26 1.66602 49.501 8.99902 70.501s17.833 40.167 31.5 57.5s30 33 49 47s39.5 26.667 61.5 38c-22 25.333 -39.667 50.333 -53 75s-20.666 51 -21.999 79c-1.33301 28.667 3 53.5 13 74.5s23.167 38.667 39.5 53s34.833 25 55.5 32
s41.667 10.833 63 11.5c24 0.644531 46.5 -2.18848 67.5 -8.5c21 -6.33301 39.333 -15.833 55 -28.5s28 -28.334 37 -47.001s13.833 -39.667 14.5 -63c0 -24.667 -4 -46.5 -12 -65.5s-19 -36 -33 -51s-30.167 -28.5 -48.5 -40.5s-37.5 -23.333 -57.5 -34l171 -193
c10 22 19.667 46.333 29 73s14.333 54.667 15 84l76 4c-2 -40.667 -9.66699 -79.167 -23 -115.5s-29.333 -69.5 -48 -99.5l113 -125h-104c-10 11.333 -19.667 22 -29 32s-19 20.333 -29 31c-23.333 -25.333 -50.833 -45.333 -82.5 -60s-67.5 -22.667 -107.5 -24
c-74.667 -2 -134.5 13 -179.5 45s-68.833 81.333 -71.5 148zM435.999 132.001l-209.001 226.999c-30.667 -18.667 -56 -39.834 -76 -63.5c-20 -23.667 -29 -54.5 -27 -92.5c1.33301 -42 15.333 -75.667 42 -101s65.667 -37 117 -35
c32.667 0.666992 61.834 6.83398 87.501 18.501s47.5 27.167 65.5 46.5zM264.998 438c14 8 27.834 16.333 41.501 25s25.667 18.5 36 29.5c10.335 11 18.668 23.167 25 36.5c6.33887 13.333 9.17188 29 8.49902 47c-1.33301 28.667 -10.166 51 -26.499 67
s-37.166 23.333 -62.499 22c-26 -0.666992 -47.667 -9 -65 -25c-17.334 -16 -25.667 -40.667 -25 -74c1.33301 -24 8.16602 -46 20.499 -66s28.166 -40.667 47.499 -62z" />
    <glyph glyph-name="cid8" unicode="'" horiz-adv-x="278" 
d="M92 668l-2 103h96l-2 -103l-18 -185h-56z" />
    <glyph glyph-name="cid9" unicode="(" horiz-adv-x="338" 
d="M239 -142c-46 74.667 -82 153.333 -108 236s-39 173.334 -39 272.001c0 98 13 188.333 39 270.999c26 82.667 62 161.334 108 236l57 -26c-44 -72 -76.333 -148.833 -97 -230.5s-31 -165.167 -31 -250.5s10.333 -169 31 -251s53 -158.667 97 -230z" />
    <glyph glyph-name="cid10" unicode=")" horiz-adv-x="338" 
d="M43 -113c43.333 71.333 75.5 148.003 96.5 230.003s31.5 165.667 31.5 251c0 85.334 -10.5 168.834 -31.5 250.5c-21 81.667 -53.167 158.5 -96.5 230.5l56 26c46.667 -74.667 83 -153.334 109 -236.001s39 -173 39 -271c0 -98.667 -13 -189.334 -39 -272.001
s-62.333 -161.334 -109 -236.001z" />
    <glyph glyph-name="cid11" unicode="*" horiz-adv-x="467" 
d="M110 503l63 104l-109 45l18 51l114 -28l10 121h54l10 -120l114 27l17 -51l-109 -45l64 -104l-44 -32l-79 95l-79 -95z" />
    <glyph glyph-name="cid12" unicode="+" horiz-adv-x="555" 
d="M241 335h-203v68h203v218h73v-218h203v-68h-203v-219h-73v219z" />
    <glyph glyph-name="cid13" unicode="," horiz-adv-x="197" 
d="M56 127h101l-63 -202h-74z" />
    <glyph glyph-name="cid14" unicode="-" horiz-adv-x="422" 
d="M47 403h330v-68h-330v68z" />
    <glyph glyph-name="cid15" unicode="." horiz-adv-x="278" 
d="M139 -13c-18 0 -33.5 6.33301 -46.5 19s-19.5 29.334 -19.5 50.001s6.5 37.667 19.5 51s28.5 20 46.5 20s33.5 -6.66699 46.5 -20s19.5 -30.333 19.5 -51s-6.5 -37.334 -19.5 -50.001s-28.5 -19 -46.5 -19z" />
    <glyph glyph-name="cid16" unicode="/" horiz-adv-x="400" 
d="M320 844h68l-308 -971h-69z" />
    <glyph glyph-name="cid17" unicode="0" horiz-adv-x="600" 
d="M566 365c0 -65.333 -7 -121.331 -21 -167.998c-14 -48 -33 -87.333 -57 -118c-11.333 -15.333 -24.166 -28.833 -38.499 -40.5s-29.5 -21.5 -45.5 -29.5c-32 -14.667 -67 -22 -105 -22c-38.667 0 -73.667 7.33301 -105 22c-32.667 16 -60.667 39.333 -84 70
c-24 31.333 -42.667 70.666 -56 117.999c-14 46.667 -21 102.667 -21 168c0 64.667 7 121 21 169c13.333 47.333 32 86.666 56 117.999c23.333 30.667 51.333 54 84 70c32.667 15.333 67.667 23 105 23c36 0 71 -7.66699 105 -23c16 -8 31.167 -17.833 45.5 -29.5
c14.334 -11.667 27.167 -25.167 38.499 -40.5c24 -30.667 43 -70 57 -118s21 -104.333 21 -169zM471 365.002c0 55.333 -4.66699 102.666 -14 141.999c-8.66797 38 -21.335 69 -38.001 93c-15.333 24 -33.666 41 -54.999 51s-43 15 -65 15c-22.667 0 -44.334 -5 -65.001 -15
c-21.334 -10 -39.667 -27 -55 -51c-8 -11.333 -15 -24.833 -21 -40.5s-11.667 -33.167 -17 -52.5c-9.33301 -39.333 -14 -86.666 -14 -141.999s4.66699 -102.666 14 -141.999c5.33301 -19.334 11 -36.667 17 -52c6 -15.334 13 -28.667 21 -40
c15.333 -24 33.666 -41 54.999 -51c20.667 -10 42.334 -15 65.001 -15c22 0 43.667 5 65 15c21.334 10 39.667 27 55 51c16.667 23.333 29.334 54 38.001 92c9.33301 39.333 14 86.666 14 141.999z" />
    <glyph glyph-name="cid18" unicode="1" horiz-adv-x="550" 
d="M254 0v576v23c0 8 0.333008 15.667 1 23l-109 -91l-58 53l183 159h75v-743h-92z" />
    <glyph glyph-name="cid19" unicode="2" horiz-adv-x="610" 
d="M315 746c30.667 0 60.002 -4.66504 88.002 -13.998c27.334 -9.33301 50.667 -23 69.999 -41c20 -17.3359 35.667 -38.6689 47 -64c11.333 -24.667 17 -53.667 17 -87c0 -28.667 -4 -54.334 -12 -77c-8 -22 -19.333 -44.333 -34 -67c-14.667 -23.333 -31 -44.333 -49 -63
c-9.33301 -10 -18.833 -20.167 -28.5 -30.5s-19.5 -20.833 -29.5 -31.5l-193 -193c3.33301 0.666992 8.83301 1.66699 16.5 3s15.667 2.5 24 3.5s16.166 1.83301 23.499 2.5c7.33496 0.666992 12.668 1 15.999 1h281v-88h-494v55l254 251c18.667 20 36.667 39 54 57
c8 9.33496 15.5 18.668 22.5 28c7 9.33496 13.167 18.668 18.5 28c12 18.667 21 37.667 27 57c6 18.667 9 39 9 61c0 22.667 -3.33301 41.667 -10 57c-6.66797 15.333 -16.335 29 -29 41c-12 10 -26 18 -42 24c-17.333 5.33301 -34.666 8 -51.999 8
s-34.666 -2.66699 -51.999 -8c-15.333 -6 -29.333 -13.667 -42 -23c-12.667 -10.667 -23 -22.334 -31 -35.001c-4.66699 -7.33301 -8.5 -15.5 -11.5 -24.5l-8.5 -25.5l-8 -28l-84 14c5.33301 34.667 14.666 64.667 27.999 90c12.667 25.333 30 47 52 65
c20 17.333 44.333 30.666 73 39.999c14 4.66699 28.333 8.16699 43 10.5s30 3.5 46 3.5z" />
    <glyph glyph-name="cid20" unicode="3" horiz-adv-x="600" 
d="M314 745c32 0 61.001 -4.33398 87.001 -13.001c26.667 -9.33301 49.334 -22.333 68.001 -39c18.667 -16 33.667 -36 45 -60c10.667 -22 16 -48 16 -78c0 -23.333 -3 -44.333 -9 -63c-6 -17.333 -14.667 -33.333 -26 -48c-10 -13.333 -23.333 -25.333 -40 -36
c-17.333 -10 -35.333 -17.667 -54 -23c48.667 -12.667 85 -34 109 -64c24.667 -30.667 37 -68.334 37 -113.001c0 -33.333 -6.66699 -64 -20 -92c-6.66699 -13.333 -14.334 -26 -23.001 -38s-18.667 -22.667 -30 -32c-20.667 -18 -46.667 -32.667 -78 -44
c-30 -10 -62 -15 -96 -15c-39.333 0 -73 5 -101 15c-29.333 10.667 -53 24 -71 40c-20 18.667 -36 39.334 -48 62.001c-12.667 24 -23.334 49.667 -32.001 77l86 28c2.66699 -8.66699 5.33398 -16.667 8 -24c2.66699 -7.33398 5.66699 -14.667 9 -22s7 -14.666 11 -21.999
c4 -6.66699 8.16699 -13 12.5 -19s9.5 -11.667 15.5 -17c12 -10.667 26.667 -20 44 -28c18 -7.33301 39.667 -11 65 -11s48 4 68 12c9.33496 4.66699 18.168 9.66699 26.5 15c8.33301 5.33301 15.5 11.333 21.5 18c12.667 14 22.667 29 30 45
c3.33301 8.66699 5.83301 17 7.5 25s2.5 16 2.5 24c0 20.667 -3 39 -9 55c-4.66699 16 -14 30.333 -28 43c-14 12 -33.333 21.667 -58 29c-24 6.66699 -55.667 10 -95 10v67c15.333 0 29.666 0.833008 42.999 2.5c13.334 1.66699 25.667 4.16699 37 7.5
c23.334 7.33301 41.667 16.333 55 27c14 10.667 24 24.334 30 41.001c6.66699 15.333 10 33 10 53c0 22 -3.33301 40.667 -10 56c-7.33301 15.333 -16.666 28.333 -27.999 39c-11.333 10.6719 -25 18.3389 -41 23.001c-17.333 5.33301 -34.666 8 -51.999 8
s-34.666 -2.66699 -51.999 -8c-15.333 -6 -29.333 -13.667 -42 -23c-6.66699 -5.33301 -13.167 -11.833 -19.5 -19.5c-6.33398 -7.66699 -11.167 -15.167 -14.5 -22.5c-5.33301 -9.33301 -9.5 -18.333 -12.5 -27s-5.5 -16.334 -7.5 -23.001
c-2.66699 -7.33301 -4.33398 -14.333 -5.00098 -21l-84 14c5.33301 34.667 14.666 64.667 27.999 90c12.667 25.333 30 47 52 65c20 17.333 44.333 30.666 73 39.999c28 9.33301 57.667 14 89 14z" />
    <glyph glyph-name="cid21" unicode="4" horiz-adv-x="600" 
d="M458 269h115v-75h-115v-194h-80v194h-316l-40 76l353 470h83v-471zM378 552l-0.00195312 12.999v16c0.666992 2.66699 0.833984 5.16699 0.500977 7.5s-0.166016 4.83301 0.500977 7.5c0 3.33301 1 9.83301 3 19.5c2 9.67188 3.33301 15.8389 4 18.501l-271 -365h263v304
v-21z" />
    <glyph glyph-name="cid22" unicode="5" horiz-adv-x="600" 
d="M509 653l-287.002 0.000976562l-34 -196c38.667 8 74.334 12 107.001 12c40.667 0 74.667 -5.66699 102 -17c28.667 -10.668 53.334 -26.335 74.001 -47.001c19.334 -19.333 34.667 -43 45.999 -71c10 -27.333 15 -57 15 -89c0 -40 -7 -75.333 -21 -106
c-14 -32.667 -32.667 -60 -56 -82c-24.667 -22.667 -53 -40 -85 -52s-67 -18 -105 -18c-23.333 0 -44.333 2.33301 -63 7c-10 2 -19.5 4.5 -28.5 7.5s-17.833 6.16699 -26.5 9.5c-18.667 7.33301 -35 15.666 -49 24.999c-7.33301 4.66699 -14.333 9.33398 -21 14.001
s-12.667 9.66699 -18 15l48 66c4 -3.33301 7.66699 -6.33301 11 -9s6.33301 -5 9 -7c2.66797 -2 5.33496 -3.66699 8.00098 -5c4.66699 -2.66699 9.5 -5.5 14.5 -8.5s10.833 -6.16699 17.5 -9.5c6 -3.33301 12.667 -6.33301 20 -9s15 -5.66699 23 -9
c18 -5.33301 38 -8 60 -8c26.667 0 50 4.33301 70 13c19.333 7.33301 37 19 53 35c14 14 25.333 32.333 34 55c8 22 12 46 12 72c0 11.333 -0.833008 22.333 -2.5 33s-4.16699 20.667 -7.5 30c-7.33301 19.333 -17.666 35 -30.999 47c-14 14 -31 24.333 -51 31
c-20.667 7.33301 -44.334 11 -71 11c-9.33301 0 -18.833 -0.5 -28.5 -1.5s-19.5 -2.16699 -29.5 -3.5c-20.667 -3.33301 -41.334 -8.33301 -62.001 -15l-58 17l60 347h351v-84z" />
    <glyph glyph-name="cid23" unicode="6" horiz-adv-x="600" 
d="M332 450c28.667 0 56.6699 -5 84.0029 -15c27.334 -10 50.667 -24.333 69.999 -43c20.667 -19.333 36.334 -42.333 47.001 -69c12 -28 18 -59.333 18 -94c0 -35.333 -6.33301 -67 -19 -95c-12 -29.333 -29.333 -55 -52 -77c-22 -22 -48.667 -39 -80 -51
c-30 -12.667 -64.333 -19 -103 -19c-37.333 0 -71.333 6 -102 18s-56.334 29 -77.001 51c-22 23.333 -38.333 49.666 -49 78.999c-12 32 -18 67 -18 105c0 16.667 1.83301 33.5 5.5 50.5s9.16699 34.833 16.5 53.5c7.33301 18 16.666 36.833 27.999 56.5s25 40.167 41 61.5
l205 275h114l-257 -326c19.333 12.667 38.666 22.334 57.999 29.001c11.334 3.33301 22.667 5.83301 34 7.5s23.333 2.5 36 2.5zM140.003 224c0 -22.667 3.66797 -44.333 11.001 -65c6.66699 -20 16.667 -37 30 -51s29.666 -25 48.999 -33c20 -7.33301 41.667 -11 65 -11
c24.667 0 47 4 67 12c19.334 8 36.667 19 52 33c14 14 25 30.667 33 50c7.33301 17.333 11 38.333 11 63c0 12 -0.833008 23.5 -2.5 34.5s-4.5 21.167 -8.5 30.5c-8 20 -18.667 36.667 -32 50c-14 14 -30.667 24.333 -50 31c-17.333 7.33301 -38.333 11 -63 11
c-25.333 0 -48 -4 -68 -12c-10 -4.66699 -19.167 -9.83398 -27.5 -15.5c-8.33301 -5.66699 -15.833 -12.167 -22.5 -19.5c-14 -14 -25 -30.333 -33 -49c-7.33301 -20 -11 -39.667 -11 -59z" />
    <glyph glyph-name="cid24" unicode="7" horiz-adv-x="600" 
d="M543 740v-64.998l-329 -675h-101l307 611c2 4 4.16699 8 6.5 12s4.5 8 6.5 12c2.66699 3.33301 5.16699 6.66602 7.5 9.99902c2.33496 3.33301 5.16797 6.66602 8.5 9.99902h-393v85h487z" />
    <glyph glyph-name="cid25" unicode="8" horiz-adv-x="600" 
d="M300 -13c-37.333 0 -71.335 5.00098 -102.002 15.001c-31.333 10.667 -57.666 24.667 -78.999 42c-22 18 -39 40.333 -51 67c-12 26 -18 55 -18 87c0 48 12.333 87.333 37 118c25.333 31.333 61 53.333 107 66c-39.333 14 -68.666 35.667 -87.999 65
c-20 28.667 -30 63 -30 103c0 28 5.33301 53.667 16 77c5.33301 11.333 11.833 22.166 19.5 32.499s16.167 20.166 25.5 29.499c20.667 17.333 44.334 31 71 41c26.667 10 57.334 15 92.001 15c33.334 0 63.667 -5 91 -15c28 -10 51.667 -23.667 71 -41
c19.334 -17.333 34.667 -38 45.999 -62c10.667 -25.333 16 -51 16 -77c0 -40 -10 -74.333 -30 -103c-20 -29.333 -49.333 -51 -88 -65c46.667 -13.333 82 -35.333 106 -66c25.333 -31.333 38 -70.666 38 -117.999c0 -32.667 -6.33301 -61.667 -19 -87
c-12 -26.667 -29 -49 -51 -67s-48.333 -32 -79 -42c-31.333 -10 -65 -15 -101 -15zM299.998 61.001c25.333 0 46.998 3.33301 64.998 10c18 5.33301 34 14.666 48 27.999c13.334 11.333 23.667 26 31 44c6.66699 16 10 35 10 57c0 25.333 -4 47 -12 65
c-9.33301 18.667 -20.666 33.334 -33.999 44.001c-14 11.333 -30.667 20 -50 26c-19.333 5.33301 -38.666 8 -57.999 8s-39 -2.66699 -59 -8c-9.33301 -3.33301 -18 -7 -26 -11s-15.667 -9 -23 -15c-14.667 -11.333 -26 -26 -34 -44c-8.66699 -17.333 -13 -39 -13 -65
c0 -20 3.66699 -39 11 -57c7.33301 -17.333 17.333 -32 30 -44c14 -12.667 30.333 -22 49 -28c18 -6.66699 39.667 -10 65 -10zM299.996 417.001c12 0 23.165 0.834961 33.498 2.50195s19.833 4.5 28.5 8.5c17.333 7.33301 31 17 41 29c10.667 12 18.667 26 24 42
c2 8 3.66699 16.167 5 24.5s2 16.5 2 24.5c0 17.333 -3 33.666 -9 48.999c-5.33301 14.667 -13.666 28 -24.999 40c-11.333 10.667 -25.333 19.667 -42 27c-8.66699 3.33301 -17.667 5.83301 -27 7.5s-19.666 2.5 -30.999 2.5s-21.833 -0.833008 -31.5 -2.5
s-18.5 -4.16699 -26.5 -7.5c-17.333 -7.33301 -31.333 -16.333 -42 -27c-6 -5.33301 -11 -11.5 -15 -18.5s-7.66699 -14.167 -11 -21.5c-5.33301 -16 -8 -32.333 -8 -49c0 -8 0.5 -16.167 1.5 -24.5c1 -8.33691 2.83301 -16.5039 5.5 -24.5
c4.66699 -15.333 12.334 -29.333 23 -42c11.333 -12.668 25.333 -22.335 42 -29.001c8.66699 -4 18.167 -6.83301 28.5 -8.5s21.5 -2.5 33.5 -2.5z" />
    <glyph glyph-name="cid26" unicode="9" horiz-adv-x="600" 
d="M266 305c-29.333 0 -55.668 4.66113 -79.001 13.9941c-24.667 8.66699 -46.667 22.334 -66 41.001c-19.333 18 -34.333 40 -45 66c-11.333 25.334 -17 55.667 -17 91c0 32.667 6 63 18 91c11.333 28 28.333 52.667 51 74c21.333 21.333 47 38 77 50s63 18 99 18
c35.334 0 67.667 -6 97 -18c28.667 -10.667 53.334 -27 74.001 -49c20.667 -21.333 36.667 -46.333 48 -75c11.333 -30.667 17 -63.334 17 -98.001c0 -21.333 -2 -41.333 -6 -60c-4 -18 -9.66699 -36.667 -17 -56c-7.33301 -17.333 -16.333 -35.666 -27 -54.999
c-5.33301 -9.33301 -11 -18.666 -17 -27.999s-12.333 -18.666 -19 -27.999l-195 -283h-117l224 296c4 5.33398 7.66699 10.167 11 14.5c3.33594 4.33301 6.66895 8.83301 9.99902 13.5c3.33301 4.66699 6 8.33398 8 11.001s4.33301 6.33398 7 11.001
c-8 -5.33301 -17 -10.666 -27 -15.999s-21 -10 -33 -14c-25.333 -7.33301 -50.666 -11 -75.999 -11zM451.998 520.994c0 22.667 -4 43.665 -12 62.998c-7.33301 18.667 -17.333 34.667 -30 48c-12.667 12.667 -28.334 22.667 -47 30c-18.667 7.33301 -38.667 11 -60 11
s-42 -3.66699 -62 -11c-19.333 -8 -35.333 -18.333 -48 -31c-13.334 -12 -23.667 -27.667 -31 -47c-7.33301 -18.667 -11 -38.667 -11 -60c0 -24 3.33301 -45 10 -63c7.33301 -19.333 17 -35 29 -47c14 -12.668 29.333 -22.335 46 -29c9.33301 -3.33301 19 -5.83301 29 -7.5
s20.667 -2.5 32 -2.5c23.333 0 45.333 4.33301 66 13c20 8.66699 36 19.334 48 32.001c12.667 12.667 22.667 28.334 30 47.001c7.33301 18 11 36 11 54z" />
    <glyph glyph-name="cid27" unicode=":" horiz-adv-x="278" 
d="M139 390c-18 0 -33.5 6.5 -46.5 19.5s-19.5 29.5 -19.5 49.5c0 21.333 6.5 38.5 19.5 51.5s28.5 19.5 46.5 19.5s33.5 -6.5 46.5 -19.5s19.5 -30.167 19.5 -51.5c0 -20 -6.5 -36.5 -19.5 -49.5s-28.5 -19.5 -46.5 -19.5zM139 -13c-18 0 -33.5 6.33301 -46.5 19
s-19.5 29.334 -19.5 50.001s6.5 37.667 19.5 51s28.5 20 46.5 20s33.5 -6.66699 46.5 -20s19.5 -30.333 19.5 -51s-6.5 -37.334 -19.5 -50.001s-28.5 -19 -46.5 -19z" />
    <glyph glyph-name="cid28" unicode=";" horiz-adv-x="278" 
d="M139 390c-18 0 -33.5 6.5 -46.5 19.5s-19.5 29.5 -19.5 49.5c0 21.333 6.5 38.5 19.5 51.5s28.5 19.5 46.5 19.5s33.5 -6.5 46.5 -19.5s19.5 -30.167 19.5 -51.5c0 -20 -6.5 -36.5 -19.5 -49.5s-28.5 -19.5 -46.5 -19.5zM53 -136c31.333 13.333 55.667 31.667 73 55
s26.333 50.333 27 81c-2.66699 -0.666992 -6.33398 -1 -11.001 -1c-17.333 0 -32.833 5.33301 -46.5 16s-20.5 26.667 -20.5 48c0 19.333 6.83301 34.833 20.5 46.5s29.834 17.5 48.501 17.5c24 0 42.833 -9.5 56.5 -28.5s20.5 -45.5 20.5 -79.5c0 -48 -13 -90 -39 -126
s-61.667 -63.667 -107 -83z" />
    <glyph glyph-name="cid29" unicode="&#x3c;" horiz-adv-x="480" 
d="M37 325v67l403 281v-91l-324 -225l324 -212v-92z" />
    <glyph glyph-name="cid30" unicode="=" horiz-adv-x="555" 
d="M38 522h479v-68h-479v68zM38 283h479v-68h-479v68z" />
    <glyph glyph-name="cid31" unicode="&#x3e;" horiz-adv-x="480" 
d="M38 53v92l324 212l-324 225v91l403 -281v-67z" />
    <glyph glyph-name="cid32" unicode="?" horiz-adv-x="474" 
d="M224 127c18 0 34 -7 48 -21c12 -12 18 -29 18 -51c0 -20.667 -6 -37.334 -18 -50.001c-15.333 -12 -31.333 -18 -48 -18c-16 0 -31.667 6 -47 18c-12 12.667 -18 29.334 -18 50.001c0 22 6 39 18 51c14 14 29.667 21 47 21zM404 643
c10.667 -25.333 15.9971 -54.3359 15.9971 -87.0029c0 -10 -0.833008 -19.833 -2.5 -29.5s-3.16699 -18.5 -4.5 -26.5l-8 -24c-2.66699 -8 -6 -15.333 -10 -22c-7.33301 -15.333 -15.333 -27.666 -24 -36.999c-5.33301 -6.66699 -10.333 -12.834 -15 -18.5
c-4.66699 -5.66992 -9.66699 -10.8369 -15 -15.501c-3.33301 -5.33301 -7.66602 -10.666 -12.999 -15.999s-10.333 -11 -15 -17c-4.66699 -5.33301 -9.16699 -10.666 -13.5 -15.999s-8.16602 -10.666 -11.499 -15.999c-3.33301 -6 -6.66602 -12.167 -9.99902 -18.5
s-6 -13.166 -8 -20.499s-3.66699 -15.166 -5 -23.499s-2 -16.833 -2 -25.5v-34h-75v43c0 28.667 4.66699 53.334 14 74.001c4 9.33301 8.16699 18.5 12.5 27.5s9.83301 17.167 16.5 24.5c12 17.333 24.333 32.333 37 45c5.33398 6.66699 11.167 13.334 17.499 20.001
c6.33301 6.66699 12.5 13.667 18.5 21c4.66699 7.33301 9.33398 15 14.001 23s8.66699 16.667 12 26c7.33301 18 10.333 39.667 9 65c-2 38.668 -13.333 67.335 -34 86c-18 22 -43.333 33 -76 33c-22 0 -40 -4.66699 -54 -14c-17.333 -8.66699 -30.333 -20.334 -39 -35.001
c-5.33398 -8 -10.334 -16.333 -15 -25c-4.66699 -8.66699 -8.33398 -18 -11 -28c-0.666992 -7.33301 -1.16699 -14.333 -1.5 -21s-1.16602 -13.334 -2.49902 -20.001h-77c1.33301 13.333 2.83301 25.833 4.5 37.5s4.16699 23.167 7.5 34.5c5.33301 15.333 11 29.333 17 42
s13.667 24.667 23 36s19 21.333 29 30s21.667 16 35 22c13.333 5.33301 26.833 9.66602 40.5 12.999s28.167 5 43.5 5c14.667 0 28.167 -1.16699 40.5 -3.5s24.166 -5.5 35.499 -9.5c12.667 -4.66699 24 -10.334 34 -17.001s19 -14 27 -22c8 -9.33301 15.333 -19.333 22 -30
s12 -22.667 16 -36z" />
    <glyph glyph-name="cid33" unicode="@" horiz-adv-x="946" 
d="M450 -173c-54.667 0 -106.003 8.66504 -154.003 25.998s-89.667 42.833 -125 76.5s-63.333 75.334 -84 125.001s-31 107.167 -31 172.5c0 74.667 12.667 142.5 38 203.5s59.333 113 102 156s92.167 76.333 148.5 100s115.5 35.5 177.5 35.5c56 0 106.667 -9 152 -27
s84 -43.167 116 -75.5s56.5 -71.333 73.5 -117s25.5 -95.834 25.5 -150.5c0 -48.667 -6.83301 -91.5 -20.5 -128.5s-31.334 -68 -53.001 -93s-45.667 -43.833 -72 -56.5c-26.334 -12.667 -52.167 -19 -77.5 -19c-30.667 0 -56.667 7 -78 21
c-21.334 14 -33.667 35.333 -36.999 64h-3c-18 -21.333 -39 -39.5 -63 -54.5s-48.333 -22.5 -73 -22.5c-38 0 -69.833 13.667 -95.5 41s-38.5 66.666 -38.5 117.999c0 29.333 5 59.333 15 90s24.333 58.5 43 83.5s41.334 45.5 68.001 61.5s56.334 24 89.001 24
c39.333 0 69 -18.333 89 -55h2l13 46h60l-44 -223c-10.667 -45.333 -10.834 -78.5 -0.500977 -99.5s30.833 -31.5 61.5 -31.5c18 0 35.833 5.16699 53.5 15.5c17.6699 10.333 33.8369 25.333 48.501 45c14.667 19.667 26.5 43.834 35.5 72.501s13.5 61 13.5 97
c0 45.334 -6.66699 87.167 -20 125.5s-33 71.333 -59 99c-26 27.6689 -58.333 49.3359 -97 65c-38.667 15.667 -83.334 23.5 -134.001 23.5c-50 0 -98.333 -10.167 -145 -30.5s-88.334 -49.333 -125 -87c-36.667 -37.667 -66 -83 -88 -136s-33 -112.167 -33 -177.5
c0 -54.667 8.33301 -103.167 25 -145.5s39.834 -78 69.501 -107s64.834 -51.167 105.501 -66.5s84.667 -23 132 -23c34 0 66.5 4.66699 97.5 14s59.167 21.333 84.5 36l24 -54c-32.667 -19.333 -66.5 -33.666 -101.5 -42.999s-71.833 -14 -110.5 -14zM429.997 125.998
c15.333 0 31.5 5.16895 48.5 15.502s35.167 27.166 54.5 50.499l32 178c-10.667 17.333 -21.5 29.5 -32.5 36.5s-24.167 10.5 -39.5 10.5c-22 0 -41.833 -6 -59.5 -18s-32.5 -27.167 -44.5 -45.5s-21.333 -38.833 -28 -61.5s-10 -44.334 -10 -65.001
c0 -36 7.5 -61.833 22.5 -77.5s33.833 -23.5 56.5 -23.5z" />
    <glyph glyph-name="cid34" unicode="A" horiz-adv-x="687" 
d="M458 298l-36 112c-14.667 42 -28.167 83.167 -40.5 123.5s-24.833 81.833 -37.5 124.5h-4c-12 -43.333 -24.5 -85 -37.5 -125s-26.167 -81 -39.5 -123l-38 -112h233zM483 224h-282l-74 -224h-99l261 733h109l261 -733h-103z" />
    <glyph glyph-name="cid35" unicode="B" horiz-adv-x="738" 
d="M127 733h229.002c39.334 0 75.167 -3.33301 107.5 -10s60.166 -17.167 83.499 -31.5s41.5 -32.833 54.5 -55.5s19.5 -50 19.5 -82c0 -36.667 -9.83301 -69.5 -29.5 -98.5s-47.834 -49.167 -84.501 -60.5v-5c46.667 -8.66699 84.667 -27.5 114 -56.5s44 -68.5 44 -118.5
c0 -36 -7.16699 -67.5 -21.5 -94.5s-34.333 -49.333 -60 -67s-56.5 -31 -92.5 -40s-75.333 -13.5 -118 -13.5h-246v733zM339.002 421c66.667 0 114.333 10.833 143 32.5s43 51.167 43 88.5c0 43.333 -15.167 73.833 -45.5 91.5s-75.833 26.5 -136.5 26.5h-118v-239h114z
M359.001 74c66.667 0 118.333 11.5 155 34.5s55 59.5 55 109.5c0 46 -18 79.5 -54 100.5s-88 31.5 -156 31.5h-134v-276h134z" />
    <glyph glyph-name="cid36" unicode="C" horiz-adv-x="718" 
d="M419 -13c-48 0 -92.334 8.50293 -133.001 25.5029s-76 41.833 -106 74.5s-53.5 72.5 -70.5 119.5s-25.5 100.167 -25.5 159.5s8.66699 112.5 26 159.5s41.166 87 71.499 120s66.333 58.167 108 75.5s87.167 26 136.5 26c23.333 0 45.333 -2.5 66 -7.5
s40 -11.833 58 -20.5s34.167 -18.334 48.5 -29.001s27.166 -22 38.499 -34l-53 -60c-20 20.667 -42.833 37.5 -68.5 50.5s-55.167 19.5 -88.5 19.5c-36.667 0 -69.834 -6.83301 -99.5 -20.5c-29.667 -13.667 -55.167 -33.334 -76.5 -59.001s-37.833 -56.834 -49.5 -93.501
s-17.5 -78 -17.5 -124s5.66699 -87.667 17 -125s27.333 -69 48 -95s45.834 -46 75.501 -60s62.834 -21 99.501 -21s69.334 7.33301 98.001 22c28.668 14.667 55.335 34.667 80.001 60l54 -58c-30.667 -34 -65.334 -60 -104.001 -78s-83 -27 -133 -27z" />
    <glyph glyph-name="cid37" unicode="D" horiz-adv-x="728" 
d="M107 733l192.999 0.00195312c118.667 0 208.834 -31.333 270.501 -94s92.5 -152.667 92.5 -270c0 -58 -7.83301 -109.833 -23.5 -155.5s-38.667 -84.334 -69 -116.001s-67.833 -55.834 -112.5 -72.501s-96 -25 -154 -25h-197v733zM291.999 76.002
c90.667 0 158.332 25.667 202.999 77s67 123.333 67 216c0 93.334 -22.167 164.834 -66.5 214.5c-44.333 49.667 -112.166 74.5 -203.499 74.5h-88v-582h88z" />
    <glyph glyph-name="cid38" unicode="E" horiz-adv-x="630" 
d="M109 733h444v-78h-346v-230h292v-79h-292v-267h358v-79h-456v733z" />
    <glyph glyph-name="cid39" unicode="F" horiz-adv-x="596" 
d="M109 733h445v-78h-347v-248h294v-78h-294v-329h-98v733z" />
    <glyph glyph-name="cid40" unicode="G" horiz-adv-x="730" 
d="M411 -13c-50.667 0 -97.334 8.50195 -140 25.502c-42.667 17 -79.334 41.833 -110.001 74.5s-54.5 72.5 -71.5 119.5s-25.5 100.167 -25.5 159.5s8.83301 112.5 26.5 159.5s42.167 87 73.5 120s68.5 58.167 111.5 75.5s90.167 26 141.5 26
c26.667 0 51.167 -2.66699 73.5 -8c22.333 -5.34473 42.5 -12.1777 60.5 -20.5c18 -8.33301 34.167 -18 48.5 -29s27.166 -22.167 38.499 -33.5l-52 -60c-19.333 19.333 -42 35.833 -68 49.5s-59 20.5 -99 20.5c-38.667 0 -73.667 -6.83301 -105 -20.5
s-58.166 -33.334 -80.499 -59.001s-39.5 -56.834 -51.5 -93.501s-18 -78 -18 -124s5.66699 -87.667 17 -125s27.833 -69 49.5 -95s48.334 -46 80.001 -60s68.167 -21 109.5 -21c28 0 54.5 3.83301 79.5 11.5s45.167 18.167 60.5 31.5v192h-163v77h252v-308
c-24.667 -24.667 -57.5 -45 -98.5 -61s-87.5 -24 -139.5 -24z" />
    <glyph glyph-name="cid41" unicode="H" horiz-adv-x="768" 
d="M107 733h97v-307h360v307h96v-733h-96v346h-360v-346h-97v733z" />
    <glyph glyph-name="cid42" unicode="I" horiz-adv-x="328" 
d="M118 733h97v-733h-97v733z" />
    <glyph glyph-name="cid43" unicode="J" horiz-adv-x="576" 
d="M257 -13c-48.667 0 -90.167 9.83398 -124.5 29.501s-62.833 48.5 -85.5 86.5l69 47c17.333 -29.333 36.666 -50.333 57.999 -63s46 -19 74 -19c41.333 0 72 12 92 36s30 64 30 120v509h96v-518c0 -31.333 -3.83301 -60.833 -11.5 -88.5s-20 -51.834 -37 -72.501
s-38.667 -37 -65 -49s-58.166 -18 -95.499 -18z" />
    <glyph glyph-name="cid44" unicode="K" horiz-adv-x="687" 
d="M109 733h97v-368h3l318 368h108l-238 -279l276 -454h-108l-228 382l-131 -150v-232h-97v733z" />
    <glyph glyph-name="cid45" unicode="L" horiz-adv-x="580" 
d="M112 733h96v-654h333v-79h-429v733z" />
    <glyph glyph-name="cid46" unicode="M" horiz-adv-x="850" 
d="M105 733h117.002l148 -392c9.33301 -25.333 18.5 -50.833 27.5 -76.5s18.167 -51.167 27.5 -76.5h5c9.33496 25.333 18.168 50.833 26.5 76.5c8.33496 25.667 17.168 51.167 26.5 76.5l147 392h117v-733h-91v406c0 16 0.333008 33.167 1 51.5s1.66699 37 3 56
s2.83301 37.833 4.5 56.5s3.16699 36 4.5 52h-5l-61 -167l-146 -381h-65l-146 381l-60 167h-5c1.33301 -16 2.66602 -33.333 3.99902 -52s2.66602 -37.5 3.99902 -56.5s2.33301 -37.667 3 -56s1 -35.5 1 -51.5v-406h-88v733z" />
    <glyph glyph-name="cid47" unicode="N" horiz-adv-x="760" 
d="M107 733l101.001 -0.000976562l280 -462l82 -151h5c-2.66699 37.333 -5.33398 75.833 -8.00098 115.5s-4 78.5 -4 116.5v381h92v-733h-100l-280 463l-83 151h-4c2 -37.334 4.33301 -75.167 7 -113.499c2.66699 -38.333 4 -76.833 4 -115.5v-385h-92v733z" />
    <glyph glyph-name="cid48" unicode="O" horiz-adv-x="780" 
d="M391 -13c-47.333 0 -90.833 8.83301 -130.5 26.5s-73.667 43 -102 76s-50.333 73.167 -66 120.5s-23.5 100.333 -23.5 159s7.83301 111.334 23.5 158.001c15.667 46.668 37.667 86.335 66 119c28.333 32.667 62.333 57.667 102 75s83.167 26 130.5 26
s90.833 -8.66699 130.5 -26s73.667 -42.333 102 -75s50.333 -72.334 66 -119.001s23.5 -99.334 23.5 -158c0 -58.667 -7.83301 -111.667 -23.5 -159s-37.667 -87.5 -66 -120.5s-62.333 -58.333 -102 -76s-83.167 -26.5 -130.5 -26.5zM391 68
c34 0 64.835 7.16797 92.502 21.501s51.334 34.5 71.001 60.5c19.6689 26 34.8359 57.5 45.5 94.5c10.667 37 16 78.5 16 124.5s-5.33301 87.333 -16 124c-10.667 36.668 -25.834 67.835 -45.501 93.501c-19.667 25.6689 -43.334 45.3359 -71.001 59
c-27.667 13.667 -58.5 20.5 -92.5 20.5s-64.833 -6.83301 -92.5 -20.5s-51.334 -33.334 -71.001 -59.001s-34.834 -56.834 -45.501 -93.501s-16 -78 -16 -124s5.33301 -87.5 16 -124.5s25.834 -68.5 45.5 -94.5c19.667 -26 43.334 -46.167 71.001 -60.5
s58.5 -21.5 92.5 -21.5z" />
    <glyph glyph-name="cid49" unicode="P" horiz-adv-x="670" 
d="M108 733h219c43.333 0 82.833 -3.66699 118.5 -11s66.167 -19.5 91.5 -36.5s44.833 -39.167 58.5 -66.5s20.5 -61 20.5 -101c0 -38.667 -6.83301 -72.334 -20.5 -101c-13.667 -28.667 -33 -52.334 -58 -71c-25 -18.667 -54.833 -32.5 -89.5 -41.5s-73 -13.5 -115 -13.5
h-127v-291h-98v733zM320 366c68 0 118.167 12.167 150.5 36.5s48.5 62.833 48.5 115.5s-17 89.167 -51 109.5s-84.667 30.5 -152 30.5h-110v-292h114z" />
    <glyph glyph-name="cid50" unicode="Q" horiz-adv-x="780" 
d="M165 369c0 -46.667 5.33496 -88.834 16.002 -126.5c10.667 -37.667 25.834 -69.834 45.5 -96.501c19.667 -26.667 43.5 -47.167 71.5 -61.5s59 -21.5 93 -21.5s64.833 7.16699 92.5 21.5s51.334 34.833 71.001 61.5c19.6689 26.667 34.8359 58.834 45.5 96.501
c10.667 37.667 16 79.834 16 126.501c0 46 -5.33301 87.333 -16 124c-10.667 36.668 -25.834 67.835 -45.501 93.501c-19.667 25.6689 -43.334 45.3359 -71.001 59c-27.667 13.667 -58.5 20.5 -92.5 20.5s-65 -6.83301 -93 -20.5s-51.833 -33.334 -71.5 -59.001
s-34.834 -56.834 -45.501 -93.501s-16 -78 -16 -124zM731.002 -168c-11.333 -4 -26.5049 -7.66504 -45.5049 -10.998s-39.833 -5 -62.5 -5c-35.334 0 -67.667 4.33301 -96.999 13c-29.333 8.66699 -55.666 20.667 -78.999 36s-43.666 33.666 -60.999 54.999
s-31.333 44.666 -42 69.999c-41.333 5.33301 -79 18 -113 38s-63.167 46.333 -87.5 79s-43.166 71 -56.499 115s-20 93 -20 147c0 58.667 8 111.334 24 158.001c16 46.668 38.167 86.335 66.5 119c28.333 32.667 62.333 57.667 102 75s83.5 26 131.5 26
c47.333 0 90.833 -8.66699 130.5 -26c39.668 -17.333 73.835 -42.333 102.501 -75c28.667 -32.667 51 -72.334 67 -119.001s24 -99.334 24 -158c0 -52.667 -6.5 -100.667 -19.5 -144s-31.167 -81.333 -54.5 -114s-51.5 -59.167 -84.5 -79.5s-69.5 -33.833 -109.5 -40.5
c17.334 -32.667 42.167 -57.167 74.5 -73.5s69.5 -24.5 111.5 -24.5c17.333 0 32.5 1 45.5 3s24.5 4.66699 34.5 8z" />
    <glyph glyph-name="cid51" unicode="R" horiz-adv-x="675" 
d="M205 386h129c60.667 0 107 11.5 139 34.5s48 58.5 48 106.5c0 48.667 -16 82.667 -48 102s-78.333 29 -139 29h-129v-272zM530 0l-186 311h-139v-311h-98v733h242c38.667 0 74.5 -3.5 107.5 -10.5s61.5 -18.667 85.5 -35c24 -16.3359 42.667 -37.6689 56 -64
c13.333 -26.333 20 -58.5 20 -96.5c0 -57.333 -16 -103 -48 -137s-74.333 -57 -127 -69l198 -321h-111z" />
    <glyph glyph-name="cid52" unicode="S" horiz-adv-x="638" 
d="M324 -13c-54.667 0 -104.831 9.66797 -150.498 29.001s-85.5 46 -119.5 80l58 63c28 -28 60.5 -50.167 97.5 -66.5s75.5 -24.5 115.5 -24.5c50.667 0 90.334 11 119.001 33s43 51 43 87c0 18.667 -3.33301 34.5 -10 47.5s-15.667 24.333 -27 34
s-24.833 18.167 -40.5 25.5s-32.5 15 -50.5 23l-111 46c-18 7.33398 -36.333 16.167 -55 26.5s-35.5 23 -50.5 38s-27.333 32.667 -37 53c-9.66699 20.334 -14.5 43.834 -14.5 70.5c0 28 6.16699 54 18.5 78s29.166 44.667 50.499 62s46.833 30.833 76.5 40.5
s62.167 14.5 97.5 14.5c46 0 88.333 -8.33301 127 -25s71.667 -38.667 99 -66l-51 -59c-23.333 21.333 -49.333 38.166 -78 50.499s-61 18.5 -97 18.5c-44 0 -79 -9.66699 -105 -29c-26 -19.334 -39 -45.667 -39 -78.999c0 -18 3.83301 -33.333 11.5 -46
c7.66699 -12.6689 17.5 -23.8359 29.5 -33.501c12 -9.66699 25.5 -18 40.5 -25s30.167 -13.5 45.5 -19.5l110 -45c22 -9.33301 42.667 -20 62 -32s36.166 -25.667 50.499 -41s25.666 -33 33.999 -53s12.5 -42.667 12.5 -68c0 -29.333 -6.16699 -56.5 -18.5 -81.5
s-29.833 -47 -52.5 -66s-50.167 -33.833 -82.5 -44.5s-68.5 -16 -108.5 -16z" />
    <glyph glyph-name="cid53" unicode="T" horiz-adv-x="640" 
d="M271 655h-231v78h559v-78h-231v-655h-97v655z" />
    <glyph glyph-name="cid54" unicode="U" horiz-adv-x="760" 
d="M380 -13c-39.333 0 -75.666 5.33301 -108.999 16s-62.5 28.5 -87.5 53.5s-44.5 57.5 -58.5 97.5s-21 89.667 -21 149v430h97v-433c0 -44 4.66699 -80.833 14 -110.5s22 -53.5 38 -71.5s34.833 -30.833 56.5 -38.5s45.167 -11.5 70.5 -11.5c26 0 50.167 3.83301 72.5 11.5
c22.334 7.66699 41.667 20.5 57.999 38.5c16.333 18 29.333 41.833 39 71.5s14.5 66.5 14.5 110.5v433h93v-430c0 -59.333 -7 -109 -21 -149s-33.5 -72.5 -58.5 -97.5s-54.333 -42.833 -88 -53.5s-70.167 -16 -109.5 -16z" />
    <glyph glyph-name="cid55" unicode="V" horiz-adv-x="595" 
d="M-13 733h101l125 -397c6.66699 -21.333 13 -42 19 -62s12 -39.667 18 -59s12 -39 18 -59s12.667 -40.667 20 -62h4c7.33301 21.333 14 42 20 62s12 39.667 18 59s11.833 39 17.5 59s12.167 40.667 19.5 62l124 397h98l-244 -733h-113z" />
    <glyph glyph-name="cid56" unicode="W" 
d="M28 733l100.001 -0.000976562l80 -399c7.33301 -40 14.833 -79.5 22.5 -118.5s15.167 -78.5 22.5 -118.5h4c9.33301 40 18.5 79.5 27.5 118.5s18.167 78.5 27.5 118.5l105 399h88l107 -399c9.33301 -39.333 18.333 -78.666 27 -117.999s17.667 -79 27 -119h5
c7.33301 40 14.666 79.667 21.999 119l22 118l80 399h93l-159 -733h-115l-115 442c-7.33301 29.333 -13.833 57.5 -19.5 84.5c-5.66992 27 -11.8369 54.5 -18.5 82.5h-4c-6.66699 -28 -13.167 -55.5 -19.5 -82.5s-12.833 -55.167 -19.5 -84.5l-113 -442h-114z" />
    <glyph glyph-name="cid57" unicode="X" horiz-adv-x="615" 
d="M248 379l-209.999 354h107l105 -187c10 -17.333 19.5 -34.166 28.5 -50.499s19.833 -35.166 32.5 -56.499h4c10.667 21.334 20.167 40.167 28.5 56.499c8.33496 16.333 17.168 33.166 26.5 50.499l103 187h102l-210 -359l224 -374h-107l-113 198
c-10 18 -20.333 36.667 -31 56s-22.334 40 -35.001 62h-4c-21.333 -42.667 -42 -82 -62 -118l-112 -198h-101z" />
    <glyph glyph-name="cid58" unicode="Y" horiz-adv-x="570" 
d="M237 285l-229 448h103l98 -207c12.667 -27.333 25 -53.833 37 -79.5s24.667 -52.5 38 -80.5h4c13.333 28 26.5 54.833 39.5 80.5s25.167 52.167 36.5 79.5l99 207h100l-229 -448v-285h-97v285z" />
    <glyph glyph-name="cid59" unicode="Z" horiz-adv-x="643" 
d="M57 55l407 600h-370v78h489v-54l-406 -600h411v-79h-531v55z" />
    <glyph glyph-name="cid60" unicode="[" horiz-adv-x="338" 
d="M105 849h199v-51h-130v-858h130v-52h-199v961z" />
    <glyph glyph-name="cid61" unicode="\" horiz-adv-x="403" 
d="M391 -127h-69l-308 971h68z" />
    <glyph glyph-name="cid62" unicode="]" horiz-adv-x="338" 
d="M233 -112h-199v52h130v858h-130v51h199v-961z" />
    <glyph glyph-name="cid63" unicode="^" horiz-adv-x="466" 
d="M202 734h62l143 -255h-68l-106 187l-106 -187h-68z" />
    <glyph glyph-name="cid64" unicode="_" horiz-adv-x="559" 
d="M13 7h532v-61h-532v61z" />
    <glyph glyph-name="cid65" unicode="`" horiz-adv-x="606" 
d="M144 811l64 61l158 -186l-47 -45z" />
    <glyph glyph-name="cid66" unicode="a" horiz-adv-x="564" 
d="M217 -13c-22.667 0 -43.6699 3.49609 -63.0029 10.4961s-36.166 17 -50.499 30s-25.5 29 -33.5 48s-12 40.833 -12 65.5c0 29.333 6.5 55.166 19.5 77.499s33.167 41.833 60.5 58.5s62 30.334 104 41.001s92 19.334 150 26.001c0 17.333 -1.66699 34.333 -5 51
s-9.16602 31.334 -17.499 44.001s-19.833 22.834 -34.5 30.501s-33 11.5 -55 11.5c-32 0 -61.833 -6 -89.5 -18s-52.167 -25.333 -73.5 -40l-36 63c12.667 8 26.834 16.167 42.501 24.5s32.5 16 50.5 23s37.167 12.667 57.5 17s41.5 6.5 63.5 6.5
c32.667 0 61 -5.33301 85 -16s43.5 -25.834 58.5 -45.501s26.167 -43.167 33.5 -70.5s11 -57.666 11 -90.999v-334h-75l-8 65h-3c-26 -21.333 -54 -39.666 -84 -54.999s-62 -23 -96 -23zM242.997 59.9961c26.667 0 51.501 6.16504 74.501 18.498s47.833 30.166 74.5 53.499
v152c-46 -5.33301 -84.5 -12.166 -115.5 -20.499s-56.167 -18.333 -75.5 -30c-19.334 -11.667 -33.167 -24.667 -41.5 -39s-12.5 -30.166 -12.5 -47.499c0 -31.333 9.16699 -53.666 27.5 -66.999s41.166 -20 68.499 -20z" />
    <glyph glyph-name="cid67" unicode="b" horiz-adv-x="618" 
d="M331 -13c-25.333 0 -51.5 6.00098 -78.5 18.001s-52.5 29 -76.5 51h-3l-8 -56h-73v796h91v-218l-3 -98c24.667 21.333 51.667 39.5 81 54.5s59 22.5 89 22.5c35.333 0 66.5 -6.66699 93.5 -20s49.667 -32 68 -56s32.166 -53 41.499 -87s14 -71.667 14 -113
c0 -46.667 -6.5 -88.334 -19.5 -125.001s-30.333 -67.5 -52 -92.5s-46.667 -44 -75 -57s-58.166 -19.5 -89.499 -19.5zM316 63.001c22.667 0 43.499 4.99805 62.499 14.998s35.5 24.167 49.5 42.5s24.833 40.833 32.5 67.5s11.5 57 11.5 91c0 30 -2.66699 57.333 -8 82
s-13.666 45.834 -24.999 63.501s-26 31.334 -44 41.001s-40 14.5 -66 14.5c-23.333 0 -47 -6.33301 -71 -19c-24 -12.668 -49 -31.335 -75 -56.001v-285c24 -21.333 47.667 -36.166 71 -44.499s44 -12.5 62 -12.5z" />
    <glyph glyph-name="cid68" unicode="c" horiz-adv-x="509" 
d="M306 -13c-36 0 -69.5 6.33301 -100.5 19s-58 31.167 -81 55.5s-41 54 -54 89s-19.5 75.167 -19.5 120.5c0 45.334 7.16699 85.667 21.5 121s33.5 65.333 57.5 90s51.833 43.334 83.5 56.001s64.834 19 99.501 19c36 0 66.667 -6.33301 92 -19
c25.334 -12.667 47.667 -27.667 66.999 -45l-47 -61c-16 14.667 -32.667 26.5 -50 35.5s-37 13.5 -59 13.5c-24.667 0 -47.334 -5 -68 -15c-20.667 -10 -38.5 -24.333 -53.5 -43s-26.833 -40.834 -35.5 -66.5c-8.66699 -25.667 -13 -54.167 -13 -85.5s4 -59.833 12 -85.5
s19.5 -47.5 34.5 -65.5s32.667 -32 53 -42c20.334 -10 43.167 -15 68.5 -15c25.334 0 48.667 5.16699 70 15.5c21.334 10.333 40.667 23.166 58 38.499l39 -61c-24 -22 -51 -39 -81 -51s-61.333 -18 -94 -18z" />
    <glyph glyph-name="cid69" unicode="d" horiz-adv-x="620" 
d="M277 -13c-34 0 -64.8311 6.33398 -92.498 19.001s-51.167 31 -70.5 55s-34.333 53.667 -45 89s-16 75.666 -16 120.999c0 44 6.5 83.667 19.5 119s30.167 65.333 51.5 90s46.166 43.667 74.499 57s58.166 20 89.499 20c32 0 59.5 -5.66699 82.5 -17s46.5 -27 70.5 -47
l-5 94v209h91v-796h-74l-9 64h-2c-21.333 -21.333 -46 -39.5 -74 -54.5s-58.333 -22.5 -91 -22.5zM297.002 63.001c25.334 0 49.167 6.16699 71.5 18.5s44.833 31.166 67.5 56.499v285c-23.333 20.667 -45.5 35.334 -66.5 44.001s-42.833 13 -65.5 13
c-22 0 -42.5 -5 -61.5 -15s-35.667 -24.167 -50 -42.5s-25.5 -40.333 -33.5 -66s-12 -53.834 -12 -84.5c0 -66 13 -117.333 39 -154s63 -55 111 -55z" />
    <glyph glyph-name="cid70" unicode="e" horiz-adv-x="554" 
d="M311 -13c-36 0 -69.8359 6.33301 -101.503 19s-59.167 31.167 -82.5 55.5s-41.833 54.166 -55.5 89.499s-20.5 75.333 -20.5 120c0 44 6.83301 83.667 20.5 119s31.834 65.333 54.501 90s48.834 43.667 78.501 57s60.167 20 91.5 20c34.667 0 65.334 -6 92.001 -18
s49.167 -29.167 67.5 -51.5s32.333 -49.166 42 -80.499s14.5 -66.333 14.5 -105c0 -10 -0.333008 -19.5 -1 -28.5s-1.66699 -16.833 -3 -23.5h-366c3.33301 -58.667 21.166 -105 53.499 -139s74.5 -51 126.5 -51c26.667 0 51 3.83301 73 11.5s43 18.167 63 31.5l33 -60
c-24 -15.333 -50.667 -28.5 -80 -39.5s-62.666 -16.5 -99.999 -16.5zM431.997 315c0 55.333 -11.833 97.333 -35.5 126s-56.834 43 -99.5 43c-19.333 0 -37.833 -3.83301 -55.5 -11.5s-33.5 -18.667 -47.5 -33s-25.667 -32 -35 -53s-15.333 -44.833 -18 -71.5h291z" />
    <glyph glyph-name="cid71" unicode="f" horiz-adv-x="325" 
d="M336 722c-20.667 9.33301 -41 14 -61 14c-51.333 0 -77 -35.667 -77 -107v-86h115v-74h-115v-469h-91v469h-74v69l74 5v87c0 55.333 12.833 99 38.5 131s65.5 48 119.5 48c16.667 0 32.667 -1.66699 48 -5c15.334 -3.3457 29.667 -7.67871 43 -13z" />
    <glyph glyph-name="cid72" unicode="g" horiz-adv-x="563" 
d="M275 -250c-33.333 0 -63.8311 3.1709 -91.498 9.50391s-51.334 15.666 -71.001 27.999s-35 27.666 -46 45.999s-16.5 39.166 -16.5 62.499s7.16699 45.5 21.5 66.5s34.166 39.833 59.499 56.5v4c-14.667 8.66699 -26.667 20.334 -36 35.001s-14 32.667 -14 54
c0 22.667 6.66699 42.667 20 60s27 31 41 41v4c-18 14.667 -34.333 34.5 -49 59.5s-22 53.833 -22 86.5c0 30 5.5 56.833 16.5 80.5s25.833 44 44.5 61s40.334 30 65.001 39s50.667 13.5 78 13.5c15.333 0 29.5 -1.5 42.5 -4.5s24.167 -6.16699 33.5 -9.5h189v-70h-111
c13.333 -12.667 24 -28.667 32 -48s12 -40.666 12 -63.999c0 -29.333 -5.16699 -55.5 -15.5 -78.5s-24.5 -42.833 -42.5 -59.5s-39 -29.334 -63 -38.001s-49.667 -13 -77 -13c-28.667 0 -55.667 6.33301 -81 19c-10 -8.66699 -18.333 -17.834 -25 -27.501
s-10 -22.167 -10 -37.5c0 -17.333 6.66699 -31.5 20 -42.5s38.333 -16.5 75 -16.5h106c63.333 0 110.666 -10.333 141.999 -31s47 -53.334 47 -98.001c0 -25.333 -6.33301 -49.333 -19 -72s-31 -42.667 -55 -60s-52.833 -31 -86.5 -41s-71.5 -15 -113.5 -15z
M275.002 234.004c15.333 0 30.001 3 44.001 9s26.167 14.667 36.5 26c10.335 11.333 18.668 24.833 25 40.5c6.33301 15.667 9.5 33.5 9.5 53.5c0 40 -11.167 71.167 -33.5 93.5s-49.5 33.5 -81.5 33.5s-59.333 -11.167 -82 -33.5s-34 -53.5 -34 -93.5
c0 -20 3.16699 -37.833 9.5 -53.5s14.666 -29.167 24.999 -40.5s22.5 -20 36.5 -26s29 -9 45 -9zM288.003 -187.996c26 0 49.667 3.16797 71 9.50098s39.5 14.666 54.5 24.999s26.667 22.333 35 36s12.5 27.5 12.5 41.5c0 25.333 -9.5 42.833 -28.5 52.5
s-46.5 14.5 -82.5 14.5h-94c-10 0 -21.167 0.666992 -33.5 2s-24.5 3.66602 -36.5 6.99902c-19.333 -14 -33.5 -28.833 -42.5 -44.5s-13.5 -31.5 -13.5 -47.5c0 -29.333 13.833 -52.666 41.5 -69.999s66.5 -26 116.5 -26z" />
    <glyph glyph-name="cid73" unicode="h" horiz-adv-x="607" 
d="M92 796h91v-218l-3 -112c25.333 25.334 52.333 46.834 81 64.5c28.667 17.667 61.667 26.5 99 26.5c57.333 0 99.333 -18 126 -54s40 -89 40 -159v-344h-91v332c0 51.333 -8.16699 88.333 -24.5 111s-42.5 34 -78.5 34c-28 0 -53 -7 -75 -21s-46.667 -34.667 -74 -62
v-394h-91v796z" />
    <glyph glyph-name="cid74" unicode="i" horiz-adv-x="275" 
d="M92 543h91v-543h-91v543zM138 655c-18 0 -33 5.5 -45 16.5s-18 25.167 -18 42.5c0 18.667 6 33.167 18 43.5s27 15.5 45 15.5s33 -5.16699 45 -15.5s18 -24.833 18 -43.5c0 -17.333 -6 -31.5 -18 -42.5s-27 -16.5 -45 -16.5z" />
    <glyph glyph-name="cid75" unicode="j" horiz-adv-x="275" 
d="M36 -243c-16.667 0 -31.833 1.5 -45.5 4.5s-25.167 6.16699 -34.5 9.5l18 70c7.33301 -2.66699 15.333 -5 24 -7s17.667 -3 27 -3c27.333 0 45.5 9.5 54.5 28.5s13.5 45.167 13.5 78.5v605h91v-605c0 -55.333 -11.333 -99.333 -34 -132s-60.667 -49 -114 -49z
M139.001 655c-18 0 -32.999 5.5 -44.999 16.5s-18 25.167 -18 42.5c0 18.667 6 33.167 18 43.5s27 15.5 45 15.5c17.333 0 32.166 -5.16699 44.499 -15.5s18.5 -24.833 18.5 -43.5c0 -17.333 -6.16699 -31.5 -18.5 -42.5c-12.334 -11 -27.167 -16.5 -44.5 -16.5z" />
    <glyph glyph-name="cid76" unicode="k" horiz-adv-x="552" 
d="M92 796h90v-540h2l233 287h101l-182 -218l206 -325h-99l-159 262l-102 -119v-143h-90v796z" />
    <glyph glyph-name="cid77" unicode="l" horiz-adv-x="270" 
d="M92 0v796h89v-796h-89z" />
    <glyph glyph-name="cid78" unicode="m" horiz-adv-x="926" 
d="M92 543h75.0029l8 -79h3c23.333 26 49.166 48 77.499 66s58.833 27 91.5 27c42 0 74.667 -9.33301 98 -28c23.334 -18.667 40.667 -44 51.999 -76c28 30.667 56.5 55.667 85.5 75s60.167 29 93.5 29c56.668 0 98.335 -18 125 -54c26.667 -36 40 -89 40 -159v-344h-91v332
c0 51.333 -8.16699 88.333 -24.5 111s-41.833 34 -76.5 34c-40.667 0 -86.334 -27.667 -137.001 -83v-394h-91v332c0 51.333 -8.16699 88.333 -24.5 111s-41.833 34 -76.5 34c-42 0 -87.667 -27.667 -137 -83v-394h-91v543z" />
    <glyph glyph-name="cid79" unicode="n" horiz-adv-x="611" 
d="M92 543h75l8 -78h3c26 25.333 53.5 47 82.5 65s62.167 27 99.5 27c57.333 0 99.333 -18 126 -54s40 -89 40 -159v-344h-91v332c0 51.333 -8.16699 88.333 -24.5 111s-42.5 34 -78.5 34c-28 0 -53 -7 -75 -21s-46.667 -34.667 -74 -62v-394h-91v543z" />
    <glyph glyph-name="cid80" unicode="o" horiz-adv-x="606" 
d="M303 -13c-33.333 0 -65.167 6.33203 -95.5 18.999s-57.166 31.167 -80.499 55.5s-41.833 54 -55.5 89s-20.5 75.167 -20.5 120.5c0 45.334 6.83301 85.667 20.5 121s32.167 65.333 55.5 90s50.166 43.334 80.499 56.001s62.166 19 95.499 19
c33.334 0 65.167 -6.33301 95.5 -19c30.334 -12.667 57.167 -31.334 80.499 -56.001c23.334 -24.667 41.834 -54.667 55.5 -90c13.667 -35.333 20.5 -75.666 20.5 -120.999s-6.83301 -85.5 -20.5 -120.5s-32.167 -64.667 -55.5 -89s-50.166 -42.833 -80.499 -55.5
s-62.166 -19 -95.499 -19zM302.999 62.999c23.334 0 44.666 4.99902 63.999 14.999s36 24 50 42s24.833 39.833 32.5 65.5s11.5 54.167 11.5 85.5s-3.83301 59.833 -11.5 85.5s-18.5 47.834 -32.5 66.501s-30.667 33 -50 43s-40.666 15 -63.999 15s-44.666 -5 -63.999 -15
s-35.833 -24.333 -49.5 -43s-24.334 -40.834 -32.001 -66.5c-7.66699 -25.667 -11.5 -54.167 -11.5 -85.5s3.83301 -59.833 11.5 -85.5s18.334 -47.5 32 -65.5c13.667 -18 30.167 -32 49.5 -42c19.334 -10 40.667 -15 64 -15z" />
    <glyph glyph-name="cid81" unicode="p" horiz-adv-x="620" 
d="M92 543h75l8 -62h3c24.667 20 51.667 37.667 81 53s60 23 92 23c34.667 0 65.5 -6.66699 92.5 -20s49.667 -32 68 -56s32.166 -53 41.499 -87s14 -72 14 -114c0 -46.667 -6.5 -88.167 -19.5 -124.5s-30.333 -67 -52 -92s-46.667 -44 -75 -57s-58.166 -19.5 -89.499 -19.5
c-24.667 0 -49.667 5.5 -75 16.5s-50.333 26.5 -75 46.5l2 -95v-184h-91v772zM316 63c22.667 0 43.5 4.99805 62.5 14.998s35.5 24.167 49.5 42.5s24.833 40.833 32.5 67.5s11.5 57 11.5 91c0 30 -2.66699 57.333 -8 82s-13.666 45.834 -24.999 63.501
s-26 31.334 -44 41.001s-40 14.5 -66 14.5c-23.333 0 -46.833 -6.33301 -70.5 -19c-23.667 -12.668 -48.834 -31.335 -75.501 -56.001v-285c24.667 -21.333 48.5 -36.166 71.5 -44.499s43.5 -12.5 61.5 -12.5z" />
    <glyph glyph-name="cid82" unicode="q" horiz-adv-x="620" 
d="M436 -36l5.00195 99c-22 -21.333 -46.833 -39.333 -74.5 -54s-57.5 -22 -89.5 -22c-34 0 -64.833 6.33301 -92.5 19s-51.167 31 -70.5 55s-34.333 53.667 -45 89s-16 75.666 -16 120.999c0 44 6.5 83.667 19.5 119s30.167 65.333 51.5 90s46.166 43.667 74.499 57
s58.166 20 89.499 20c32 0 60 -5.66699 84 -17c24 -11.335 47.667 -27.668 71 -48.999h3l9 52h72v-772h-91v193zM297.002 63c25.334 0 49.167 6.16699 71.5 18.5s44.833 31.166 67.5 56.499v285c-23.333 20.667 -45.5 35.334 -66.5 44.001s-42.833 13 -65.5 13
c-22 0 -42.5 -5 -61.5 -15s-35.667 -24.167 -50 -42.5s-25.5 -40.333 -33.5 -66s-12 -53.834 -12 -84.5c0 -66 13 -117.333 39 -154s63 -55 111 -55z" />
    <glyph glyph-name="cid83" unicode="r" horiz-adv-x="388" 
d="M92 543l74.998 0.000976562l8 -99h3c19.333 34.667 42.166 62.167 68.499 82.5s54.833 30.5 85.5 30.5c12 0 22.5 -0.833008 31.5 -2.5s17.833 -4.83398 26.5 -9.50098l-17 -80c-9.33301 3.34082 -17.666 5.67383 -24.999 7c-7.33301 1.33301 -16.666 2 -27.999 2
s-23.166 -2.16699 -35.499 -6.5s-24.5 -11.333 -36.5 -21s-23.667 -22.5 -35 -38.5s-21.333 -35.667 -30 -59v-349h-91v543z" />
    <glyph glyph-name="cid84" unicode="s" horiz-adv-x="468" 
d="M234 -13c-38.667 0 -75.665 7.16699 -110.998 21.5s-66 32.166 -92 53.499l45 60c23.333 -19.333 47.833 -34.833 73.5 -46.5s54.834 -17.5 87.501 -17.5c36 0 62.833 8.33301 80.5 25s26.5 36.667 26.5 60c0 14 -3.66699 26 -11 36s-16.833 19 -28.5 27
s-25 15.167 -40 21.5s-29.833 12.5 -44.5 18.5c-19.333 6.66699 -38.5 14.334 -57.5 23.001s-36.333 19.167 -52 31.5s-28.334 26.666 -38.001 42.999c-9.66699 16.334 -14.5 36.167 -14.5 59.5c0 21.333 4.16699 41.333 12.5 60s20.5 35 36.5 49s35.667 25 59 33
s49.666 12 78.999 12c34 0 65.333 -6 94 -18s53.667 -26.333 75 -43l-44 -59c-19.333 14 -38.833 25.5 -58.5 34.5s-41.834 13.5 -66.5 13.5c-34 0 -59 -7.66699 -75 -23s-24 -33.666 -24 -54.999c0 -13.333 3.33301 -24.5 10 -33.5s15.667 -17 27 -24
s24.166 -13.333 38.499 -19s29.166 -11.5 44.499 -17.5c20 -7.33301 39.833 -15.333 59.5 -24s37.334 -19.167 53.001 -31.5c15.667 -12.334 28.5 -27.167 38.5 -44.5s15 -39 15 -65c0 -22 -4.33301 -42.833 -13 -62.5c-8.66797 -19.667 -21.335 -36.667 -38 -51
c-16.667 -14.333 -37.334 -25.833 -62 -34.5c-24.667 -8.66699 -53 -13 -85 -13z" />
    <glyph glyph-name="cid85" unicode="t" horiz-adv-x="377" 
d="M263 -13c-29.333 0 -53.833 4.33301 -73.5 13s-35.5 20.834 -47.5 36.501s-20.667 34.667 -26 57s-8 47.166 -8 74.499v301h-81v69l85 5l11 152h76v-152h147v-74h-147v-303c0 -34 6 -60 18 -78s34 -27 66 -27c9.33398 0 19.667 1.5 30.999 4.5
c11.335 3 21.668 6.16699 31 9.5l18 -68c-15.333 -5.33301 -31.666 -10 -48.999 -14s-34.333 -6 -51 -6z" />
    <glyph glyph-name="cid86" unicode="u" horiz-adv-x="607" 
d="M250 -13c-57.333 0 -99.167 18.001 -125.5 54.001s-39.5 88.667 -39.5 158v344h91v-333c0 -50.667 8 -87.334 24 -110.001s42 -34 78 -34c28 0 53 7.16699 75 21.5s46 37.833 72 70.5v385h91v-543h-76l-7 85h-3c-25.333 -29.333 -52.333 -53 -81 -71s-61.667 -27 -99 -27
z" />
    <glyph glyph-name="cid87" unicode="v" horiz-adv-x="521" 
d="M13 543h95l102 -309c8.66699 -26.667 17.167 -53.667 25.5 -81s16.833 -53.666 25.5 -78.999h4c8 25.333 16.333 51.666 25 78.999s17 54.333 25 81l103 309h90l-193 -543h-106z" />
    <glyph glyph-name="cid88" unicode="w" horiz-adv-x="802" 
d="M27 543l93.001 0.00195312l81 -314c5.33301 -26 10.666 -51.5 15.999 -76.5s10.666 -50.167 15.999 -75.5h5c6 25.333 11.833 50.666 17.5 75.999s12.167 50.666 19.5 75.999l84 314h89l85 -314c6.66699 -26 13 -51.5 19 -76.5s12.333 -50.167 19 -75.5h4
c6 25.333 11.667 50.5 17 75.5s11 50.5 17 76.5l80 314h86l-146 -543h-110l-79 293c-7.33301 25.334 -13.666 50.667 -18.999 76s-11.333 52 -18 80h-5c-6 -28 -11.833 -54.833 -17.5 -80.5s-12.167 -51.5 -19.5 -77.5l-76 -291h-107z" />
    <glyph glyph-name="cid89" unicode="x" horiz-adv-x="498" 
d="M194 283l-165 260.001h98l73 -120c8.66699 -15.333 17.5 -30.333 26.5 -45s18.167 -29.667 27.5 -45h4c8.66699 15.333 17 30.333 25 45s16 29.667 24 45l67 120h95l-165 -269l179 -274h-100l-80 127c-9.33301 16.667 -18.833 33.167 -28.5 49.5
s-19.5 32.166 -29.5 47.499h-5c-9.33398 -15.334 -18.667 -31.167 -28 -47.5c-9.33398 -16.333 -18.667 -32.833 -28 -49.5l-73 -127h-96z" />
    <glyph glyph-name="cid90" unicode="y" horiz-adv-x="521" 
d="M101 -234c-24.667 0 -45.999 3.66797 -63.999 11.001l18 73c5.33301 -2 11.666 -4 18.999 -6s14.666 -3 21.999 -3c31.333 0 56.833 11 76.5 33s35.167 50 46.5 84l12 41l-218 544h95l111 -302c8 -23.333 16.5 -48.333 25.5 -75s17.833 -52.334 26.5 -77.001h5
c7.33301 24.667 15 50.167 23 76.5s15.667 51.5 23 75.5l97 302h89l-205 -588c-9.33301 -26.667 -20.166 -51.5 -32.499 -74.5s-26.5 -43 -42.5 -60s-34.5 -30.333 -55.5 -40s-44.833 -14.5 -71.5 -14.5z" />
    <glyph glyph-name="cid91" unicode="z" horiz-adv-x="474" 
d="M35 49l286 420h-255v74h370v-49l-286 -420h296v-74h-411v49z" />
    <glyph glyph-name="cid92" unicode="{" horiz-adv-x="338" 
d="M255 -114c-22 0 -41.332 2.33398 -57.999 7.00098s-30.334 12.667 -41.001 24s-18.667 26.5 -24 45.5s-8 43.167 -8 72.5c0 20 0.5 39 1.5 57s2.16699 35.5 3.5 52.5s2.5 34.167 3.5 51.5s1.5 35.333 1.5 54c0 10.667 -1.5 21.334 -4.5 32.001s-8 20 -15 28
s-16.833 14.667 -29.5 20s-28.334 8 -47.001 8v57c18.667 0 34.334 2.66699 47.001 8s22.5 12 29.5 20s12 17.167 15 27.5s4.5 20.833 4.5 31.5c0 18.667 -0.5 36.667 -1.5 54s-2.16699 34.666 -3.5 51.999s-2.5 35 -3.5 53s-1.5 37 -1.5 57c0 28.667 2.66699 52.667 8 72
s13.333 34.666 24 45.999s24.334 19.333 41 24c16.667 4.66699 36 7 58 7h49v-51h-29c-30 0 -50.167 -8.16699 -60.5 -24.5s-15.5 -42.5 -15.5 -78.5c0 -34 1 -66.667 3 -98s3 -66.333 3 -105c0 -36 -5 -63.5 -15 -82.5s-27.333 -31.833 -52 -38.5v-4
c24.667 -7.33301 42 -20.5 52 -39.5s15 -46.5 15 -82.5c0 -38 -1 -72.833 -3 -104.5s-3 -64.5 -3 -98.5c0 -36 5.16699 -62 15.5 -78s30.5 -24 60.5 -24h29v-52h-49z" />
    <glyph glyph-name="cid93" unicode="|" horiz-adv-x="269" 
d="M103 847h64v-982h-64v982z" />
    <glyph glyph-name="cid94" unicode="}" horiz-adv-x="338" 
d="M35 -114v52h29c30 0 50.167 8 60.5 24s15.5 42 15.5 78c0 34 -1 66.833 -3 98.5s-3 66.5 -3 104.5c0 36 5 63.5 15 82.5s27.333 32.167 52 39.5v4c-24.667 6.66699 -42 19.5 -52 38.5s-15 46.5 -15 82.5c0 38.667 1 73.667 3 105s3 64 3 98
c0 36 -5.16699 62.167 -15.5 78.5s-30.5 24.5 -60.5 24.5h-29v51h49c22 0 41.333 -2.33301 58 -7s30.334 -12.667 41 -24c10.667 -11.3359 18.667 -26.6689 24 -45.999c5.33301 -19.333 8 -43.333 8 -72c0 -20 -0.5 -39 -1.5 -57s-2.16699 -35.667 -3.5 -53
c-1.33301 -17.3359 -2.5 -34.6689 -3.5 -52c-1 -17.335 -1.5 -35.335 -1.5 -54c0 -10.667 1.5 -21.167 4.5 -31.5s8 -19.5 15 -27.5s16.833 -14.667 29.5 -20s28.334 -8 47.001 -8v-57c-18.667 0 -34.334 -2.66699 -47 -8c-12.667 -5.33301 -22.5 -12 -29.5 -20
s-12 -17.333 -15 -28c-3 -10.668 -4.5 -21.335 -4.5 -32.001c0 -18.667 0.5 -36.667 1.5 -54s2.16699 -34.5 3.5 -51.5s2.5 -34.5 3.5 -52.5s1.5 -37 1.5 -57c0 -29.333 -2.66699 -53.5 -8 -72.5s-13.333 -34.167 -24 -45.5s-24.334 -19.333 -41.001 -24s-36 -7 -58 -7h-49z
" />
    <glyph glyph-name="cid95" unicode="~" horiz-adv-x="555" 
d="M376 287c-22 0 -41.833 5 -59.5 15s-34.167 20.833 -49.5 32.5c-15.334 11.667 -30.167 22.5 -44.5 32.5s-29.5 15 -45.5 15s-31 -5.33301 -45 -16s-27.667 -28 -41 -52l-51 36c20.667 35.333 43 60.833 67 76.5s48.333 23.5 73 23.5c22 0 41.667 -4.83301 59 -14.5
c17.334 -9.66699 33.667 -20.5 49 -32.5c15.334 -12 30.167 -22.833 44.5 -32.5s29.5 -14.5 45.5 -14.5s31 5.33301 45 16s27.333 28 40 52l52 -37c-20.667 -35.333 -43 -60.833 -67 -76.5s-48 -23.5 -72 -23.5z" />
    <glyph glyph-name="cid96" unicode="&#xa1;" horiz-adv-x="323" 
d="M118 -101l12 423h63l12 -423l3 -104h-93zM161 417c-18 0 -33.499 6.33301 -46.499 19s-19.5 29.667 -19.5 51c0 20.667 6.5 37.5 19.5 50.5s28.5 19.5 46.5 19.5c18.667 0 34.334 -6.5 47 -19.5c12.667 -13 19 -29.833 19 -50.5c0 -21.333 -6.33301 -38.333 -19 -51
s-28.334 -19 -47.001 -19z" />
    <glyph glyph-name="cent" unicode="&#xa2;" horiz-adv-x="833" 
 />
    <glyph glyph-name="cid97" unicode="&#xa4;" horiz-adv-x="555" 
d="M30 165l71 72.999c-26.667 36 -40 79 -40 129c0 52.667 13.333 96.334 40 131.001l-71 74l48 50l76 -78c35.333 28 76.666 42 123.999 42c22 0 43.667 -3.66699 65 -11c21.334 -7.33789 40.667 -17.6709 58 -31l76 78l48 -50l-72 -74
c13.333 -17.333 23.5 -36.833 30.5 -58.5s10.5 -45.834 10.5 -72.5c0 -25.333 -3.5 -48.833 -10.5 -70.5s-17.167 -41.167 -30.5 -58.5l72 -73l-48 -50l-76 77c-17.333 -13.334 -36.666 -23.667 -57.999 -31s-43 -11 -65 -11c-46.667 0 -88 14 -124 42l-76 -77zM278 217.999
c18 0 35 3.66699 51 11s30 17.5 42 30.5s21.5 28.667 28.5 47s10.5 38.5 10.5 60.5s-3.5 42.333 -10.5 61s-16.5 34.667 -28.5 48c-12 13.335 -26 23.668 -42 30.999c-16 7.33301 -33 11 -51 11s-35.167 -3.66699 -51.5 -11s-30.5 -17.666 -42.5 -30.999
s-21.5 -29.333 -28.5 -48s-10.5 -39 -10.5 -61s3.5 -42.167 10.5 -60.5s16.5 -34 28.5 -47s26.167 -23.167 42.5 -30.5s33.5 -11 51.5 -11z" />
    <glyph glyph-name="cid98" unicode="&#xa5;" horiz-adv-x="649" 
d="M283 167h-192.001v55h192v72h-192v55h166l-232 374h98l118 -203c4.66797 -7.33496 8.83496 -14.502 12.501 -21.5c3.66699 -7 7.16699 -13.5 10.5 -19.5s6.33301 -12 9 -18s5.66699 -11.667 9 -17c3.33789 -5.33301 6.6709 -10.833 10 -16.5
c3.33789 -5.66699 6.6709 -11.167 10 -16.5c3.33789 -6 6.6709 -12.333 10 -19c3.33301 -6.66699 7 -13.667 11 -21h5c4 7.33301 7.83301 14.333 11.5 21s7.16699 13 10.5 19c3.33887 5.33301 6.67188 10.833 10 16.5c3.33887 5.66699 6.67188 11.167 10 16.5
c2 5.33301 4.5 11 7.5 17l9.5 19c3.33301 6 7 12.333 11 19s8 13.667 12 21l117 203h96l-230 -374h165v-55h-191v-72h191v-55h-191v-167h-84v167z" />
    <glyph glyph-name="cid99" unicode="&#xa7;" horiz-adv-x="1000" 
d="M669 669c-14 9.33301 -35.002 18.999 -63.002 28.999s-60.667 15 -98 15c-19.333 0 -36.5 -2.5 -51.5 -7.5s-28 -11.667 -39 -20c-11 -8.33398 -19.333 -17.667 -25 -28s-8.5 -20.833 -8.5 -31.5c0 -15.333 3.83301 -28.333 11.5 -39s18.5 -20 32.5 -28
s30.5 -15.167 49.5 -21.5s39.5 -12.5 61.5 -18.5c60 -16 107.167 -37 141.5 -63s51.5 -61.667 51.5 -107c0 -28.667 -6.16699 -55.334 -18.5 -80c-12.3359 -24.667 -28.1689 -45 -47.5 -61c10 -8 19.5 -20.833 28.5 -38.5s13.5 -37.834 13.5 -60.501
c0 -26 -5.83301 -49.667 -17.5 -71s-27.667 -39.5 -48 -54.5c-20.334 -15 -44.167 -26.667 -71.5 -35s-56.333 -12.5 -87 -12.5c-40 0 -75.833 4.16699 -107.5 12.5s-58.167 20.833 -79.5 37.5l28 61c14 -11.333 34.333 -22.333 61 -33s60 -16 100 -16
c44 0 78.333 9.83301 103 29.5s37 43.834 37 72.501c0 12.667 -2.33301 24.334 -7 35.001s-13 20.5 -25 29.5s-28.167 17.833 -48.5 26.5c-20.334 8.66699 -45.834 17.667 -76.5 27c-33.333 10 -62.5 20.333 -87.5 31s-46 22.667 -63 36c-17 13.334 -29.833 28.667 -38.5 46
c-8.66699 17.334 -13 37.667 -13 61c0 19.333 6 41 18 65s31.667 46 59 66c-12.667 9.33301 -22.667 22.833 -30 40.5s-10.666 34.5 -9.99902 50.5c0 22.6689 5 43.8359 15 63.5c10 19.6689 24.333 36.8359 43 51.5c18.667 14.667 41.167 26.167 67.5 34.5
s55.833 12.5 88.5 12.5c38.668 0 72.835 -4.66699 102.501 -14c29.667 -9.33887 54.167 -19.6719 73.5 -31zM390.998 491.999c-17.333 -14 -29.834 -28.501 -37.501 -43.501s-11.5 -29.833 -11.5 -44.5c0 -10 1.5 -19.333 4.5 -28s9.33301 -17.5 19 -26.5
s23.334 -17.833 41.001 -26.5s41.5 -18 71.5 -28c40.667 -13.333 71.667 -24.166 93 -32.499s37 -15.5 47 -21.5c12.6719 11.333 22.3389 25 29.001 41c6.66699 16 10 32.333 10 49c0 17.333 -4.66699 32.333 -14 45s-21.5 23.667 -36.5 33s-32 17.5 -51 24.5
s-38.333 13.5 -58 19.5c-19.668 6 -38.835 12 -57.501 18c-18.667 6 -35 13 -49 21z" />
    <glyph glyph-name="cid100" unicode="&#xa8;" horiz-adv-x="606" 
d="M196 656c-16 0 -29.333 5.33301 -40 16s-16 23.667 -16 39c0 16 5.33301 29.333 16 40s24 16 40 16s29.167 -5.33301 39.5 -16s15.5 -24 15.5 -40c0 -15.333 -5.16699 -28.333 -15.5 -39s-23.5 -16 -39.5 -16zM410 656c-16 0 -29.167 5.33301 -39.5 16
s-15.5 23.667 -15.5 39c0 16 5.16699 29.333 15.5 40s23.5 16 39.5 16s29.167 -5.33301 39.5 -16s15.5 -24 15.5 -40c0 -15.333 -5.16699 -28.333 -15.5 -39s-23.5 -16 -39.5 -16z" />
    <glyph glyph-name="copyright" unicode="&#xa9;" horiz-adv-x="832" 
d="M416 -12c-48.667 0 -94.8359 8.66699 -138.502 26c-43.667 17.333 -82 42.333 -115 75s-59.167 71.834 -78.5 117.501s-29 97.167 -29 154.5c0 56.667 9.66699 107.834 29 153.501s45.5 84.5 78.5 116.5s71.333 56.5 115 73.5s89.834 25.5 138.501 25.5
s94.834 -8.5 138.501 -25.5s82 -41.5 115 -73.5s59.167 -70.833 78.5 -116.5s29 -96.834 29 -153.501c0 -57.333 -9.66699 -108.833 -29 -154.5s-45.5 -84.834 -78.5 -117.501s-71.333 -57.667 -115 -75s-89.834 -26 -138.5 -26zM415.998 34
c42 0 81.6689 7.83301 119.002 23.5s70.166 37.834 98.499 66.501s50.666 63.167 66.999 103.5s24.5 84.833 24.5 133.5s-8.16699 92.834 -24.5 132.501c-16.334 39.667 -38.667 73.667 -67 102c-28.335 28.333 -61.168 50.166 -98.5 65.499c-37.333 15.333 -77 23 -119 23
s-81.833 -7.66699 -119.5 -23c-37.667 -15.3359 -70.5 -37.1689 -98.5 -65.5c-28 -28.333 -50.167 -62.333 -66.5 -102s-24.5 -83.834 -24.5 -132.5c0 -48.667 8.16699 -93.167 24.5 -133.5s38.5 -74.833 66.5 -103.5s60.833 -50.834 98.5 -66.501s77.5 -23.5 119.5 -23.5z
M424 140c-28 0 -54.334 4.99805 -79.001 14.998s-46 24.5 -64 43.5s-32.333 42.167 -43 69.5s-16 58.333 -16 93c0 32.667 5.66699 62 17 88s26.5 48.167 45.5 66.5s40.833 32.333 65.5 42s50.667 14.5 78 14.5c32 0 58.833 -6 80.5 -18s41.167 -27 58.5 -45l-38 -44
c-15.334 14.667 -30.501 26 -45.5 34c-15 8 -32.5 12 -52.5 12c-20.667 0 -39.334 -3.66699 -56 -11c-16.667 -7.33301 -31 -17.666 -43 -30.999s-21.167 -29.166 -27.5 -47.499s-9.5 -38.5 -9.5 -60.5c0 -49.333 12 -88.333 36 -117s56.333 -43 97 -43
c24 0 44.833 4.83301 62.5 14.5s34.834 21.5 51.501 35.5l33 -48c-20 -18 -41.667 -33 -65 -45s-52 -18 -86 -18z" />
    <glyph glyph-name="guillemotleft" unicode="&#xab;" horiz-adv-x="479" 
d="M50 248v68l153 174l39 -34l-132 -174l132 -177l-39 -31zM227 248v68l152 174l39 -34l-131 -174l131 -177l-39 -31z" />
    <glyph glyph-name="cid101" unicode="&#xb0;" horiz-adv-x="370" 
d="M185 480c-18.667 0 -36.334 3.33301 -53.001 10s-31.5 16.167 -44.5 28.5s-23.333 27.333 -31 45s-11.5 37.167 -11.5 58.5c0 22 3.83301 41.667 11.5 59s18 32.333 31 45c13 12.6699 27.833 22.3369 44.5 29.001c16.667 6.66699 34.334 10 53.001 10
s36.5 -3.33301 53.5 -10s31.833 -16.334 44.5 -29.001s22.834 -27.667 30.501 -45s11.5 -37 11.5 -59c0 -21.333 -3.83301 -40.833 -11.5 -58.5c-7.66797 -17.667 -17.835 -32.667 -30.501 -45c-12.667 -12.333 -27.5 -21.833 -44.5 -28.5s-34.833 -10 -53.5 -10zM185 531
c25.333 0 45.667 8.5 61 25.5s23 38.833 23 65.5c0 27.333 -7.66699 49.5 -23 66.5c-15.334 17 -35.667 25.5 -61 25.5s-45.666 -8.5 -60.999 -25.5s-23 -39.167 -23 -66.5c0 -26.667 7.66699 -48.5 23 -65.5s35.666 -25.5 60.999 -25.5z" />
    <glyph glyph-name="cid102" unicode="&#xb1;" horiz-adv-x="1000" 
d="M863 461h-329v-275h-68v275h-329v69h329v274h68v-274h329v-69zM867 87v-69h-730v69h730z" />
    <glyph glyph-name="cid103" unicode="&#xb2;" horiz-adv-x="410" 
d="M58 482c34 30.667 63.8369 58.1709 89.5039 82.5039s47.334 46.666 65 66.999c17.667 20.333 30.834 39.166 39.5 56.499c8.66699 17.333 13 34.333 13 51c0 28.667 -7.66699 51.167 -23 67.5c-15.334 16.333 -35.667 24.5 -61 24.5
c-18.667 0 -35.834 -6.16699 -51.501 -18.5s-29.834 -27.5 -42.501 -45.5l-43 39c17.333 25.333 38.666 45.666 63.999 60.999s53 23 83 23c43.333 0 78.166 -11.833 104.499 -35.5s39.5 -58.834 39.5 -105.501c0 -20.667 -4 -40.667 -12 -60s-19.333 -39 -34 -59
s-31.834 -40.333 -51.5 -61c-19.667 -20.667 -41.167 -43 -64.5 -67h184v-61h-299v41z" />
    <glyph glyph-name="cid104" unicode="&#xb3;" horiz-adv-x="410" 
d="M202 428c-36 0 -67.832 7.99805 -95.499 23.998s-49.834 36.333 -66.501 61l47 36c13.333 -20 29.333 -35.833 48 -47.5s39.334 -17.5 62.001 -17.5c24 0 44.667 6.83301 62 20.5c17.333 13.668 26 32.835 26 57.501c0 25.333 -11.833 44.833 -35.5 58.5
s-57.167 20.5 -100.5 20.5v45c38 0 67.333 7.5 88 22.5s31 33.833 31 56.5c0 20.6699 -7.16699 37.3369 -21.5 50.001c-14.333 12.667 -33.5 19 -57.5 19c-16 0 -31.667 -5 -47 -15s-29.333 -22.667 -42 -38l-42 38c18 21.333 38.5 38.5 61.5 51.5s49.5 19.5 79.5 19.5
c18.667 0 36.5 -2.66699 53.5 -8s32 -13 45 -23s23.167 -22.333 30.5 -37s11 -31 11 -49c0 -26 -7.16699 -47.667 -21.5 -65s-32.833 -31.333 -55.5 -42c25.333 -6.66699 47.333 -19 66 -37s28 -41.667 28 -71c0 -20 -4.16699 -38 -12.5 -54s-19.5 -29.667 -33.5 -41
s-30.333 -20 -49 -26s-38.334 -9 -59.001 -9z" />
    <glyph glyph-name="cid105" unicode="&#xb4;" horiz-adv-x="606" 
d="M240 686l158 186l64 -61l-175 -170z" />
    <glyph glyph-name="cid106" unicode="&#xb6;" horiz-adv-x="1000" 
d="M477 294h-9c-23.333 0 -48.166 4.33301 -74.499 13s-50.666 22 -72.999 40s-41 40.667 -56 68c-15 27.334 -22.5 59.667 -22.5 97c-0.666992 29.333 3.66602 59 12.999 89s25.833 57 49.5 81s56 43.667 97 59s93.167 23 156.5 23c34 0 61.167 -0.666992 81.5 -2
c20.333 -1.35645 37.166 -3.68945 50.499 -7v-812h-64v758h-85v-758h-64v351z" />
    <glyph glyph-name="cid107" unicode="&#xb7;" horiz-adv-x="561" 
d="M276 294c-18 0 -33.5 6.5 -46.5 19.5s-19.5 29.5 -19.5 49.5c0 21.333 6.5 38.5 19.5 51.5s28.5 19.5 46.5 19.5s33.5 -6.5 46.5 -19.5s19.5 -30.167 19.5 -51.5c0 -20 -6.5 -36.5 -19.5 -49.5s-28.5 -19.5 -46.5 -19.5z" />
    <glyph glyph-name="cid108" unicode="&#xb8;" horiz-adv-x="606" 
d="M205 -208c46.667 3.33301 78.5 9.33398 95.5 18.001s25.5 21.334 25.5 38.001c0 14 -6.33301 25.167 -19 33.5s-35 15.166 -67 20.499l48 101h60l-32 -75c25.334 -6 45.167 -14.833 59.5 -26.5s21.5 -28.834 21.5 -51.501c0 -32.667 -15.833 -57.167 -47.5 -73.5
s-76.834 -26.166 -135.5 -29.5z" />
    <glyph glyph-name="cid109" unicode="&#xb9;" horiz-adv-x="410" 
d="M192 786h-94v46c24 4.66699 44 10.5 60 17.5s31.667 16.167 47 27.5h59v-436h-72v345z" />
    <glyph glyph-name="guillemotright" unicode="&#xbb;" horiz-adv-x="479" 
d="M60 105l132 177l-132 174l39 34l153 -174v-68l-153 -174zM237 105l132 177l-132 174l39 34l153 -174v-68l-153 -174z" />
    <glyph glyph-name="cid110" unicode="&#xbc;" horiz-adv-x="872" 
d="M165 298v344h-94v47c24 4.66895 44 10.3359 60 17c16 6.66699 31.667 15.667 47 27h58v-435h-71zM668 747l-405 -760h-61l404 760h62zM707 167v80l6 121h-5l-56 -91l-69 -110h124zM837 117h-65v-117h-65v117h-198v36l183 283h80v-269h65v-50z" />
    <glyph glyph-name="cid111" unicode="&#xbd;" horiz-adv-x="903" 
d="M165 642h-94v47c24 4.66895 44 10.3359 60 17c16 6.66699 31.667 15.667 47 27h58v-435h-71v344zM583 747h62l-405 -760h-61zM551 41c34 30.667 63.835 58.1689 89.502 82.502s47.167 46.666 64.5 66.999s30.333 39.166 39 56.499s13 34.333 13 51
c0 28 -7.5 50.333 -22.5 67s-35.5 25 -61.5 25c-18.667 0 -35.834 -6.16699 -51.501 -18.5s-29.5 -27.5 -41.5 -45.5l-43 39c16.667 25.334 37.5 45.667 62.5 61s52.5 23 82.5 23c44 0 79.167 -12 105.5 -36s39.5 -59 39.5 -105c0 -21.333 -4 -41.666 -12 -60.999
s-19.333 -38.833 -34 -58.5s-31.834 -39.834 -51.501 -60.501s-41.167 -43 -64.5 -67h185v-61h-299v41z" />
    <glyph glyph-name="cid112" unicode="&#xbe;" horiz-adv-x="889" 
d="M56 675c18.667 22 39.3311 39.502 61.998 52.502s49.334 19.5 80.001 19.5c18.667 0 36.5 -2.66699 53.5 -8s31.833 -13 44.5 -23s22.667 -22.333 30 -37s11 -31 11 -49c0 -26 -7.16699 -47.833 -21.5 -65.5s-32.5 -31.5 -54.5 -41.5
c24.667 -6.66699 46.334 -19 65.001 -37s28 -41.667 28 -71c0 -20 -4 -38 -12 -54s-19 -29.833 -33 -41.5s-30.333 -20.5 -49 -26.5s-38.667 -9 -60 -9c-36 0 -67.833 8 -95.5 24s-49.834 36.333 -66.501 61l47 37c13.333 -20 29.5 -35.833 48.5 -47.5
s39.833 -17.5 62.5 -17.5c24 0 44.5 6.66699 61.5 20s25.5 32.666 25.5 57.999c0 25.334 -11.667 44.667 -35 57.999c-23.333 13.333 -56.666 20 -99.999 20v45c38 0 67.333 7.5 88 22.5s31 33.833 31 56.5c0 20.667 -7.33301 37.5 -22 50.5s-33.667 19.5 -57 19.5
c-16.667 0 -32.667 -5.16699 -48 -15.5c-15.333 -10.3389 -29 -23.1719 -41 -38.5zM709.997 747.002l-405 -760h-61l405 760h61zM723.997 167.002v80l6 121h-5l-56 -91l-69 -110h124zM852.997 117.002h-65v-117h-64v117h-198v36l183 283h79v-269h65v-50z" />
    <glyph glyph-name="cid113" unicode="&#xbf;" horiz-adv-x="474" 
d="M240 -219c-28 0 -53.498 4.16699 -76.498 12.5s-42.667 20.166 -59 35.499s-29 34 -38 56s-13.5 46.667 -13.5 74c0 24.667 4.33301 47 13 67s19.5 39.167 32.5 57.5s27 36.166 42 53.499s28.5 35.333 40.5 54s21.333 38.667 28 60s8.66699 45 6 71h81
c4 -29.333 3 -55.666 -3 -78.999s-14.667 -44.833 -26 -64.5s-24.333 -38.167 -39 -55.5s-28.334 -34.333 -41.001 -51s-23.334 -33.667 -32.001 -51s-13 -35.666 -13 -54.999c0 -30.667 9 -56.667 27 -78s45 -32 81 -32c25.333 0 48.833 5.83301 70.5 17.5
s41.167 27.5 58.5 47.5l53 -48c-24 -26.667 -51.833 -48.667 -83.5 -66s-67.834 -26 -108.5 -26zM253.002 417c-18 0 -33.5 6.33301 -46.5 19s-19.5 29.667 -19.5 51c0 20.667 6.5 37.5 19.5 50.5s28.5 19.5 46.5 19.5s33.5 -6.5 46.5 -19.5s19.5 -29.833 19.5 -50.5
c0 -21.333 -6.5 -38.333 -19.5 -51s-28.5 -19 -46.5 -19z" />
    <glyph glyph-name="cid114" unicode="&#xd7;" horiz-adv-x="1000" 
d="M774 54l-274 274l-273 -274l-49 48l274 274l-274 273l49 49l273 -274l274 274l48 -48l-273 -274l273 -274z" />
    <glyph glyph-name="cid115" unicode="&#xf7;" horiz-adv-x="1000" 
d="M428 630c0 20 7 37.168 21 51.501s31 21.5 51 21.5s37 -7.16699 51 -21.5s21 -31.5 21 -51.5c0 -19.3359 -7 -36.1689 -21 -50.5c-14 -14.333 -31 -21.5 -51 -21.5s-37 7.16699 -51 21.5s-21 31.166 -21 50.499zM863 410.001v-69h-726v69h726zM428 121.001
c0 19.333 7 36.166 21 50.499s31 21.5 51 21.5s37 -7.16699 51 -21.5s21 -31.166 21 -50.499c0 -20 -7 -37.167 -21 -51.5s-31 -21.5 -51 -21.5s-37 7.16699 -51 21.5s-21 31.5 -21 51.5z" />
    <glyph glyph-name="cid116" unicode="&#x2c7;" horiz-adv-x="1000" 
d="M764 542l-264 -404l-266 404h95l171 -269l164 269h100z" />
    <glyph glyph-name="cid117" unicode="&#x2d9;" horiz-adv-x="1000" 
d="M499 290c-28 0 -50.502 9.33301 -67.502 28s-25.833 40 -26.5 64c0 12 2.16699 23.833 6.5 35.5s10.5 22 18.5 31s17.833 16.333 29.5 22s24.834 8.5 39.501 8.5s27.667 -2.66699 39 -8s21 -12.5 29 -21.5s14.167 -19.333 18.5 -31s6.5 -23.834 6.5 -36.5
c0 -25.333 -8.16699 -47 -24.5 -65c-16.335 -18 -39.168 -27 -68.499 -27z" />
    <glyph glyph-name="pi" unicode="&#x3c0;" horiz-adv-x="654" 
d="M541 -13c-42 0 -72.1689 11.498 -90.502 34.498s-27.5 56.5 -27.5 100.5c0 14 0.333008 34.333 1 61s1.33398 56.167 2.00098 88.5s1.33398 65.666 2.00098 99.999s1 66.5 1 96.5h-193c0 -76.667 -3.5 -155.667 -10.5 -237s-14.167 -160 -21.5 -236l-92 5
c12 76.667 21.333 155.334 28 236.001s10 158 10 232h-125v70l78 5h524v-75h-110c-2 -31.333 -3.5 -64.666 -4.5 -99.999s-1.66699 -69.5 -2 -102.5s-0.666016 -62.833 -0.999023 -89.5s-0.5 -46.667 -0.5 -60c0 -19.333 4.16699 -33 12.5 -41s21.166 -12 38.499 -12
c5.33301 0 11.333 0.5 18 1.5c6.6709 1 15.3379 2.16699 26 3.5l12 -69c-9.33594 -3.33301 -20.1689 -6.16602 -32.5 -8.49902c-12.333 -2.33301 -26.5 -3.5 -42.5 -3.5z" />
    <glyph glyph-name="cid118" unicode="&#x2018;" horiz-adv-x="278" 
d="M208 735c-28 -18.667 -48.999 -38.5 -62.999 -59.5s-21.333 -47.5 -22 -79.5c2 0.666992 5.33301 1 9.99902 1c15.333 0 29 -4.83301 41 -14.5s18 -23.5 18 -41.5c0 -19.333 -5.5 -34.333 -16.5 -45s-25.167 -16 -42.5 -16c-22 0 -39.167 8.66699 -51.5 26
s-18.5 42 -18.5 74c0 44.667 10.167 83.167 30.5 115.5s49.833 59.833 88.5 82.5z" />
    <glyph glyph-name="cid119" unicode="&#x2019;" horiz-adv-x="278" 
d="M70 525c28 19.333 48.833 39.333 62.5 60s20.834 47 21.5 79c-2 -0.666992 -5.33301 -1 -10 -1c-15.333 0 -28.833 4.83301 -40.5 14.5c-11.667 9.66895 -17.5 23.8359 -17.5 42.5c0 19.333 5.33301 34.333 16 45s24.667 16 42 16c22 0 39.333 -8.83301 52 -26.5
s19 -42.5 19 -74.5c0 -44.667 -10.167 -83.167 -30.5 -115.5s-49.833 -59.833 -88.5 -82.5z" />
    <glyph glyph-name="cid120" unicode="&#x201c;" horiz-adv-x="475" 
d="M208 735c-28 -18.667 -48.999 -38.5 -62.999 -59.5s-21.333 -47.5 -22 -79.5c2 0.666992 5.33301 1 9.99902 1c15.333 0 29 -4.83301 41 -14.5s18 -23.5 18 -41.5c0 -19.333 -5.5 -34.333 -16.5 -45s-25.167 -16 -42.5 -16c-22 0 -39.167 8.66699 -51.5 26
s-18.5 42 -18.5 74c0 44.667 10.167 83.167 30.5 115.5s49.833 59.833 88.5 82.5zM404.001 735c-27.333 -18.667 -48.001 -38.5 -62.001 -59.5s-21.333 -47.5 -22 -79.5c2 0.666992 5 1 9 1c15.334 0 29.167 -4.83301 41.5 -14.5s18.5 -23.5 18.5 -41.5
c0 -19.333 -5.66699 -34.333 -17 -45s-25.666 -16 -42.999 -16c-22 0 -39 8.66699 -51 26s-18 42 -18 74c0 44.667 10.167 83.167 30.5 115.5s49.5 59.833 87.5 82.5z" />
    <glyph glyph-name="cid121" unicode="&#x201d;" horiz-adv-x="475" 
d="M70 525c28 19.333 48.833 39.333 62.5 60s20.834 47 21.5 79c-2 -0.666992 -5.33301 -1 -10 -1c-15.333 0 -28.833 4.83301 -40.5 14.5c-11.667 9.66895 -17.5 23.8359 -17.5 42.5c0 19.333 5.33301 34.333 16 45s24.667 16 42 16c22 0 39.333 -8.83301 52 -26.5
s19 -42.5 19 -74.5c0 -44.667 -10.167 -83.167 -30.5 -115.5s-49.833 -59.833 -88.5 -82.5zM266 525c28 19.333 49 39.333 63 60s21.333 47 22 79c-2 -0.666992 -5.33301 -1 -10 -1c-15.333 0 -29 4.83301 -41 14.5c-12 9.66895 -18 23.8359 -18 42.5
c0 19.333 5.5 34.333 16.5 45s25.167 16 42.5 16c22 0 39.167 -8.83301 51.5 -26.5s18.5 -42.5 18.5 -74.5c0 -44.667 -10.167 -83.167 -30.5 -115.5s-49.833 -59.833 -88.5 -82.5z" />
    <glyph glyph-name="cid122" unicode="&#x2020;" horiz-adv-x="1000" 
d="M536 522l203 5v-76l-203 6l7 -513h-86l7 513l-203 -6v76l203 -5l-7 242h86z" />
    <glyph glyph-name="cid123" unicode="&#x2021;" horiz-adv-x="1000" 
d="M536 534l203 6v-76l-203 6v-232l203 6v-77l-203 6l7 -229h-86l7 229l-203 -6v77l203 -6v232l-203 -6v76l203 -6l-7 230h86z" />
    <glyph glyph-name="bullet" unicode="&#x2022;" horiz-adv-x="339" 
d="M170 160c-16.667 0 -32.5 3.16699 -47.5 9.5s-28.333 15.5 -40 27.5s-20.834 26.167 -27.501 42.5s-10 34.5 -10 54.5s3.33301 38.333 10 55s15.834 31 27.501 43s25 21.167 40 27.5s30.833 9.5 47.5 9.5s32.5 -3.16699 47.5 -9.5s28.167 -15.5 39.5 -27.5
s20.5 -26.333 27.5 -43s10.5 -35 10.5 -55s-3.5 -38.167 -10.5 -54.5s-16.167 -30.5 -27.5 -42.5s-24.5 -21.167 -39.5 -27.5s-30.833 -9.5 -47.5 -9.5z" />
    <glyph glyph-name="cid124" unicode="&#x2025;" horiz-adv-x="1000" 
d="M184 380c0 18.667 6.33301 34.332 19 46.999s28.334 19 47 19c18.667 0 34.334 -6.33301 47.001 -19s19 -28.334 19 -47c0 -18.667 -6.33301 -34.334 -19 -47c-12.667 -12.667 -28.334 -19 -47 -19c-18.667 0 -34.334 6.33301 -47.001 19s-19 28.334 -19 47.001z
M684 379.998c0 18.667 6.33301 34.332 19 46.999c12.6699 12.667 28.3369 19 47.001 19c18.6699 0 34.3369 -6.33301 47.001 -19c12.667 -12.667 19 -28.334 19 -47c0 -18.667 -6.33301 -34.334 -19 -47c-12.667 -12.667 -28.334 -19 -47.001 -19
s-34.334 6.33301 -47.001 19s-19 28.334 -19 47.001z" />
    <glyph glyph-name="cid125" unicode="&#x2026;" horiz-adv-x="1000" 
d="M101 380c0 18.667 6.33398 34.332 19.001 46.999s28.334 19 47.001 19s34.334 -6.33301 47 -19c12.667 -12.667 19 -28.334 19 -47c0 -18.667 -6.33301 -34.334 -19 -47c-12.667 -12.667 -28.334 -19 -47.001 -19s-34.334 6.33301 -47.001 19s-19 28.334 -19 47.001z
M434.001 379.998c0 18.667 6.33301 34.332 19 46.999s28.334 19 47.001 19c18.6689 0 34.3359 -6.33301 47.001 -19c12.667 -12.667 19 -28.334 19 -47c0 -18.667 -6.33301 -34.334 -19 -47c-12.667 -12.667 -28.334 -19 -47.001 -19c-18.668 0 -34.335 6.33301 -47.001 19
c-12.667 12.667 -19 28.334 -19 47.001zM767.001 379.996c0 18.667 6.33496 34.332 19.002 46.999c12.6699 12.667 28.3369 19 47 19c18.6699 0 34.3369 -6.33301 47 -19c12.667 -12.667 19 -28.334 19 -47c0 -18.667 -6.33301 -34.334 -19 -47
c-12.667 -12.667 -28.334 -19 -47.001 -19s-34.334 6.33301 -47.001 19s-19 28.334 -19 47.001z" />
    <glyph glyph-name="cid126" unicode="&#x2030;" horiz-adv-x="1000" 
d="M511 750h51l-385 -766h-52zM34 522c0 35.333 3.33203 67 9.99902 95s16 51.5 28 70.5s26 33.333 42 43s33 14.5 51 14.5c19.333 0 36.833 -5.33301 52.5 -16s29 -25.834 40 -45.501s19.5 -43.167 25.5 -70.5c6 -27.334 9 -57.667 9 -90.999
c0 -38.667 -3.66699 -71.834 -11 -99.5c-7.33301 -27.667 -17 -50.5 -29 -68.5s-25.667 -31.333 -41 -40s-31 -13 -47 -13c-19.333 0 -37 5.16699 -53 15.5c-16 10.334 -29.667 25.167 -41 44.5c-11.333 19.334 -20.166 42.667 -26.499 70
c-6.33301 27.334 -9.5 57.667 -9.5 91zM233.999 522c0 18.667 -0.999023 38.1689 -2.99902 58.502s-5.5 39.166 -10.5 56.499s-12.333 31.5 -22 42.5s-21.834 16.5 -36.501 16.5c-14 0 -25.5 -5.5 -34.5 -16.5s-16 -25 -21 -42s-8.5 -35.667 -10.5 -56s-3 -39.833 -3 -58.5
c0 -20 1 -40.167 3 -60.5s5.5 -38.833 10.5 -55.5s12 -30.334 21 -41.001s20.833 -16 35.5 -16s26.667 5.5 36 16.5s16.5 24.833 21.5 41.5s8.5 35.167 10.5 55.5s3 39.833 3 58.5zM396 212.002c0 35.333 3.33203 67.002 9.99902 95.002s16 51.5 28 70.5s26 33.5 42 43.5
s33 15 51 15c19.333 0 36.833 -5.33301 52.5 -16s29 -25.834 40 -45.5c11 -19.667 19.5 -43.167 25.5 -70.5s9 -57.666 9 -90.999c0 -38.667 -3.66699 -72 -11 -100s-17 -51 -29 -69s-25.667 -31.333 -41 -40s-31 -13 -47 -13c-19.333 0 -37 5.16699 -53 15.5
s-29.667 25.166 -41 44.499s-20.166 42.666 -26.499 69.999s-9.5 57.666 -9.5 90.999zM707.999 212.004c0 35.333 3.33301 67.002 10 95.002c6.67188 28 15.8389 51.5 27.5 70.5c11.667 19 25.5 33.5 41.5 43.5s33 15 51 15c19.333 0 37 -5.33301 53 -16
s29.5 -25.834 40.5 -45.5c11 -19.667 19.5 -43.167 25.5 -70.5s9 -57.666 9 -90.999c0 -38.667 -3.66699 -72 -11 -100s-17 -51 -29 -69s-25.667 -31.333 -41 -40s-31.333 -13 -48 -13c-19.333 0 -36.833 5.16699 -52.5 15.5s-29.167 25.166 -40.5 44.499
c-11.3359 19.333 -20.1689 42.666 -26.5 69.999c-6.33301 27.333 -9.5 57.666 -9.5 90.999zM595.999 212.006c0 18.667 -0.999023 38.335 -2.99902 59.002s-5.5 39.667 -10.5 57s-12.333 31.5 -22 42.5s-21.834 16.5 -36.501 16.5c-14 0 -25.5 -5.5 -34.5 -16.5
s-16 -25 -21 -42s-8.5 -35.833 -10.5 -56.5s-3 -40.334 -3 -59.001c0 -20 1 -40.167 3 -60.5s5.5 -38.833 10.5 -55.5s12 -30.334 21 -41.001s20.833 -16 35.5 -16s26.667 5.5 36 16.5s16.5 25 21.5 42s8.5 35.5 10.5 55.5s3 39.333 3 58zM907 212.007
c0 18 -0.833984 37.334 -2.50098 58.001s-5.16699 39.667 -10.5 57c-5.33984 17.334 -12.6729 31.667 -21.999 43c-9.33301 11.333 -21.333 17 -36 17c-14 0 -25.5 -5.5 -34.5 -16.5s-16.167 -25 -21.5 -42s-9 -35.833 -11 -56.5s-3 -40.334 -3 -59.001
c0 -19.334 0.833008 -39.167 2.5 -59.5s5.16699 -39 10.5 -56s12.5 -30.833 21.5 -41.5s21.167 -16 36.5 -16c14.667 0 26.667 5.5 36 16.5s16.5 25 21.5 42s8.33301 35.5 10 55.5s2.5 39.333 2.5 58z" />
    <glyph glyph-name="cid127" unicode="&#x2032;" horiz-adv-x="278" 
d="M116 771l89 -1l-15 -101l-39 -166l-60 1z" />
    <glyph glyph-name="cid128" unicode="&#x2033;" horiz-adv-x="475" 
d="M116 771l89 -1l-15 -101l-39 -166l-60 1zM312 771l90 -1l-16 -101l-38 -166l-60 1z" />
    <glyph glyph-name="guilsinglleft" unicode="&#x2039;" horiz-adv-x="302" 
d="M50 248v68l153 174l39 -34l-132 -174l132 -177l-39 -31z" />
    <glyph glyph-name="guilsinglright" unicode="&#x203a;" horiz-adv-x="302" 
d="M60 105l132 177l-132 174l39 34l153 -174v-68l-153 -174z" />
    <glyph glyph-name="cid129" unicode="&#x203b;" horiz-adv-x="925" 
d="M186 305c-18.667 0 -35.167 7.16699 -49.5 21.5s-21.5 30.833 -21.5 49.5c0 20.667 6.66699 37.5 20 50.5s30.333 19.5 51 19.5c18.667 0 35.667 -6.5 51 -19.5s23 -29.833 23 -50.5c0 -18.667 -7.16699 -35.167 -21.5 -49.5s-31.833 -21.5 -52.5 -21.5zM807 86
l-52 -55.999l-294 297c-46.667 -48 -95 -97.333 -145 -148s-98.333 -100.334 -145 -149.001l-52 52l294 294c-46.667 46.667 -95.334 95 -146 145c-50.667 50 -100 98.333 -148 145l52 56l294 -298l294 298l48 -52l-294 -294zM454 577.001c-19.333 0 -36 7 -50 21
s-21 30.333 -21 49c0 20.667 7 37.667 21 51s30.667 20 50 20c20 0 37.333 -6.66699 52 -20s22 -30.333 22 -51c0 -18.667 -7.33301 -35 -22 -49s-32 -21 -52 -21zM457 22.001c-18.667 0 -35 7.16699 -49 21.5s-21 30.833 -21 49.5c0 20.667 6.5 37.667 19.5 51
s29.833 20 50.5 20c18.667 0 35.167 -6.66699 49.5 -20s21.5 -30.333 21.5 -51c0 -18.667 -6.66699 -35.167 -20 -49.5s-30.333 -21.5 -51 -21.5zM747 305.001c-18.667 0 -35.667 6.5 -51 19.5s-23 28.833 -23 47.5c0 22.667 7.16699 40.667 21.5 54s30.833 20 49.5 20
c20.667 0 38.167 -6.66699 52.5 -20s21.5 -31.333 21.5 -54c0 -18.667 -7 -34.5 -21 -47.5s-30.667 -19.5 -50 -19.5z" />
    <glyph glyph-name="cid130" unicode="&#x20a9;" horiz-adv-x="900" 
d="M854 339h-118l-73 -339h-88l-77 339h-102l-75 -339h-82l-79 339h-122v54h113l-77 324h84l66 -324h118l60 281h92l63 -281h123l62 324h77l-70 -324h105v-54zM331 339h-98l22 -113l27 -141l27 141zM489 393l-39 212l-43 -212h82zM669 339h-101l24 -113l25 -141l31 141z" />
    <glyph glyph-name="Euro" unicode="&#x20ac;" horiz-adv-x="555" 
d="M548 91c-24.667 -33.333 -52.502 -58.998 -83.502 -76.998s-67.167 -27 -108.5 -27c-67.333 0 -124 24 -170 72s-75.333 115.667 -88 203h-73v49l67 5c-0.666992 6.66699 -1 13.167 -1 19.5v20.5v18c0 6 0.333008 11.667 1 17h-67v49l72 5
c6 44 16.833 83.333 32.5 117.999c15.667 34.667 35.334 64.167 59.001 88.5s50.834 42.833 81.501 55.5s64.334 19 101.001 19c34 0 65.5 -8.33301 94.5 -25s53.167 -37.334 72.5 -62.001l-54 -52c-15.333 20 -32.5 36 -51.5 48s-40.167 18 -63.5 18
c-50 0 -90 -18.333 -120 -55s-49.667 -87.667 -59 -153h285v-54h-290c-0.666992 -5.33301 -1 -10.833 -1 -16.5v-16.5v-21c0 -6.66797 0.333008 -13.335 1 -20h246v-55h-240c9.33301 -63.333 28.666 -112.833 57.999 -148.5s67 -53.5 113 -53.5
c27.333 0 51.5 6.66699 72.5 20s41.167 33 60.5 59z" />
    <glyph glyph-name="cid131" unicode="&#x2103;" horiz-adv-x="1000" 
d="M188 477c-19.333 0 -37.501 3.33301 -54.501 10s-31.833 16.334 -44.5 29.001c-12.667 12.6689 -22.834 27.8359 -30.501 45.501c-7.66699 17.667 -11.5 37.167 -11.5 58.5c0 22 3.83301 41.833 11.5 59.5s17.834 32.667 30.501 45s27.5 21.833 44.5 28.5
s35.167 10 54.5 10c18.667 0 36.5 -3.33301 53.5 -10s31.833 -16.167 44.5 -28.5s22.834 -27.333 30.501 -45s11.5 -37.5 11.5 -59.5c0 -21.333 -3.83301 -40.833 -11.5 -58.5s-17.834 -32.834 -30.5 -45.501c-12.667 -12.6689 -27.5 -22.3359 -44.5 -29.001
c-17 -6.66699 -34.833 -10 -53.5 -10zM187.999 529c24.667 0 44.834 8.5 60.501 25.5s23.5 38.833 23.5 65.5c0 27.333 -7.83301 49.333 -23.5 66s-35.834 25 -60.501 25c-25.333 0 -45.666 -8.33301 -60.999 -25s-23 -38.667 -23 -66c0 -26.667 7.66699 -48.5 23 -65.5
s35.666 -25.5 60.999 -25.5zM734.999 -13c-46 0 -88.666 8.5 -127.999 25.5s-73.333 41.667 -102 74s-51.167 72 -67.5 119s-24.5 100.167 -24.5 159.5s8.16699 112.5 24.5 159.5c16.334 47 39.167 86.833 68.5 119.5s63.833 57.667 103.5 75s83.167 26 130.5 26
c22 0 42.667 -2.5 62 -7.5s37.5 -11.667 54.5 -20s32.667 -18 47 -29s26.833 -22.167 37.5 -33.5l-54 -60c-19.333 20.6689 -40.833 36.8359 -64.5 48.5c-23.667 11.667 -50.834 17.5 -81.501 17.5c-34.667 0 -66 -6.83301 -94 -20.5s-52 -33.167 -72 -58.5
c-20 -25.334 -35.5 -56.167 -46.5 -92.499c-11 -36.333 -16.5 -77.166 -16.5 -122.499s5.16699 -86.333 15.5 -123s25.333 -67.834 45 -93.501c19.6689 -25.667 43.3359 -45.334 71 -59.001c27.668 -13.667 58.835 -20.5 93.5 -20.5c35.333 0 66 6.83301 92 20.5
s50.667 33.5 74 59.5l55 -59c-29.335 -34 -62.168 -60 -98.5 -78c-36.333 -18 -77.833 -27 -124.5 -27z" />
    <glyph glyph-name="cid132" unicode="&#x2109;" horiz-adv-x="1000" 
d="M224 477c-19.333 0 -37.501 3.33301 -54.501 10s-31.833 16.334 -44.5 29.001c-12.667 12.6689 -22.834 27.8359 -30.501 45.501c-7.66699 17.667 -11.5 37.167 -11.5 58.5c0 22 3.83301 41.833 11.5 59.5s17.834 32.667 30.501 45s27.5 21.833 44.5 28.5
s35.167 10 54.5 10c18.667 0 36.5 -3.33301 53.5 -10s31.833 -16.167 44.5 -28.5s22.834 -27.333 30.501 -45s11.5 -37.5 11.5 -59.5c0 -21.333 -3.83301 -40.833 -11.5 -58.5c-7.66797 -17.667 -17.835 -32.834 -30.5 -45.501
c-12.667 -12.6689 -27.5 -22.3359 -44.5 -29.001c-17 -6.66699 -34.833 -10 -53.5 -10zM223.999 529c24.667 0 44.835 8.5 60.502 25.5s23.5 38.833 23.5 65.5c0 27.333 -7.83301 49.333 -23.5 66s-35.834 25 -60.501 25c-25.334 0 -45.667 -8.33301 -61 -25
s-23 -38.667 -23 -66c0 -26.667 7.66699 -48.5 23 -65.5s35.666 -25.5 60.999 -25.5zM508 732h424v-81h-329v-244h279v-81h-279v-326h-95v732z" />
    <glyph glyph-name="cid133" unicode="&#x2116;" horiz-adv-x="997" 
d="M102 -13c-6.66699 0 -11.666 0.167969 -14.999 0.500977s-7.66602 1.16602 -12.999 2.49902l-8 73c13.333 0 23 3.16699 29 9.5s9 18.5 9 36.5v604h102c34 -76.667 67.667 -153.167 101 -229.5s66 -152.833 98 -229.5l63 -146h4c-2.66699 35.333 -4.66699 67.5 -6 96.5
s-2.5 56.333 -3.5 82s-1.66699 50.667 -2 75s-0.5 49.833 -0.5 76.5v179c0 36.667 6.66699 64 20 82s35 27 65 27c7.33301 0 12.666 -0.333008 15.999 -1s7.66602 -1.66699 12.999 -3l7 -72c-13.333 0 -23 -3.16699 -29 -9.5s-9 -18.5 -9 -36.5v-604h-102
c-34 76.667 -67.5 153 -100.5 229s-65.5 153 -97.5 231l-64 145h-4c2.66699 -35.333 4.66699 -67.5 6 -96.5s2.5 -56.333 3.5 -82s1.66699 -50.667 2 -75s0.5 -49.833 0.5 -76.5v-179c0 -36.667 -6.66699 -64 -20 -82s-35 -27 -65 -27zM810.001 309.001
c-23.333 0 -45.332 4 -65.999 12s-38.834 19.667 -54.501 35s-28 34 -37 56s-13.5 47.333 -13.5 76c0 28.668 4.5 54.335 13.5 77.001c9 22.667 21.333 41.5 37 56.5c15.6689 15 33.8359 26.5 54.5 34.5c20.667 8 42.667 12 66 12s45.5 -4 66.5 -12s39.333 -19.5 55 -34.5
s28 -33.833 37 -56.5s13.5 -48.334 13.5 -77.001s-4.5 -54 -13.5 -76s-21.333 -40.667 -37 -56s-34 -27 -55 -35s-43.167 -12 -66.5 -12zM810.002 369.001c30 0 53.667 10.5 71 31.5s26 50.167 26 87.5c0 38 -8.66699 67.5 -26 88.5s-41 31.5 -71 31.5
c-29.333 0 -52.833 -10.5 -70.5 -31.5s-26.5 -50.5 -26.5 -88.5c0 -37.333 8.83301 -66.5 26.5 -87.5s41.167 -31.5 70.5 -31.5zM669.002 223.001h282v-55h-282v55z" />
    <glyph glyph-name="cid134" unicode="&#x2121;" horiz-adv-x="1000" 
d="M149 660h-123v72h325v-72h-123v-660h-79v660zM400 578h250v-67h-172v-178h131v-63h-131v-203h183v-67h-261v578zM727 578h79v-508h164v-70h-243v578z" />
    <glyph glyph-name="cid135" unicode="&#x2122;" horiz-adv-x="711" 
d="M115 695h-112v61h289v-61h-112v-286h-65v286zM347 756h81l52 -130l32 -88h4l31 88l51 130h82v-347h-62v154l7 117h-4l-82 -218h-52l-81 218h-5l8 -117v-154h-62v347z" />
    <glyph glyph-name="cid136" unicode="&#x212b;" horiz-adv-x="1000" 
d="M607 297l-34 110c-13.333 41.334 -25.833 82.167 -37.5 122.5s-23.5 81.833 -35.5 124.5h-5c-22 -84 -45.667 -166.333 -71 -247l-35 -110h218zM498 909c-23.333 0 -43 -7.83301 -59 -23.5s-24 -36.5 -24 -62.5c0 -28 8 -49.5 24 -64.5s35.667 -22.5 59 -22.5
c22 0 41 7.5 57 22.5s24 36.5 24 64.5c0 26 -8 46.833 -24 62.5s-35 23.5 -57 23.5zM631 221h-265l-70 -221h-97l237 706c-24.667 10 -44.334 25.5 -59 46.5c-14.667 21 -22 46.167 -22 75.5c0 40 13.333 71.833 40 95.5s61 35.5 103 35.5c20 0 38.667 -3.16699 56 -9.5
c17.333 -6.34082 32.5 -15.1738 45.5 -26.5c13 -11.333 23.167 -25 30.5 -41s11 -34 11 -54c0 -28.667 -7.33301 -53.5 -22 -74.5s-34 -36.5 -58 -46.5l240 -707h-101z" />
    <glyph glyph-name="cid137" unicode="&#x2160;" horiz-adv-x="1000" 
d="M452 732h96v-732h-96v732z" />
    <glyph glyph-name="cid138" unicode="&#x2161;" horiz-adv-x="1000" 
d="M305 732h96v-732h-96v732zM600 732h95v-732h-95v732z" />
    <glyph glyph-name="cid139" unicode="&#x2162;" horiz-adv-x="1000" 
d="M157 732h96v-732h-96v732zM452 732h96v-732h-96v732zM747 732h96v-732h-96v732z" />
    <glyph glyph-name="cid140" unicode="&#x2163;" horiz-adv-x="1000" 
d="M164 732h96v-732h-96v732zM359 732h100.999l118 -394c6 -21.333 11.833 -42 17.5 -62s11.167 -39.667 16.5 -59s10.833 -38.833 16.5 -58.5c5.67676 -19.667 11.8438 -40.167 18.501 -61.5h5c6.67676 21.333 12.8438 41.833 18.5 61.5
c5.67676 19.667 11.3438 39.167 17 58.5c5.66699 19.333 11.167 39 16.5 59s11.333 40.667 18 62l116 394h97l-232 -732h-111z" />
    <glyph glyph-name="cid141" unicode="&#x2164;" horiz-adv-x="1000" 
d="M213 732l99.999 -0.000976562l118 -394c12 -43.333 23.167 -83.666 33.5 -120.999c10.334 -37.333 22.167 -77.333 35.5 -120h5c6.66699 21.333 12.834 41.833 18.501 61.5c5.6709 19.667 11.3379 39.167 17 58.5c5.66699 19.333 11.167 39 16.5 59s11.333 40.667 18 62
l116 394h97l-232 -732h-111z" />
    <glyph glyph-name="cid142" unicode="&#x2165;" horiz-adv-x="1000" 
d="M65 732l99.999 -0.000976562l118 -394c12.667 -43.333 24 -83.666 34 -120.999s21.667 -77.333 35 -120h5c6.66699 21.333 13 41.833 19 61.5s11.667 39.167 17 58.5s10.833 39 16.5 59s11.834 40.667 18.501 62l116 394h96l-231 -732h-111zM738.999 731.999h96v-732h-96
v732z" />
    <glyph glyph-name="cid143" unicode="&#x2166;" horiz-adv-x="1000" 
d="M8 732l101 0.000976562l91 -394c5.33301 -22 10.333 -42.833 15 -62.5s9.16699 -39.167 13.5 -58.5s9.16602 -38.833 14.499 -58.5s11 -40.167 17 -61.5h4c12.667 42.667 23.334 82.667 32.001 120s18 77.666 28 120.999l92 394h97l-194 -732h-117zM593 732.001h96v-732
h-96v732zM826 732.001h96v-732h-96v732z" />
    <glyph glyph-name="cid144" unicode="&#x2167;" horiz-adv-x="1000" 
d="M4 732h88.002l64 -394c7.33301 -43.333 14.166 -83.666 20.499 -120.999s13.166 -77.333 20.499 -120h4c8 42.667 15.167 82.667 21.5 120s12.833 77.666 19.5 120.999l62 394h84l-137 -732h-104zM472.002 732h83v-732h-83v732zM659.002 732h83v-732h-83v732z
M845.002 732h83v-732h-83v732z" />
    <glyph glyph-name="cid145" unicode="&#x2168;" horiz-adv-x="1000" 
d="M165 732h96v-732h-96v732zM589 378l-199 354h106l98 -186c9.33301 -17.333 18.333 -34 27 -50s19 -34.667 31 -56h4c9.33301 21.333 18 40 26 56l25 50l96 186h101l-200 -359l213 -373h-105l-106 196c-10 18 -20 36.5 -30 55.5s-20.667 39.5 -32 61.5h-4
c-11.335 -22 -21.668 -42.5 -31 -61.5c-9.33789 -19 -18.6709 -37.5 -28 -55.5l-104 -196h-100z" />
    <glyph glyph-name="cid146" unicode="&#x2169;" horiz-adv-x="1000" 
d="M441 378l-199.002 354h106l99 -186c9.33496 -17.333 18.168 -34 26.5 -50c8.33301 -16 18.5 -34.667 30.5 -56h4c10 21.333 18.833 40 26.5 56c7.6709 16 15.8379 32.667 24.5 50l97 186h100l-200 -359l214 -373h-106l-106 196c-9.33398 18 -19.167 36.5 -29.5 55.5
s-21.166 39.5 -32.499 61.5h-4c-10.667 -22 -20.667 -42.5 -30 -61.5s-18.666 -37.5 -27.999 -55.5l-105 -196h-100z" />
    <glyph glyph-name="cid147" unicode="&#x2170;" horiz-adv-x="1000" 
d="M452 542h95v-542h-95v542zM501 653c-18.667 0 -34.167 5.66797 -46.5 17.001s-18.5 25.666 -18.5 42.999c0 18 6.16699 32.5 18.5 43.5s27.833 16.5 46.5 16.5c17.333 0 32.333 -5.5 45 -16.5s19 -25.5 19 -43.5c0 -17.335 -6.33301 -31.668 -19 -43
c-12.667 -11.333 -27.667 -17 -45 -17z" />
    <glyph glyph-name="cid148" unicode="&#x2171;" horiz-adv-x="1000" 
d="M315 542h94v-542h-94v542zM363 653c-18.667 0 -34.167 5.66797 -46.5 17.001s-18.5 25.666 -18.5 42.999c0 18 6.16699 32.5 18.5 43.5s27.833 16.5 46.5 16.5c18 0 33.167 -5.5 45.5 -16.5s18.5 -25.5 18.5 -43.5c0 -17.335 -6.16699 -31.668 -18.5 -43
c-12.333 -11.333 -27.5 -17 -45.5 -17zM591 542.001h94v-542h-94v542zM639 653.001c-18.667 0 -34.167 5.66797 -46.5 17.001s-18.5 25.666 -18.5 42.999c0 18 6.16699 32.5 18.5 43.5s27.833 16.5 46.5 16.5c18 0 33.167 -5.5 45.5 -16.5s18.5 -25.5 18.5 -43.5
c0 -17.335 -6.16699 -31.668 -18.5 -43c-12.333 -11.333 -27.5 -17 -45.5 -17z" />
    <glyph glyph-name="cid149" unicode="&#x2172;" horiz-adv-x="1000" 
d="M177 542h95v-542h-95v542zM225 653c-18 0 -33.333 5.66797 -46 17.001s-19 25.666 -19 42.999c0 18 6.33301 32.5 19 43.5s28 16.5 46 16.5s33.167 -5.5 45.5 -16.5s18.5 -25.5 18.5 -43.5c0 -17.335 -6.16699 -31.668 -18.5 -43c-12.333 -11.333 -27.5 -17 -45.5 -17z
M452 542.001h95v-542h-95v542zM501 653.001c-18.667 0 -34.167 5.66797 -46.5 17.001s-18.5 25.666 -18.5 42.999c0 18 6.16699 32.5 18.5 43.5s27.833 16.5 46.5 16.5c17.333 0 32.333 -5.5 45 -16.5s19 -25.5 19 -43.5c0 -17.335 -6.33301 -31.668 -19 -43
c-12.667 -11.333 -27.667 -17 -45 -17zM728 542.002h95v-542h-95v542zM776 653.002c-18.667 0 -34.167 5.66797 -46.5 17.001s-18.5 25.666 -18.5 42.999c0 18 6.16699 32.5 18.5 43.5s27.833 16.5 46.5 16.5c18 0 33.167 -5.5 45.5 -16.5s18.5 -25.5 18.5 -43.5
c0 -17.335 -6.16699 -31.668 -18.5 -43c-12.333 -11.333 -27.5 -17 -45.5 -17z" />
    <glyph glyph-name="cid150" unicode="&#x2173;" horiz-adv-x="1000" 
d="M191 542h95v-542h-95v542zM240 653c-18.667 0 -34.167 5.66797 -46.5 17.001s-18.5 25.666 -18.5 42.999c0 18 6.16699 32.5 18.5 43.5s27.833 16.5 46.5 16.5c18 0 33 -5.5 45 -16.5s18 -25.5 18 -43.5c0 -17.335 -6 -31.668 -18 -43c-12 -11.333 -27 -17 -45 -17z
M390 542.001h97l101 -306c8 -26.667 16.333 -53.667 25 -81s17 -53.666 25 -78.999h4c8 25.333 16.333 51.666 25 78.999s16.667 54.333 24 81l102 306h93l-191 -542h-110z" />
    <glyph glyph-name="cid151" unicode="&#x2174;" horiz-adv-x="1000" 
d="M252 542h97l101 -306c8.66699 -26.667 17.167 -53.667 25.5 -81s16.833 -53.666 25.5 -78.999h4c8 25.333 16.333 51.666 25 78.999s16.667 54.333 24 81l102 306h92l-191 -542h-110z" />
    <glyph glyph-name="cid152" unicode="&#x2175;" horiz-adv-x="1000" 
d="M114 542h96.999l102 -306c7.33301 -26.667 15.333 -53.667 24 -81s17 -53.666 25 -78.999h4c8.66699 25.333 17.334 51.666 26.001 78.999s16.667 54.333 24 81l102 306h92l-191 -542h-109zM713.999 542h94v-542h-94v542zM761.999 653
c-18.667 0 -34.167 5.66797 -46.5 17.001s-18.5 25.666 -18.5 42.999c0 18 6.16699 32.5 18.5 43.5s27.833 16.5 46.5 16.5c18 0 33 -5.5 45 -16.5s18 -25.5 18 -43.5c0 -17.335 -6 -31.668 -18 -43c-12 -11.333 -27 -17 -45 -17z" />
    <glyph glyph-name="cid153" unicode="&#x2176;" horiz-adv-x="1000" 
d="M13 542h97l93 -306c7.33301 -26.667 14.833 -53.667 22.5 -81s15.834 -53.666 24.5 -78.999h4c8 25.333 15.833 51.666 23.5 78.999s15.167 54.333 22.5 81l93 306h92l-179 -542h-110zM570 542h95v-542h-95v542zM618 653c-18.667 0 -34.167 5.66797 -46.5 17.001
s-18.5 25.666 -18.5 42.999c0 18 6.16699 32.5 18.5 43.5s27.833 16.5 46.5 16.5c18 0 33.167 -5.5 45.5 -16.5s18.5 -25.5 18.5 -43.5c0 -17.335 -6.16699 -31.668 -18.5 -43c-12.333 -11.333 -27.5 -17 -45.5 -17zM821 542.001h94v-542h-94v542zM869 653.001
c-18.667 0 -34.167 5.66797 -46.5 17.001s-18.5 25.666 -18.5 42.999c0 18 6.16699 32.5 18.5 43.5s27.833 16.5 46.5 16.5c18 0 33.167 -5.5 45.5 -16.5s18.5 -25.5 18.5 -43.5c0 -17.335 -6.16699 -31.668 -18.5 -43c-12.333 -11.333 -27.5 -17 -45.5 -17z" />
    <glyph glyph-name="cid154" unicode="&#x2177;" horiz-adv-x="1000" 
d="M6 542h91.001l60 -306c6.66699 -26.667 12.334 -53.667 17 -81c4.66699 -27.333 10.334 -53.666 17 -78.999h4c6 25.333 11.667 51.666 17 78.999s10.666 54.333 15.999 81l60 306h86l-130 -542h-103zM461.001 542h82v-542h-82v542zM503.001 653
c-17.333 0 -31.5 5.66797 -42.5 17.001s-16.5 25.666 -16.5 42.999c0 18 5.5 32.5 16.5 43.5s25.167 16.5 42.5 16.5c16 0 29.5 -5.5 40.5 -16.5s16.5 -25.5 16.5 -43.5c0 -17.335 -5.5 -31.668 -16.5 -43c-11 -11.333 -24.5 -17 -40.5 -17zM658.001 542.001h82v-542h-82
v542zM700.001 653.001c-16.667 0 -30.667 5.66797 -42 17.001s-17 25.666 -17 42.999c0 18 5.66699 32.5 17 43.5s25.333 16.5 42 16.5c16 0 29.667 -5.5 41 -16.5s17 -25.5 17 -43.5c0 -17.335 -5.66699 -31.668 -17 -43c-11.333 -11.333 -25 -17 -41 -17zM855.001 542.002
h83v-542h-83v542zM898.001 653.002c-16.667 0 -30.667 5.66797 -42 17.001s-17 25.666 -17 42.999c0 18 5.66699 32.5 17 43.5s25.333 16.5 42 16.5c16 0 29.5 -5.5 40.5 -16.5s16.5 -25.5 16.5 -43.5c0 -17.335 -5.5 -31.668 -16.5 -43c-11 -11.333 -24.5 -17 -40.5 -17z
" />
    <glyph glyph-name="cid155" unicode="&#x2178;" horiz-adv-x="1000" 
d="M203 542h94v-542h-94v542zM251 653c-18.667 0 -34.167 5.66797 -46.5 17.001s-18.5 25.666 -18.5 42.999c0 18 6.16699 32.5 18.5 43.5s27.833 16.5 46.5 16.5c17.334 0 32.167 -5.5 44.499 -16.5c12.333 -11 18.5 -25.5 18.5 -43.5
c0 -17.335 -6.16699 -31.668 -18.5 -43c-12.333 -11.333 -27.166 -17 -44.499 -17zM581 283.001l-165.001 259h102l72 -118c8 -14.667 16.5 -29.5 25.5 -44.5s18.167 -30.167 27.5 -45.5h4c8.67188 15.333 16.8389 30.5 24.501 45.5c7.66699 15 15.5 29.833 23.5 44.5
l66 118h98l-164 -269l177 -273h-102l-79 125c-9.33301 16 -18.833 32.333 -28.5 49s-19.5 32.667 -29.5 48h-5c-9.33301 -15.334 -18.5 -31.167 -27.5 -47.5s-18.167 -32.833 -27.5 -49.5l-72 -125h-98z" />
    <glyph glyph-name="cid156" unicode="&#x2179;" horiz-adv-x="1000" 
d="M443 283l-165 259h102l72 -118c8.66699 -14.667 17.5 -29.5 26.5 -44.5s18.167 -30.167 27.5 -45.5h4c8 15.333 16 30.5 24 45.5s16 29.833 24 44.5l65 118h99l-164 -269l176 -273h-101l-80 125c-9.33789 16 -18.6709 32.333 -28 49
c-9.33496 16.667 -19.335 32.667 -30 48h-5c-9.33301 -15.334 -18.333 -31.167 -27 -47.5s-17.667 -32.833 -27 -49.5l-73 -125h-98z" />
    <glyph glyph-name="cid157" unicode="&#x2190;" horiz-adv-x="1000" 
d="M189 346c12.667 -10 26.166 -21.1709 40.499 -33.5039s28.666 -25.666 42.999 -39.999c14.334 -14.333 28.167 -29.166 41.5 -44.499c13.335 -15.334 25.668 -30.667 37 -46l-60 -35c-16.667 22 -35.167 43.833 -55.5 65.5c-20.334 21.667 -41.667 42.5 -64 62.5
s-45.166 39 -68.499 57s-46 34 -68 48c22 14 44.667 30 68 48s46.166 37 68.499 57s43.666 40.833 63.999 62.5s38.833 43.5 55.5 65.5l60 -35c-11.333 -15.3359 -23.666 -30.6689 -36.999 -46c-13.333 -15.333 -27.166 -30.166 -41.499 -44.499
s-28.666 -27.666 -42.999 -39.999s-27.833 -23.5 -40.5 -33.5h771v-68h-771z" />
    <glyph glyph-name="cid158" unicode="&#x2191;" horiz-adv-x="1000" 
d="M466 691c-10 -12.667 -21.1699 -26.1631 -33.5029 -40.4961c-12.333 -14.3359 -25.666 -28.6689 -39.999 -43c-14.333 -14.3359 -29.166 -28.1689 -44.499 -41.5c-15.333 -13.3379 -30.666 -25.6709 -45.999 -37l-35 60c22 16.667 43.833 35.167 65.5 55.5
s42.5 41.666 62.5 63.999s39 45.166 57 68.499s34 46 48 68c14 -22 30 -44.667 48 -68c18 -23.3359 37 -46.1689 57 -68.499c20 -22.3359 40.833 -43.6689 62.5 -64c21.667 -20.333 43.5 -38.833 65.5 -55.5l-35 -60c-15.3359 11.333 -30.6689 23.666 -46 36.999
c-15.3359 13.333 -30.1689 27.166 -44.5 41.499c-14.3359 14.333 -27.6689 28.666 -40 42.999c-12.333 14.333 -23.5 27.833 -33.5 40.5v-771h-68v771z" />
    <glyph glyph-name="cid159" unicode="&#x2192;" horiz-adv-x="1000" 
d="M40 414l771.002 0.00488281c-12.667 10 -26.167 21.167 -40.5 33.5c-14.3359 12.334 -28.6689 25.667 -42.999 39.999c-14.3359 14.333 -28.1689 29.166 -41.5 44.499c-13.3389 15.333 -25.6719 30.666 -37 45.999l60 35c16.667 -22 35.167 -43.833 55.5 -65.5
s41.666 -42.5 63.999 -62.5s45.166 -39 68.499 -57s46 -34 68 -48c-22 -14 -44.667 -30 -68 -48c-23.334 -18 -46.167 -37 -68.499 -57c-22.3359 -20 -43.6689 -40.833 -63.999 -62.5c-20.333 -21.667 -38.833 -43.5 -55.5 -65.5l-60 35
c11.333 15.333 23.666 30.666 36.999 45.999s27.166 30.166 41.499 44.499c14.333 14.334 28.666 27.667 42.999 40s27.833 23.5 40.5 33.5h-771v68z" />
    <glyph glyph-name="cid160" unicode="&#x2193;" horiz-adv-x="1000" 
d="M534 69c10 12.667 21.1699 26.168 33.5029 40.501s25.666 28.666 39.999 42.999s29.166 28.166 44.499 41.499s30.666 25.666 45.999 36.999l35 -60c-22 -16.667 -43.833 -35.167 -65.5 -55.5s-42.5 -41.666 -62.5 -63.999s-39 -45.166 -57 -68.499s-34 -46 -48 -68
c-14 22 -30 44.667 -48 68s-37 46.166 -57 68.499s-40.833 43.666 -62.5 63.999s-43.5 38.833 -65.5 55.5l35 60c15.334 -11.334 30.667 -23.667 46 -37c15.334 -13.333 30.167 -27.166 44.5 -41.499c14.334 -14.333 27.667 -28.666 40 -42.999s23.5 -27.833 33.5 -40.5v771
h68v-771z" />
    <glyph glyph-name="cid161" unicode="&#x2194;" horiz-adv-x="1000" 
d="M189 342c12.667 -10 26.168 -21.166 40.501 -33.499s28.666 -25.666 42.999 -39.999c14.334 -14.334 28.167 -29.167 41.5 -44.5c13.335 -15.334 25.668 -30.667 37 -46l-60 -35c-16.667 22 -35.167 43.833 -55.5 65.5c-20.334 21.667 -41.667 42.5 -64 62.5
s-45.166 39 -68.499 57s-46 34 -68 48c22 14 44.667 30 68 48s46.166 37 68.499 57c22.333 20.001 43.666 40.834 63.999 62.5c20.333 21.667 38.833 43.5 55.5 65.5l60 -35c-11.333 -15.335 -23.666 -30.668 -36.999 -45.999
c-13.333 -15.333 -27.166 -30.166 -41.499 -44.499s-28.666 -27.666 -42.999 -39.999s-27.833 -23.5 -40.5 -33.5h622c-12.667 10 -26.167 21.167 -40.5 33.5c-14.3359 12.334 -28.6689 25.667 -42.999 39.999c-14.3359 14.333 -28.1689 29.166 -41.5 44.499
c-13.3389 15.333 -25.6719 30.666 -37 45.999l60 35c16.667 -22 35.167 -43.833 55.5 -65.5s41.666 -42.5 63.999 -62.5s45.166 -39 68.499 -57s46 -34 68 -48c-22 -14 -44.667 -30 -68 -48c-23.334 -18 -46.167 -37 -68.499 -57
c-22.3359 -20 -43.6689 -40.833 -63.999 -62.5c-20.333 -21.667 -38.833 -43.5 -55.5 -65.5l-60 35c11.333 15.333 23.666 30.666 36.999 45.999s27.166 30.166 41.499 44.499c14.333 14.334 28.666 27.667 42.999 40s27.833 23.5 40.5 33.5h-622z" />
    <glyph glyph-name="cid162" unicode="&#x2195;" horiz-adv-x="1000" 
d="M534 69c10 12.667 21.167 26.1719 33.5 40.5049s25.666 28.666 39.999 42.999s29.166 28.166 44.499 41.499s30.666 25.666 45.999 36.999l35 -60c-22 -16.667 -43.833 -35.167 -65.5 -55.5s-42.5 -41.666 -62.5 -63.999s-39 -45.166 -57 -68.499s-34 -46 -48 -68
c-14 22 -30 44.667 -48 68s-37 46.166 -57 68.499s-40.833 43.666 -62.5 63.999s-43.5 38.833 -65.5 55.5l35 60c15.334 -11.334 30.667 -23.667 46 -37c15.334 -13.333 30.167 -27.166 44.5 -41.499c14.334 -14.333 27.667 -28.666 40 -42.999s23.5 -27.833 33.5 -40.5v622
c-10 -12.667 -21.167 -26.167 -33.5 -40.5c-12.333 -14.3359 -25.666 -28.6689 -39.999 -43c-14.333 -14.3359 -29.166 -28.1689 -44.499 -41.5c-15.333 -13.3379 -30.666 -25.6709 -45.999 -37l-35 60c22 16.667 43.833 35.167 65.5 55.5s42.5 41.666 62.5 63.999
s39 45.166 57 68.499s34 46 48 68c14 -22 30 -44.667 48 -68c18 -23.3359 37 -46.1689 57 -68.499c20 -22.3359 40.833 -43.6689 62.5 -64c21.667 -20.333 43.5 -38.833 65.5 -55.5l-35 -60c-15.3359 11.333 -30.6689 23.666 -46 36.999
c-15.3359 13.333 -30.1689 27.166 -44.5 41.499c-14.3359 14.333 -27.6689 28.666 -40 42.999c-12.333 14.333 -23.5 27.833 -33.5 40.5v-622z" />
    <glyph glyph-name="cid163" unicode="&#x2196;" horiz-adv-x="1000" 
d="M255 576c5.33301 -32 8.00098 -68.999 8.00098 -110.999s-2.66699 -82 -8 -120l-67 17c7.33301 56 9.16602 114.833 5.49902 176.5s-11.167 118.5 -22.5 170.5c52 -11.333 108.833 -18.833 170.5 -22.5s120.5 -1.83398 176.5 5.49902l17 -67c-38 -5.33301 -78 -8 -120 -8
s-79 2.66699 -111 8l546 -546l-49 -49z" />
    <glyph glyph-name="cid164" unicode="&#x2197;" horiz-adv-x="1000" 
d="M696 625c-32 -5.33301 -68.999 -8 -110.999 -8s-82 2.66699 -120 8l17 67c56 -7.35449 114.833 -9.1875 176.5 -5.5c61.667 3.66699 118.5 11.167 170.5 22.5c-11.333 -52 -18.833 -108.833 -22.5 -170.5s-1.83398 -120.5 5.49902 -176.5l-67 -17
c-5.33301 38 -8 78 -8 120s2.66699 79 8 111l-546 -546l-49 49z" />
    <glyph glyph-name="cid165" unicode="&#x2198;" horiz-adv-x="1000" 
d="M745 184c-5.33301 32 -8.00098 68.999 -8.00098 110.999s2.66699 82 8 120l67 -17c-7.35742 -56 -9.19043 -114.833 -5.49902 -176.5c3.66699 -61.667 11.167 -118.5 22.5 -170.5c-52 11.333 -108.833 18.833 -170.5 22.5s-120.5 1.83398 -176.5 -5.49902l-17 67
c38 5.33301 78 8 120 8s79 -2.66699 111 -8l-546 546l49 49z" />
    <glyph glyph-name="cid166" unicode="&#x2199;" horiz-adv-x="1000" 
d="M304 135c32 5.33301 69 8 111 8s82 -2.66699 120 -8l-17 -67c-56 7.33398 -114.833 9.16699 -176.5 5.5s-118.5 -11.167 -170.5 -22.5c11.333 52 18.833 108.833 22.5 170.5c3.66504 61.667 1.83203 120.5 -5.5 176.5l67 17c5.33301 -38 8 -78 8 -120
s-2.66699 -79 -8 -111l546 546l49 -49z" />
    <glyph glyph-name="cid167" unicode="&#x21d2;" horiz-adv-x="1000" 
d="M743 271c20 20.667 40.001 40 60.001 58s39.333 33.667 58 47c-18.667 13.333 -38 28.833 -58 46.5s-40 36.834 -60 57.501h-703v69h643c-18 20.667 -35 41.667 -51 63s-30 41.666 -42 60.999l59 34c19.333 -30.667 41.666 -61.667 66.999 -93s52.333 -61.5 81 -90.5
s58.167 -56.167 88.5 -81.5s60.5 -47.333 90.5 -66c-30 -19.333 -60.167 -41.666 -90.5 -66.999s-59.833 -52.5 -88.5 -81.5s-55.667 -59.167 -81 -90.5c-25.3359 -31.333 -47.6689 -62.333 -67 -93l-59 34c12 19.333 26 39.666 42 60.999s33 42.333 51 63h-643v69h703v0z
" />
    <glyph glyph-name="cid168" unicode="&#x21d4;" horiz-adv-x="1000" 
d="M387 673c-11.333 -19.3359 -24.499 -39.6689 -39.499 -61c-15 -21.333 -31.167 -42.333 -48.5 -63h402c-17.333 20.667 -33.5 41.667 -48.5 63s-28.167 41.666 -39.5 60.999l58 34c18 -30.667 38.833 -61.667 62.5 -93s48.834 -61.5 75.501 -90.5
s54.167 -56.167 82.5 -81.5s56.5 -47.333 84.5 -66c-28 -19.333 -56.167 -41.666 -84.5 -66.999s-55.833 -52.5 -82.5 -81.5s-51.834 -59.167 -75.501 -90.5s-44.5 -62.333 -62.5 -93l-58 34c11.333 19.333 24.5 39.666 39.5 60.999s31.167 42.333 48.5 63h-402
c17.333 -20.667 33.5 -41.667 48.5 -63s28.167 -41.666 39.5 -60.999l-58 -34c-18 30.667 -38.833 61.667 -62.5 93s-48.834 61.5 -75.501 90.5s-54.167 56.167 -82.5 81.5c-28.333 25.334 -56.5 47.667 -84.5 67c28 18.667 56.167 40.667 84.5 66s55.833 52.5 82.5 81.5
s51.834 59.167 75.5 90.5c23.667 31.333 44.5 62.333 62.5 93zM244.001 480c-19.333 -20.668 -38.5 -39.835 -57.5 -57.501c-19 -17.667 -37.5 -33.167 -55.5 -46.5c18 -13.333 36.5 -29 55.5 -47s38.167 -37.333 57.5 -58h512c19.333 20.667 38.5 40 57.5 58
s37.5 33.667 55.5 47c-18 13.333 -36.5 28.833 -55.5 46.5s-38.167 36.834 -57.5 57.501h-512z" />
    <glyph glyph-name="cid169" unicode="&#x2200;" horiz-adv-x="1000" 
d="M887 733l-385 -748h-4l-385 748l61 31l132 -259h388l132 259zM499 129h2l157 308h-316z" />
    <glyph glyph-name="cid170" unicode="&#x2202;" horiz-adv-x="1000" 
d="M706 488c0 68.667 -14.835 120.497 -44.502 155.497s-69.5 52.5 -119.5 52.5c-19.333 0 -37.166 -2.83301 -53.499 -8.5s-31.5 -12.667 -45.5 -21c-14 -8.33789 -26.5 -17.6709 -37.5 -27.999c-11 -10.333 -20.167 -20.5 -27.5 -30.5l-49 54
c12.667 12.667 26.834 25 42.501 37s32.667 22.833 51 32.5c18.333 9.67285 38 17.3398 59 23.001c21 5.66699 43.5 8.5 67.5 8.5c34 0 65.5 -6 94.5 -18s54 -29.5 75 -52.5s37.333 -51.5 49 -85.5s17.5 -73 17.5 -117c0 -39.333 -3.33301 -79 -10 -119
s-16.834 -78.667 -30.501 -116s-30.334 -72.166 -50.001 -104.499s-42.334 -60.5 -68.001 -84.5s-54.5 -43 -86.5 -57s-66.667 -21 -104 -21c-35.333 0 -66.666 5.66699 -93.999 17s-50.166 27 -68.499 47s-32.333 43.5 -42 70.5s-14.5 56.167 -14.5 87.5
c0 38 7.33301 73.333 22 106s33.834 61 57.501 85s50.667 42.667 81 56c30.334 13.333 61.167 20 92.5 20c28 0 53.167 -3.5 75.5 -10.5s42.333 -16.5 60 -28.5s33 -26 46 -42s24.167 -33.333 33.5 -52h2c6 23.334 10.667 47.667 14 73s5 49 5 71zM293.998 209.997
c0 -45.333 12.999 -81.832 38.999 -109.499s61.333 -41.5 106 -41.5c46 0.666992 87.333 17 123.999 49c36.667 32 66.667 79.333 90 142c-3.34277 24 -10.1758 46 -20.499 66c-10.333 20 -23.5 37.167 -39.5 51.5s-33.833 25.333 -53.5 33s-40.5 11.5 -62.5 11.5
c-23.333 0 -45.833 -5.16699 -67.5 -15.5s-41.167 -24.5 -58.5 -42.5s-31.166 -39.333 -41.499 -64s-15.5 -51.334 -15.5 -80.001z" />
    <glyph glyph-name="cid171" unicode="&#x2203;" horiz-adv-x="1000" 
d="M799 739v-727h-604v69h535v261h-535v68h535v260h-535v69h604z" />
    <glyph glyph-name="cid172" unicode="&#x2207;" horiz-adv-x="1000" 
d="M151 661v56h696v-56l-294 -677h-106zM740 638h-483l143 -336l96 -236h5l95 236z" />
    <glyph glyph-name="cid173" unicode="&#x2208;" horiz-adv-x="1000" 
d="M460 629c-35.333 0 -68 -5.49805 -98 -16.498s-56.667 -26.333 -80 -46s-42.333 -42.834 -57 -69.501s-24 -55.667 -28 -87h675v-69h-675c4 -31.333 13.333 -60.333 28 -87s33.667 -49.834 57 -69.501s50 -35 80 -46s62.667 -16.5 98 -16.5h412v-69h-412
c-47.333 0 -91.5 8.33301 -132.5 25s-76.5 39.5 -106.5 68.5s-53.667 63.167 -71 102.5c-17.333 39.334 -26 81.667 -26 127s8.66699 87.5 26 126.5s41 73 71 102s65.5 51.833 106.5 68.5s85.167 25 132.5 25h412v-69h-412z" />
    <glyph glyph-name="cid174" unicode="&#x220b;" horiz-adv-x="1000" 
d="M128 629l0.000976562 68.998h412c47.333 0 91.5 -8.33301 132.5 -25s76.5 -39.5 106.5 -68.5s53.667 -63 71 -102s26 -81.167 26 -126.5s-8.66699 -87.666 -26 -126.999s-41 -73.5 -71 -102.5s-65.5 -51.833 -106.5 -68.5s-85.167 -25 -132.5 -25h-412v69h412
c34.667 0 67.167 5.5 97.5 16.5s57.166 26.333 80.499 46s42.333 42.834 57 69.5c14.667 26.667 24 55.667 28 87h-675v69h675c-4 31.333 -13.333 60.333 -28 87c-14.667 26.6689 -33.667 49.8359 -57 69.501c-23.3359 19.667 -50.1689 35 -80.5 46
c-30.333 11 -62.833 16.5 -97.5 16.5h-412z" />
    <glyph glyph-name="cid175" unicode="&#x220f;" horiz-adv-x="1000" 
d="M208 713h585v-847h-94v766h-399v-766h-92v847z" />
    <glyph glyph-name="cid176" unicode="&#x2211;" horiz-adv-x="1000" 
d="M326 75h473v-75h-598v53l287 309l-271 308v56h545v-74h-420v-4l249 -284l-265 -285v-4z" />
    <glyph glyph-name="cid177" unicode="&#x221a;" horiz-adv-x="1000" 
d="M1000 880v-41h-411l-321 -925h-30l-108 280l-70 -99l-26 19l137 193l99 -260l290 833h440z" />
    <glyph glyph-name="cid178" unicode="&#x221d;" horiz-adv-x="1000" 
d="M544 376c28.668 -38.667 60.834 -70.167 96.5 -94.5c35.667 -24.333 76.5 -36.5 122.5 -36.5c23.333 0 44.666 3 63.999 9l25 -65c-26 -8.66699 -56.333 -13 -91 -13c-28.667 0 -55.5 3.83301 -80.5 11.5s-48.167 18.167 -69.5 31.5
c-21.3359 13.333 -41.1689 28.666 -59.5 45.999c-18.333 17.333 -35.5 36 -51.5 56c-16 -20 -33.167 -38.667 -51.5 -56s-38.166 -32.666 -59.499 -45.999s-44.666 -23.833 -69.999 -31.5s-52.333 -11.5 -81 -11.5c-24 0 -48.167 4.16699 -72.5 12.5
s-46.333 20.833 -66 37.5s-35.5 37.5 -47.5 62.5s-18 54.167 -18 87.5c0 32.667 6 61.5 18 86.5s27.833 45.833 47.5 62.5s41.667 29.167 66 37.5s48.5 12.5 72.5 12.5c28.667 0 55.667 -3.83301 81 -11.5c25.334 -7.66699 48.667 -18.167 70 -31.5
c21.334 -13.333 41.167 -28.666 59.5 -45.999s35.5 -36 51.5 -56c16 20 33.167 38.667 51.5 56s38.166 32.666 59.499 45.999s44.5 23.833 69.5 31.5s51.833 11.5 80.5 11.5c34.667 0 65 -4.33301 91 -13l-25 -64c-19.3359 6 -40.6689 9 -63.999 9
c-46 0 -86.833 -12.333 -122.5 -37s-67.834 -56 -96.501 -94zM102.999 376c0 -21.333 3.66797 -40 11.001 -56s17.166 -29.667 29.499 -41s26.666 -19.833 42.999 -25.5s33.166 -8.5 50.499 -8.5c46 0 86.833 12.167 122.5 36.5s67.834 55.833 96.501 94.5
c-28.667 38 -60.834 69.333 -96.5 94c-35.667 24.667 -76.5 37 -122.5 37c-17.334 0 -34.167 -3 -50.5 -9c-16.334 -6 -30.667 -14.5 -43 -25.5s-22.166 -24.667 -29.499 -41s-11 -34.833 -11 -55.5z" />
    <glyph glyph-name="cid179" unicode="&#x221e;" horiz-adv-x="1000" 
d="M500 430c16 20 33.168 38.667 51.501 56s38.166 32.666 59.499 45.999s44.5 23.833 69.5 31.5s51.833 11.5 80.5 11.5c24 0 48.167 -4.16699 72.5 -12.5s46.333 -20.833 66 -37.5s35.5 -37.5 47.5 -62.5s18 -53.833 18 -86.5c0 -33.333 -6 -62.5 -18 -87.5
s-27.833 -45.833 -47.5 -62.5s-41.667 -29.167 -66 -37.5s-48.5 -12.5 -72.5 -12.5c-28.667 0 -55.5 3.83301 -80.5 11.5s-48.167 18.167 -69.5 31.5c-21.3359 13.333 -41.1689 28.666 -59.5 45.999c-18.333 17.333 -35.5 36 -51.5 56c-16 -20 -33.167 -38.667 -51.5 -56
s-38.333 -32.666 -60 -45.999s-45 -23.833 -70 -31.5s-51.833 -11.5 -80.5 -11.5c-24 0 -48.167 4.16699 -72.5 12.5s-46.333 20.833 -66 37.5s-35.5 37.5 -47.5 62.5s-18 54.167 -18 87.5c0 32.667 6 61.5 18 86.5s27.833 45.833 47.5 62.5s41.667 29.167 66 37.5
s48.5 12.5 72.5 12.5c28.667 0 55.5 -3.83301 80.5 -11.5s48.333 -18.167 70 -31.5s41.667 -28.666 60 -45.999s35.5 -36 51.5 -56zM103.001 376c0 -21.333 3.66797 -40 11.001 -56s17.166 -29.667 29.499 -41s26.666 -19.833 42.999 -25.5s33.166 -8.5 50.499 -8.5
c46 0 86.667 12.167 122 36.5c35.334 24.333 67.667 55.833 97 94.5c-29.333 38 -61.666 69.333 -96.999 94s-76 37 -122 37c-17.334 0 -34.167 -3 -50.5 -9c-16.334 -6 -30.667 -14.5 -43 -25.5s-22.166 -24.667 -29.499 -41s-11 -34.833 -11 -55.5zM544.002 376
c28.668 -38.667 60.8359 -70.167 96.502 -94.5c35.667 -24.333 76.5 -36.5 122.5 -36.5c17.333 0 34 2.83301 50 8.5s30.167 14.167 42.5 25.5s22.166 25 29.499 41s11 34.667 11 56c0 20.667 -3.66699 39.167 -11 55.5c-7.33691 16.333 -17.1699 30 -29.5 41
c-12.333 11 -26.5 19.5 -42.5 25.5s-32.667 9 -50 9c-46 0 -86.833 -12.333 -122.5 -37s-67.834 -56 -96.501 -94z" />
    <glyph glyph-name="cid180" unicode="&#x2220;" horiz-adv-x="1000" 
d="M264 96h615v-69h-777v4l663 664l48 -49l-549 -547v-3z" />
    <glyph glyph-name="cid181" unicode="&#x2227;" horiz-adv-x="1000" 
d="M498 770h4l385 -747l-61 -32l-325 635h-2l-325 -635l-61 32z" />
    <glyph glyph-name="cid182" unicode="&#x2228;" horiz-adv-x="1000" 
d="M502 -19h-4l-385 747l61 32l325 -635h2l325 635l61 -32z" />
    <glyph glyph-name="cid183" unicode="&#x2229;" horiz-adv-x="1000" 
d="M178 415c0 48 8.16895 92.5 24.502 133.5s39 76.5 68 106.5s63.167 53.5 102.5 70.5c39.334 17 81.667 25.5 127 25.5s87.666 -8.5 126.999 -25.5s73.5 -40.5 102.5 -70.5s51.667 -65.5 68 -106.5s24.5 -85.5 24.5 -133.5v-411h-69v411c0 38 -6.5 73.333 -19.5 106
s-30.833 61 -53.5 85s-49.334 42.667 -80.001 56s-64 20 -100 20s-69.333 -6.66699 -100 -20s-57.334 -32 -80 -56c-22.667 -24 -40.5 -52.333 -53.5 -85s-19.5 -68 -19.5 -106v-411h-69v411v0z" />
    <glyph glyph-name="cid184" unicode="&#x222a;" horiz-adv-x="1000" 
d="M822 336c0 -48 -8.16992 -92.5 -24.5029 -133.5s-39 -76.5 -68 -106.5s-63.167 -53.5 -102.5 -70.5c-39.334 -17 -81.667 -25.5 -126.999 -25.5c-45.333 0 -87.666 8.5 -126.999 25.5s-73.5 40.5 -102.5 70.5s-51.667 65.5 -68 106.5s-24.5 85.5 -24.5 133.5v411h69v-411
c0 -38 6.5 -73.333 19.5 -106s30.833 -61 53.5 -85s49.334 -42.667 80.001 -56s64 -20 100 -20s69.333 6.66699 100 20c30.668 13.333 57.335 32 80 56c22.667 24 40.5 52.333 53.5 85s19.5 68 19.5 106v411h69v-411v0z" />
    <glyph glyph-name="cid185" unicode="&#x222b;" horiz-adv-x="1000" 
d="M460 605c0 50 5.5 90.834 16.5 122.501s25 56.167 42 73.5s36 29.166 57 35.499s41.833 9.5 62.5 9.5c15.333 0 30.666 -1.66699 45.999 -5l-7 -73c-10 2.66699 -21 4 -33 4c-12.667 0 -25.167 -1.83301 -37.5 -5.5s-23.5 -11.834 -33.5 -24.501s-18 -30.667 -24 -54
c-6 -23.335 -9 -54.668 -9 -94v-439c0 -50 -5.33301 -90.833 -16 -122.5s-24.5 -56.167 -41.5 -73.5s-36.167 -29.166 -57.5 -35.499s-42.333 -9.5 -63 -9.5c-15.333 0 -30.666 1.66699 -45.999 5l7 73c10 -2.66699 21 -4 33 -4c12.667 0 25.167 1.83301 37.5 5.5
s23.5 11.834 33.5 24.501s18 30.667 24 54s9 54.666 9 93.999v439z" />
    <glyph glyph-name="cid186" unicode="&#x222c;" horiz-adv-x="1000" 
d="M266 605c0 50 5.5 90.834 16.5 122.501s25 56.167 42 73.5s36 29.166 57 35.499s41.833 9.5 62.5 9.5c15.334 0 30.667 -1.66699 45.999 -5l-7 -73c-10 2.66699 -21 4 -33 4c-12.667 0 -25.167 -1.83301 -37.5 -5.5s-23.5 -11.834 -33.5 -24.501s-18 -30.667 -24 -54
c-6 -23.335 -9 -54.668 -9 -94v-439c0 -50 -5.33301 -90.833 -16 -122.5s-24.5 -56.167 -41.5 -73.5s-36.167 -29.166 -57.5 -35.499s-42.333 -9.5 -63 -9.5c-15.333 0 -30.666 1.66699 -45.999 5l7 73c10 -2.66699 21 -4 33 -4c12.667 0 25.167 1.83301 37.5 5.5
s23.5 11.834 33.5 24.501s18 30.667 24 54s9 54.666 9 93.999v439zM654 605.001c0 50 5.33301 90.834 16 122.501s24.5 56.167 41.5 73.5s36.167 29.166 57.5 35.499s42.333 9.5 63 9.5c15.333 0 30.666 -1.66699 45.999 -5l-7 -73c-10 2.66699 -21 4 -33 4
c-12.667 0 -25.167 -1.83301 -37.5 -5.5s-23.5 -11.834 -33.5 -24.501s-18 -30.667 -24 -54c-6 -23.335 -9 -54.668 -9 -94v-439c0 -50 -5.5 -90.833 -16.5 -122.5s-25 -56.167 -42 -73.5s-36 -29.166 -57 -35.499s-41.833 -9.5 -62.5 -9.5
c-15.335 0 -30.668 1.66699 -45.999 5l7 73c10 -2.66699 21 -4 33 -4c12.667 0 25.167 1.83301 37.5 5.5s23.5 11.834 33.5 24.501s18 30.667 24 54s9 54.666 9 93.999v439z" />
    <glyph glyph-name="cid187" unicode="&#x222e;" horiz-adv-x="1000" 
d="M460 219c-18 4 -34.833 11 -50.5 21c-15.668 10 -29.335 22 -41 36c-11.667 14 -20.667 29.833 -27 47.5s-9.5 36.5 -9.5 56.5s3.16699 38.833 9.5 56.5s15.333 33.5 27 47.5s25.334 26 41.001 36s32.5 17 50.5 21v64c0 50 5.5 90.833 16.5 122.5s25 56.167 42 73.5
s36 29.166 57 35.499s41.833 9.5 62.5 9.5c15.333 0 30.666 -1.66699 45.999 -5l-7 -73c-10 2.66699 -21 4 -33 4s-24.167 -1.83301 -36.5 -5.5s-23.5 -11.334 -33.5 -23.001s-18.167 -28.834 -24.5 -51.501s-9.5 -53 -9.5 -91v-60c18 -4 34.833 -11 50.5 -21
c15.6709 -10 29.3379 -22 41 -36c11.667 -14 20.667 -29.833 27 -47.5s9.5 -36.5 9.5 -56.5s-3.16699 -38.833 -9.5 -56.5s-15.333 -33.5 -27 -47.5s-25.334 -26 -41.001 -36s-32.5 -17 -50.5 -21v-64c0 -50 -5.33301 -90.833 -16 -122.5s-24.5 -56.167 -41.5 -73.5
s-36.167 -29.166 -57.5 -35.499s-42.333 -9.5 -63 -9.5c-15.333 0 -30.666 1.66699 -45.999 5l7 73c10 -2.66699 21 -4 33 -4s24.167 1.83301 36.5 5.5s23.5 11.334 33.5 23.001s18.167 28.834 24.5 51.501s9.5 53 9.5 91v60zM460 499c-25.333 -7.33301 -46.333 -22 -63 -44
s-25 -47 -25 -75s8.33301 -53 25 -75s37.667 -36.667 63 -44v238zM540 261c25.333 7.33301 46.333 22 63 44s25 47 25 75s-8.33301 53 -25 75s-37.667 36.667 -63 44v-238z" />
    <glyph glyph-name="cid188" unicode="&#x2234;" horiz-adv-x="1000" 
d="M428 612c0 19.333 7 36.167 21 50.5s31 21.5 51 21.5s37 -7.16699 51 -21.5c14 -14.334 21 -31.167 21 -50.5c0 -20 -7 -37.167 -21 -51.5s-31 -21.5 -51 -21.5s-37 7.16699 -51 21.5s-21 31.5 -21 51.5zM163 139.001c0 20 7.16699 37.167 21.5 51.5s31.5 21.5 51.5 21.5
s37 -7.16699 51 -21.5s21 -31.5 21 -51.5c0 -19.333 -7 -36.166 -21 -50.499s-31 -21.5 -51 -21.5s-37.167 7.16699 -51.5 21.5s-21.5 31.166 -21.5 50.499zM692 139.001c0 20 7.16699 37.167 21.5 51.5s31.5 21.5 51.5 21.5s37 -7.16699 51 -21.5s21 -31.5 21 -51.5
c0 -19.333 -7 -36.166 -21 -50.499s-31 -21.5 -51 -21.5s-37.167 7.16699 -51.5 21.5s-21.5 31.166 -21.5 50.499z" />
    <glyph glyph-name="cid189" unicode="&#x2235;" horiz-adv-x="1000" 
d="M163 612c0 19.333 7.16699 36.167 21.5 50.5s31.5 21.5 51.5 21.5s37 -7.16699 51 -21.5c14 -14.334 21 -31.167 21 -50.5c0 -20 -7 -37.167 -21 -51.5s-31 -21.5 -51 -21.5s-37.167 7.16699 -51.5 21.5s-21.5 31.5 -21.5 51.5zM692 612.001
c0 19.333 7.16699 36.166 21.5 50.499s31.5 21.5 51.5 21.5s37 -7.16699 51 -21.5s21 -31.166 21 -50.499c0 -20 -7 -37.167 -21 -51.5s-31 -21.5 -51 -21.5s-37.167 7.16699 -51.5 21.5s-21.5 31.5 -21.5 51.5zM428 139.001c0 20 7 37.167 21 51.5s31 21.5 51 21.5
s37 -7.16699 51 -21.5s21 -31.5 21 -51.5c0 -19.333 -7 -36.166 -21 -50.499s-31 -21.5 -51 -21.5s-37 7.16699 -51 21.5s-21 31.166 -21 50.499z" />
    <glyph glyph-name="cid190" unicode="&#x2236;" horiz-adv-x="1000" 
d="M428 612c0 19.333 7 36.167 21 50.5s31 21.5 51 21.5s37 -7.16699 51 -21.5c14 -14.334 21 -31.167 21 -50.5c0 -20 -7 -37.167 -21 -51.5s-31 -21.5 -51 -21.5s-37 7.16699 -51 21.5s-21 31.5 -21 51.5zM428 139.001c0 20 7 37.167 21 51.5s31 21.5 51 21.5
s37 -7.16699 51 -21.5s21 -31.5 21 -51.5c0 -19.333 -7 -36.166 -21 -50.499s-31 -21.5 -51 -21.5s-37 7.16699 -51 21.5s-21 31.166 -21 50.499z" />
    <glyph glyph-name="cid191" unicode="&#x223d;" horiz-adv-x="1000" 
d="M476 400c16.667 22.667 34.8408 44.668 54.5078 66.001s41.167 40 64.5 56s48.833 28.833 76.5 38.5s57.5 14.5 89.5 14.5c24 0 48.167 -4.16699 72.5 -12.5s46.333 -20.833 66 -37.5s35.5 -37.5 47.5 -62.5s18 -53.833 18 -86.5c0 -33.333 -6 -62.5 -18 -87.5
s-27.833 -45.833 -47.5 -62.5s-41.834 -29.167 -66.501 -37.5s-49.334 -12.5 -74.001 -12.5c-16 0 -31.667 1 -47 3s-30 5.33301 -44 10l26 65c18.667 -6 41 -9 67 -9c18 0 35 2.83301 51 8.5s30.333 14.167 43 25.5s22.667 25 30 41s11 34.667 11 56
c0 20.667 -3.66699 39.167 -11 55.5c-7.33691 16.333 -17.1699 30 -29.5 41c-12.333 11 -26.5 19.5 -42.5 25.5s-32.667 9 -50 9c-26 0 -50.167 -4 -72.5 -12s-43.333 -19.167 -63 -33.5s-38 -31 -55 -50s-33.167 -39.5 -48.5 -61.5
c-16.668 -23.333 -34.835 -45.5 -54.501 -66.5c-19.668 -21 -41.335 -39.5 -65.001 -55.5c-23.667 -16 -49.167 -28.667 -76.5 -38s-57.333 -14 -90 -14c-24 0 -48.167 4.16699 -72.5 12.5s-46.333 20.833 -66 37.5s-35.5 37.5 -47.5 62.5s-18 54.167 -18 87.5
s6.16699 62.5 18.5 87.5s28.166 45.667 47.499 62s41.333 28.666 66 36.999s49.334 12.5 74 12.5c34 0 64.333 -4.33301 91 -13l-25 -64c-20 6 -42.333 9 -67 9c-18 0 -35.167 -3 -51.5 -9s-30.833 -14.5 -43.5 -25.5s-22.667 -24.667 -30 -41s-11 -34.833 -11 -55.5
c0 -21.333 3.66699 -40 11 -56s17.166 -29.667 29.499 -41s26.666 -19.833 42.999 -25.5s33.166 -8.5 50.499 -8.5c26 0 50 4 72 12s42.833 19 62.5 33s38 30.333 55 49s33.5 39 49.5 61z" />
    <glyph glyph-name="cid192" unicode="&#x2252;" horiz-adv-x="1000" 
d="M246 667c0 20 7 37.167 21 51.5s31 21.5 51 21.5s37.167 -7.16699 51.5 -21.5s21.5 -31.5 21.5 -51.5s-7.16699 -37 -21.5 -51s-31.5 -21 -51.5 -21s-37 7 -51 21s-21 31 -21 51zM863 506v-61h-726v61h726zM863 306v-61h-726v61h726zM609 84c0 20 7.16699 37 21.5 51
s31.5 21 51.5 21s37 -7 51 -21s21 -31 21 -51s-7 -37.167 -21 -51.5s-31 -21.5 -51 -21.5s-37.167 7.16699 -51.5 21.5s-21.5 31.5 -21.5 51.5z" />
    <glyph glyph-name="cid193" unicode="&#x2260;" horiz-adv-x="1000" 
d="M562 446l-52 -145h353v-69h-378l-77 -210l-64 24l67 186h-274v69h299l53 145h-352v69h377l78 214l64 -24l-69 -190h276v-69h-301z" />
    <glyph glyph-name="cid194" unicode="&#x2261;" horiz-adv-x="1000" 
d="M863 624v-65h-726v65h726zM863 408v-65h-726v65h726zM863 192v-65h-726v65h726z" />
    <glyph glyph-name="cid195" unicode="&#x2264;" horiz-adv-x="1000" 
d="M872 83v-65h-744v65h744zM285 475l589 -238l-26 -63l-746 301v4l746 302l26 -64l-589 -238v-4z" />
    <glyph glyph-name="cid196" unicode="&#x2265;" horiz-adv-x="1000" 
d="M128 83h744v-65h-744v65zM715 475v4l-589 238l26 64l746 -302v-4l-746 -301l-26 63z" />
    <glyph glyph-name="cid197" unicode="&#x226a;" horiz-adv-x="1000" 
d="M642 713l-482 -335v-4l482 -336l-35 -50l-553 386v4l553 385zM945 713l-483 -335v-4l483 -336l-35 -50l-553 386v4l553 385z" />
    <glyph glyph-name="cid198" unicode="&#x226b;" horiz-adv-x="1000" 
d="M643 378v-4l-553 -386l-35 50l483 336v4l-483 335l35 50zM946 378v-4l-553 -386l-35 50l482 336v4l-482 335l35 50z" />
    <glyph glyph-name="cid199" unicode="&#x2282;" horiz-adv-x="1000" 
d="M460 53c-47.333 0 -91.5 8.33398 -132.5 25.001s-76.5 39.5 -106.5 68.5s-53.667 63.167 -71 102.5c-17.333 39.334 -26 81.667 -26 127s8.66699 87.5 26 126.5s41 73 71 102s65.5 51.833 106.5 68.5s85.167 25 132.5 25h412v-69h-412c-38 0 -73.333 -6.5 -106 -19.5
s-60.834 -30.833 -84.5 -53.5c-23.667 -22.667 -42.334 -49.334 -56.001 -80.001s-20.5 -64 -20.5 -100s6.83301 -69.5 20.5 -100.5s32.334 -57.833 56 -80.5c23.667 -22.667 51.834 -40.5 84.501 -53.5s68 -19.5 106 -19.5h412v-69h-412v0z" />
    <glyph glyph-name="cid200" unicode="&#x2283;" horiz-adv-x="1000" 
d="M540 698c47.333 0 91.501 -8.33496 132.501 -25.002s76.5 -39.5 106.5 -68.5s53.667 -63 71 -102s26 -81.167 26 -126.5s-8.66699 -87.666 -26 -126.999s-41 -73.5 -71 -102.5s-65.5 -51.833 -106.5 -68.5s-85.167 -25 -132.5 -25h-412v69h412c38 0 73.333 6.5 106 19.5
c32.668 13 60.835 30.833 84.5 53.5c23.6699 22.667 42.3369 49.5 56.001 80.5c13.667 31 20.5 64.5 20.5 100.5s-6.83301 69.333 -20.5 100s-32.334 57.334 -56.001 80.001s-51.834 40.5 -84.501 53.5s-68 19.5 -106 19.5h-412v69h412v0z" />
    <glyph glyph-name="cid201" unicode="&#x2286;" horiz-adv-x="1000" 
d="M409 694c-35.333 0 -66.333 -5.33398 -93 -16.001s-49.167 -25 -67.5 -43s-32.166 -38.667 -41.499 -62c-9.33301 -23.335 -14 -47.668 -14 -72.999c0 -25.333 4.66699 -49.833 14 -73.5s23.166 -44.5 41.499 -62.5s40.833 -32.333 67.5 -43s57.667 -16 93 -16h463v-69
h-463c-44.667 0 -84.667 7.16699 -120 21.5c-35.333 14.334 -65.166 33.667 -89.499 58s-43 52.333 -56 84s-19.5 65.167 -19.5 100.5c0 34.668 6.5 67.835 19.5 99.501c13 31.667 31.667 59.667 56 84s54.166 43.666 89.499 57.999s75.333 21.5 120 21.5h463v-69h-463z
M872 56.999v-69h-744v69h744z" />
    <glyph glyph-name="cid202" unicode="&#x2287;" horiz-adv-x="1000" 
d="M591 305c34.667 0 65.5 5.33398 92.5 16.001s49.667 25 68 43s32.166 38.833 41.499 62.5s14 48.167 14 73.5s-4.66699 49.666 -14 72.999c-9.33594 23.333 -23.1689 44 -41.499 62c-18.333 18 -41 32.333 -68 43s-57.833 16 -92.5 16h-463v69h463
c44.667 0 84.5 -7.16699 119.5 -21.5c35 -14.3359 64.833 -33.6689 89.5 -58c24.667 -24.333 43.5 -52.333 56.5 -84s19.5 -64.834 19.5 -99.501c0 -35.333 -6.5 -68.833 -19.5 -100.5s-31.833 -59.667 -56.5 -84s-54.5 -43.666 -89.5 -57.999s-74.833 -21.5 -119.5 -21.5
h-463v69h463zM872 57.001v-69h-744v69h744z" />
    <glyph glyph-name="cid203" unicode="&#x2299;" horiz-adv-x="1000" 
d="M500 10c-51.333 0 -99.334 9.66699 -144.001 29s-83.834 45.833 -117.5 79.5c-33.667 33.667 -60.167 72.834 -79.5 117.501s-29 92.667 -29 144c0 50.667 9.66699 98.5 29 143.5s45.833 84.333 79.5 118s72.834 60.167 117.501 79.5s92.667 29 144 29
c50.667 0 98.5 -9.66699 143.5 -29s84.333 -45.833 118 -79.5s60.167 -73 79.5 -118s29 -92.833 29 -143.5c0 -51.333 -9.66699 -99.333 -29 -144s-45.833 -83.834 -79.5 -117.501s-73 -60.167 -118 -79.5s-92.833 -29 -143.5 -29zM198.999 380
c0 -41.333 7.83301 -80.333 23.5 -117s37.167 -68.667 64.5 -96s59.333 -48.833 96 -64.5s75.667 -23.5 117 -23.5s80.333 7.83301 117 23.5s68.667 37.167 96 64.5s48.833 59.333 64.5 96s23.5 75.667 23.5 117s-7.83301 80.333 -23.5 117s-37.167 68.667 -64.5 96
s-59.333 48.833 -96 64.5s-75.667 23.5 -117 23.5s-80.333 -7.83301 -117 -23.5s-68.667 -37.167 -96 -64.5s-48.833 -59.333 -64.5 -96s-23.5 -75.667 -23.5 -117zM557.999 380c0 -16 -5.66699 -29.667 -17 -41s-25 -17 -41 -17s-29.667 5.66699 -41 17s-17 25 -17 41
c0 15.333 5.66699 28.833 17 40.5s25 17.5 41 17.5s29.667 -5.83301 41 -17.5s17 -25.167 17 -40.5z" />
    <glyph glyph-name="cid204" unicode="&#x22a5;" horiz-adv-x="1000" 
d="M895 105v-69h-790v69h361v634h68v-634h361z" />
    <glyph glyph-name="cid205" unicode="&#x2312;" horiz-adv-x="1000" 
d="M24 646c60.667 60 130.835 108.167 210.502 144.5s168.167 54.5 265.5 54.5s185.666 -18.167 264.999 -54.5s149.666 -84.5 210.999 -144.5l-31 -60c-60 58 -126.833 103.5 -200.5 136.5s-155.167 49.5 -244.5 49.5s-170.833 -16.5 -244.5 -49.5
s-140.5 -78.5 -200.5 -136.5l-31 60v0z" />
    <glyph glyph-name="cid206" unicode="&#x2460;" horiz-adv-x="1000" 
d="M500 -86c-64 0 -124.333 12.1689 -181 36.502s-106.167 57.666 -148.5 99.999s-75.666 91.833 -99.999 148.5s-36.5 117 -36.5 181s12.167 124.333 36.5 181s57.666 106.167 99.999 148.5s91.833 75.666 148.5 99.999s117 36.5 181 36.5s124.333 -12.167 181 -36.5
s106.167 -57.666 148.5 -99.999s75.666 -91.833 99.999 -148.5s36.5 -117 36.5 -181c0 -64.667 -12.333 -125.334 -37 -182.001s-58.167 -106 -100.5 -148s-91.666 -75.167 -147.999 -99.5s-116.5 -36.5 -180.5 -36.5zM500 -53.998c60 0 116.333 11.333 169 34
s98.667 53.667 138 93s70.333 85.333 93 138s34 109 34 169s-11.333 116.333 -34 169s-53.667 98.667 -93 138s-85.333 70.333 -138 93s-109 34 -169 34c-60.667 0 -117.334 -11.5 -170 -34.5c-52.667 -23 -98.5 -54.167 -137.5 -93.5s-69.833 -85.333 -92.5 -138
s-34 -108.667 -34 -168c0 -60 11.333 -116.333 34 -169s53.667 -98.667 93 -138s85.333 -70.333 138 -93s109 -34 169 -34zM480 551.002h-106.001v53c26.667 4.6709 49.834 10.3379 69.501 17c19.667 6.66699 38.167 14.667 55.5 24h63v-518h-82v424z" />
    <glyph glyph-name="cid207" unicode="&#x2461;" horiz-adv-x="1000" 
d="M500 -86c-64 0 -124.333 12.1689 -181 36.502s-106.167 57.666 -148.5 99.999s-75.666 91.833 -99.999 148.5s-36.5 117 -36.5 181s12.167 124.333 36.5 181s57.666 106.167 99.999 148.5s91.833 75.666 148.5 99.999s117 36.5 181 36.5s124.333 -12.167 181 -36.5
s106.167 -57.666 148.5 -99.999s75.666 -91.833 99.999 -148.5s36.5 -117 36.5 -181c0 -64.667 -12.333 -125.334 -37 -182.001s-58.167 -106 -100.5 -148s-91.666 -75.167 -147.999 -99.5s-116.5 -36.5 -180.5 -36.5zM500 -53.998c60 0 116.333 11.333 169 34
s98.667 53.667 138 93s70.333 85.333 93 138s34 109 34 169s-11.333 116.333 -34 169s-53.667 98.667 -93 138s-85.333 70.333 -138 93s-109 34 -169 34c-60.667 0 -117.334 -11.5 -170 -34.5c-52.667 -23 -98.5 -54.167 -137.5 -93.5s-69.833 -85.333 -92.5 -138
s-34 -108.667 -34 -168c0 -60 11.333 -116.333 34 -169s53.667 -98.667 93 -138s85.333 -70.333 138 -93s109 -34 169 -34zM327 175.002c42 36.667 79.332 70.166 111.999 100.499s60.334 58.5 83.001 84.5c22.6689 26 39.8359 50 51.501 72c11.667 22 17.5 43.333 17.5 64
c0 29.333 -8.33301 52.5 -25 69.5s-42.334 25.5 -77.001 25.5c-24.667 0 -47.167 -6 -67.5 -18s-38.5 -25.667 -54.5 -41l-47 44c25.333 26.6689 52.333 46.8359 81 60.5c28.667 13.667 60.667 20.5 96 20.5c54 0 96.5 -14.167 127.5 -42.5s46.5 -65.833 46.5 -112.5
c0 -24 -5.83301 -48.167 -17.5 -72.5s-27.5 -49.166 -47.5 -74.499s-43.667 -51.5 -71 -78.5s-57 -54.833 -89 -83.5c15.333 1.33301 31.833 2.33301 49.5 3s35.167 1 52.5 1h147v-70h-368v48z" />
    <glyph glyph-name="cid208" unicode="&#x2462;" horiz-adv-x="1000" 
d="M500 -86c-64 0 -124.333 12.1689 -181 36.502s-106.167 57.666 -148.5 99.999s-75.666 91.833 -99.999 148.5s-36.5 117 -36.5 181s12.167 124.333 36.5 181s57.666 106.167 99.999 148.5s91.833 75.666 148.5 99.999s117 36.5 181 36.5s124.333 -12.167 181 -36.5
s106.167 -57.666 148.5 -99.999s75.666 -91.833 99.999 -148.5s36.5 -117 36.5 -181c0 -64.667 -12.333 -125.334 -37 -182.001s-58.167 -106 -100.5 -148s-91.666 -75.167 -147.999 -99.5s-116.5 -36.5 -180.5 -36.5zM500 -53.998c60 0 116.333 11.333 169 34
s98.667 53.667 138 93s70.333 85.333 93 138s34 109 34 169s-11.333 116.333 -34 169s-53.667 98.667 -93 138s-85.333 70.333 -138 93s-109 34 -169 34c-60.667 0 -117.334 -11.5 -170 -34.5c-52.667 -23 -98.5 -54.167 -137.5 -93.5s-69.833 -85.333 -92.5 -138
s-34 -108.667 -34 -168c0 -60 11.333 -116.333 34 -169s53.667 -98.667 93 -138s85.333 -70.333 138 -93s109 -34 169 -34zM495 115.002c-44.667 0 -82.8379 7.16504 -114.504 21.498c-31.667 14.333 -57.167 31.833 -76.5 52.5l40 53c17.333 -16.667 37.833 -31 61.5 -43
s52.834 -18 87.501 -18c32.668 0 59.335 8 80.001 24c20.667 16 31 37.333 31 64c0 14.667 -3 27.834 -9 39.501s-16 21.667 -30 30s-32.5 14.833 -55.5 19.5s-51.5 7 -85.5 7v61c59.333 0 101 8.33301 125 25s36 38 36 64c0 24 -8.33301 42.833 -25 56.5s-40 20.5 -70 20.5
c-23.333 0 -45.166 -4.5 -65.499 -13.5s-39.166 -21.833 -56.499 -38.5l-43 51c22 20 46.833 36 74.5 48s58.5 18 92.5 18c26 0 49.667 -3 71 -9s39.833 -14.833 55.5 -26.5s27.834 -26 36.5 -43c8.66699 -17 13 -36.5 13 -58.5c0 -30 -9.5 -54.667 -28.5 -74
s-43.5 -34.666 -73.5 -45.999v-3c34 -8.66699 62.833 -23.834 86.5 -45.5c23.667 -21.667 35.5 -50.5 35.5 -86.5c0 -23.334 -5 -44.167 -15 -62.5s-23.833 -34 -41.5 -47s-38.167 -23 -61.5 -30s-48.333 -10.5 -75 -10.5z" />
    <glyph glyph-name="cid209" unicode="&#x2463;" horiz-adv-x="1000" 
d="M528 328l0.000976562 131.999c0 14.667 0.166992 31.834 0.5 51.501s1.16602 37.167 2.49902 52.5h-4c-7.33301 -14 -14.333 -25.833 -21 -35.5s-14.667 -21.5 -24 -35.5l-125 -165h171zM606.001 327.999h77v-63h-77v-138h-78v138h-256v55l240 325h94v-317z
M500.001 -54.001c60 0 116.333 11.333 169 34s98.667 53.667 138 93s70.333 85.333 93 138s34 109 34 169s-11.333 116.333 -34 169s-53.667 98.667 -93 138s-85.333 70.333 -138 93s-109 34 -169 34c-60.667 0 -117.334 -11.5 -170 -34.5
c-52.667 -23 -98.5 -54.167 -137.5 -93.5s-69.833 -85.333 -92.5 -138s-34 -108.667 -34 -168c0 -60 11.333 -116.333 34 -169s53.667 -98.667 93 -138s85.333 -70.333 138 -93s109 -34 169 -34zM500.001 845.999c64 0 124.333 -12.165 181 -36.498
s106.167 -57.666 148.5 -99.999s75.666 -91.833 99.999 -148.5s36.5 -117 36.5 -181c0 -64.667 -12.333 -125.334 -37 -182.001s-58.167 -106 -100.5 -148s-91.666 -75.167 -147.999 -99.5s-116.5 -36.5 -180.5 -36.5s-124.333 12.167 -181 36.5
s-106.167 57.666 -148.5 99.999s-75.666 91.833 -99.999 148.5s-36.5 117 -36.5 181s12.167 124.333 36.5 181s57.666 106.167 99.999 148.5s91.833 75.666 148.5 99.999s117 36.5 181 36.5z" />
    <glyph glyph-name="cid210" unicode="&#x2464;" horiz-adv-x="1000" 
d="M500 -86c-64 0 -124.333 12.1689 -181 36.502s-106.167 57.666 -148.5 99.999s-75.666 91.833 -99.999 148.5s-36.5 117 -36.5 181s12.167 124.333 36.5 181s57.666 106.167 99.999 148.5s91.833 75.666 148.5 99.999s117 36.5 181 36.5s124.333 -12.167 181 -36.5
s106.167 -57.666 148.5 -99.999s75.666 -91.833 99.999 -148.5s36.5 -117 36.5 -181c0 -64.667 -12.333 -125.334 -37 -182.001s-58.167 -106 -100.5 -148s-91.666 -75.167 -147.999 -99.5s-116.5 -36.5 -180.5 -36.5zM500 -53.998c60 0 116.333 11.333 169 34
s98.667 53.667 138 93s70.333 85.333 93 138s34 109 34 169s-11.333 116.333 -34 169s-53.667 98.667 -93 138s-85.333 70.333 -138 93s-109 34 -169 34c-60.667 0 -117.334 -11.5 -170 -34.5c-52.667 -23 -98.5 -54.167 -137.5 -93.5s-69.833 -85.333 -92.5 -138
s-34 -108.667 -34 -168c0 -60 11.333 -116.333 34 -169s53.667 -98.667 93 -138s85.333 -70.333 138 -93s109 -34 169 -34zM498 115.002c-45.333 0 -82.833 7.16602 -112.5 21.499s-54.5 30.833 -74.5 49.5l39 54c16.667 -14.667 36.334 -28.167 59.001 -40.5
s51 -18.5 85 -18.5c33.333 0 61.166 9.83301 83.499 29.5s33.5 46.5 33.5 80.5c0 32.667 -10.667 58.667 -32 78s-49 29 -83 29c-20 0 -37.167 -3 -51.5 -9s-29.833 -14.333 -46.5 -25l-42 26l18 255h292v-70h-222l-13 -140c12.667 5.33691 26 10.1699 40 14.5
c14 4.33301 29 6.5 45 6.5c24.6689 0 47.8359 -3.33301 69.5 -10c21.667 -6.66699 40.5 -16.667 56.5 -30s28.667 -30.166 38 -50.499s14 -44.5 14 -72.5s-5.5 -53.167 -16.5 -75.5s-25.5 -41 -43.5 -56s-38.833 -26.5 -62.5 -34.5s-48.167 -12 -73.5 -12z" />
    <glyph glyph-name="cid211" unicode="&#x2465;" horiz-adv-x="1000" 
d="M502 179c26.667 0 49.501 9.5 68.501 28.5s28.5 43.833 28.5 74.5c0 32 -8.83301 57.167 -26.5 75.5s-43.834 27.5 -78.501 27.5c-17.333 0 -36.5 -4.83301 -57.5 -14.5s-41.167 -26.167 -60.5 -49.5c5.33496 -48.667 18.668 -84.5 40 -107.5
c21.333 -23 50 -34.5 86 -34.5zM620.001 549c-11.3359 12 -25.668 21.667 -42.999 29c-17.333 7.33301 -35.333 11 -54 11c-20 0 -38.667 -3.5 -56 -10.5s-32.833 -18.667 -46.5 -35s-24.667 -37.666 -33 -63.999s-12.833 -58.833 -13.5 -97.5
c18 19.333 39.333 34.833 64 46.5s49.667 17.5 75 17.5c49.333 0 89 -13.5 119 -40.5s45 -67.5 45 -121.5c0 -26 -4.66699 -49.333 -14 -70s-22 -38.334 -38 -53.001s-34.667 -26 -56 -34s-44 -12 -68 -12c-29.333 0 -56.333 5.16699 -81 15.5s-46.334 25.833 -65.001 46.5
s-33.167 46.834 -43.5 78.501s-15.5 69.167 -15.5 112.5c0 51.334 6.16699 95.167 18.5 131.5s28.833 66.166 49.5 89.499s44.667 40.5 72 51.5c27.334 11 55.667 16.5 85 16.5c32.667 0 60.667 -5.5 84 -16.5s43.333 -24.5 60 -40.5zM500.002 -54
c60 0 116.333 11.333 169 34s98.667 53.667 138 93s70.333 85.333 93 138s34 109 34 169s-11.333 116.333 -34 169s-53.667 98.667 -93 138s-85.333 70.333 -138 93s-109 34 -169 34c-60.667 0 -117.334 -11.5 -170 -34.5c-52.667 -23 -98.5 -54.167 -137.5 -93.5
s-69.833 -85.333 -92.5 -138s-34 -108.667 -34 -168c0 -60 11.333 -116.333 34 -169s53.667 -98.667 93 -138s85.333 -70.333 138 -93s109 -34 169 -34zM500.002 846c64 0 124.333 -12.165 181 -36.498s106.167 -57.666 148.5 -99.999s75.666 -91.833 99.999 -148.5
s36.5 -117 36.5 -181c0 -64.667 -12.333 -125.334 -37 -182.001s-58.167 -106 -100.5 -148s-91.666 -75.167 -147.999 -99.5s-116.5 -36.5 -180.5 -36.5s-124.333 12.167 -181 36.5s-106.167 57.666 -148.5 99.999s-75.666 91.833 -99.999 148.5s-36.5 117 -36.5 181
s12.167 124.333 36.5 181s57.666 106.167 99.999 148.5s91.833 75.666 148.5 99.999s117 36.5 181 36.5z" />
    <glyph glyph-name="cid212" unicode="&#x2466;" horiz-adv-x="1000" 
d="M500 -86c-64 0 -124.333 12.1689 -181 36.502s-106.167 57.666 -148.5 99.999s-75.666 91.833 -99.999 148.5s-36.5 117 -36.5 181s12.167 124.333 36.5 181s57.666 106.167 99.999 148.5s91.833 75.666 148.5 99.999s117 36.5 181 36.5s124.333 -12.167 181 -36.5
s106.167 -57.666 148.5 -99.999s75.666 -91.833 99.999 -148.5s36.5 -117 36.5 -181c0 -64.667 -12.333 -125.334 -37 -182.001s-58.167 -106 -100.5 -148s-91.666 -75.167 -147.999 -99.5s-116.5 -36.5 -180.5 -36.5zM500 -53.998c60 0 116.333 11.333 169 34
s98.667 53.667 138 93s70.333 85.333 93 138s34 109 34 169s-11.333 116.333 -34 169s-53.667 98.667 -93 138s-85.333 70.333 -138 93s-109 34 -169 34c-60.667 0 -117.334 -11.5 -170 -34.5c-52.667 -23 -98.5 -54.167 -137.5 -93.5s-69.833 -85.333 -92.5 -138
s-34 -108.667 -34 -168c0 -60 11.333 -116.333 34 -169s53.667 -98.667 93 -138s85.333 -70.333 138 -93s109 -34 169 -34zM428 127.002c2.66699 47.333 7.33398 90.6689 14.001 130.002s16.167 76.833 28.5 112.5c12.334 35.667 28.167 70 47.499 103
c19.333 33 43 67.167 71 102.5h-270v70h364v-50c-33.333 -38.667 -60.5 -75.334 -81.5 -110.001s-37.667 -70 -50 -106c-12.3379 -36 -21.1709 -74.333 -26.5 -115c-5.33301 -40.667 -9.33301 -86.334 -12 -137.001h-85z" />
    <glyph glyph-name="cid213" unicode="&#x2467;" horiz-adv-x="1000" 
d="M500 -86c-64 0 -124.333 12.1689 -181 36.502s-106.167 57.666 -148.5 99.999s-75.666 91.833 -99.999 148.5s-36.5 117 -36.5 181s12.167 124.333 36.5 181s57.666 106.167 99.999 148.5s91.833 75.666 148.5 99.999s117 36.5 181 36.5s124.333 -12.167 181 -36.5
s106.167 -57.666 148.5 -99.999s75.666 -91.833 99.999 -148.5s36.5 -117 36.5 -181c0 -64.667 -12.333 -125.334 -37 -182.001s-58.167 -106 -100.5 -148s-91.666 -75.167 -147.999 -99.5s-116.5 -36.5 -180.5 -36.5zM500 -53.998c60 0 116.333 11.333 169 34
s98.667 53.667 138 93s70.333 85.333 93 138s34 109 34 169s-11.333 116.333 -34 169s-53.667 98.667 -93 138s-85.333 70.333 -138 93s-109 34 -169 34c-60.667 0 -117.334 -11.5 -170 -34.5c-52.667 -23 -98.5 -54.167 -137.5 -93.5s-69.833 -85.333 -92.5 -138
s-34 -108.667 -34 -168c0 -60 11.333 -116.333 34 -169s53.667 -98.667 93 -138s85.333 -70.333 138 -93s109 -34 169 -34zM500 115.002c-28 0 -53.665 3.49805 -76.998 10.498s-43.5 16.833 -60.5 29.5s-30.333 27.667 -40 45s-14.5 36 -14.5 56
c0 17.333 3.16699 33 9.5 47s14.5 26.833 24.5 38.5s21.5 21.834 34.5 30.501s26.167 16.334 39.5 23.001v4c-22 13.333 -41.167 30 -57.5 50s-24.5 43.667 -24.5 71c0 20.667 4.33301 39.5 13 56.5s20.5 31.5 35.5 43.5s32.667 21.167 53 27.5
c20.334 6.33301 42.167 9.5 65.5 9.5c52.667 0 93.834 -13 123.5 -39c29.667 -26 44.5 -59 44.5 -99c0 -14 -2.5 -27.333 -7.5 -40s-11.167 -24.167 -18.5 -34.5s-15.833 -19.833 -25.5 -28.5s-18.834 -16 -27.501 -22v-3c12.667 -7.33301 25.167 -15 37.5 -23
s23.166 -17.333 32.499 -28c9.33301 -10.668 16.833 -22.835 22.5 -36.5c5.66699 -13.667 8.5 -29.167 8.5 -46.5c0 -20 -4.66699 -38.667 -14 -56s-22.333 -32.333 -39 -45s-36.667 -22.667 -60 -30s-49.333 -11 -78 -11zM538.002 413
c18.6709 14.667 33.3379 30.499 44 47.499c10.667 17 16 34.167 16 51.5c0 24.667 -8.66699 45.167 -26 61.5c-17.334 16.333 -41.667 24.5 -73 24.5c-26.667 0 -48.5 -7 -65.5 -21s-25.5 -33 -25.5 -57c0 -14 3.5 -26.5 10.5 -37.5s16.5 -20.667 28.5 -29
s25.833 -15.666 41.5 -21.999s32.167 -12.5 49.5 -18.5zM503.002 174.999c33.333 0 60.167 7.5 80.5 22.5s30.5 35.5 30.5 61.5c0 15.334 -3.83301 28.667 -11.5 40s-18.334 21.333 -32.001 30s-29.667 16.5 -48 23.5s-37.833 14.167 -58.5 21.5
c-22 -12.667 -41.167 -27.834 -57.5 -45.5c-16.333 -17.667 -24.5 -38.167 -24.5 -61.5c0 -13.334 3.16699 -25.667 9.5 -37s14.833 -21 25.5 -29s23.334 -14.333 38.001 -19s30.667 -7 48 -7z" />
    <glyph glyph-name="cid214" unicode="&#x2468;" horiz-adv-x="1000" 
d="M504 385c18 0 37.332 5 57.999 15c20.668 10 40.335 26.667 59.001 50c-5.33301 48 -18.5 84 -39.5 108s-49.167 36 -84.5 36c-26 0 -48.333 -9.5 -67 -28.5s-28 -44.5 -28 -76.5c0 -33.333 8.5 -59 25.5 -77s42.5 -27 76.5 -27zM378.999 221
c11.334 -11.334 25.6699 -20.668 43.0029 -28.001s35.666 -11 54.999 -11s37.666 3.66699 54.999 11s32.5 19.166 45.5 35.499s23.5 37.666 31.5 63.999s12.667 58.5 14 96.5c-17.333 -19.333 -38 -34.666 -62 -45.999s-48.333 -17 -73 -17
c-48.667 0 -88.334 13.333 -119 40c-30.667 26.667 -46 67.334 -46 122.001c0 25.333 4.66699 48.5 14 69.5s21.833 38.833 37.5 53.5s34 26 55 34s43.5 12 67.5 12c28.667 0 55.5 -5.16699 80.5 -15.5s46.667 -25.833 65 -46.5s32.666 -47 42.999 -79
s15.5 -69.333 15.5 -112c0 -52 -6.16699 -96.167 -18.5 -132.5c-12.3359 -36.333 -28.6689 -66.166 -49 -89.499c-20.333 -23.333 -44 -40.333 -71 -51s-54.833 -16 -83.5 -16c-32.667 0 -61 5.33301 -85 16s-44 24 -60 40zM500.002 -54.001c60 0 116.333 11.333 169 34
s98.667 53.667 138 93s70.333 85.333 93 138s34 109 34 169s-11.333 116.333 -34 169s-53.667 98.667 -93 138s-85.333 70.333 -138 93s-109 34 -169 34c-60.667 0 -117.334 -11.5 -170 -34.5c-52.667 -23 -98.5 -54.167 -137.5 -93.5s-69.833 -85.333 -92.5 -138
s-34 -108.667 -34 -168c0 -60 11.333 -116.333 34 -169s53.667 -98.667 93 -138s85.333 -70.333 138 -93s109 -34 169 -34zM500.002 845.999c64 0 124.333 -12.165 181 -36.498s106.167 -57.666 148.5 -99.999s75.666 -91.833 99.999 -148.5s36.5 -117 36.5 -181
c0 -64.667 -12.333 -125.334 -37 -182.001s-58.167 -106 -100.5 -148s-91.666 -75.167 -147.999 -99.5s-116.5 -36.5 -180.5 -36.5s-124.333 12.167 -181 36.5s-106.167 57.666 -148.5 99.999s-75.666 91.833 -99.999 148.5s-36.5 117 -36.5 181s12.167 124.333 36.5 181
s57.666 106.167 99.999 148.5s91.833 75.666 148.5 99.999s117 36.5 181 36.5z" />
    <glyph glyph-name="cid215" unicode="&#x2469;" horiz-adv-x="1000" 
d="M500 -86c-64 0 -124.333 12.1689 -181 36.502s-106.167 57.666 -148.5 99.999s-75.666 91.833 -99.999 148.5s-36.5 117 -36.5 181s12.167 124.333 36.5 181s57.666 106.167 99.999 148.5s91.833 75.666 148.5 99.999s117 36.5 181 36.5s124.333 -12.167 181 -36.5
s106.167 -57.666 148.5 -99.999s75.666 -91.833 99.999 -148.5s36.5 -117 36.5 -181c0 -64.667 -12.333 -125.334 -37 -182.001s-58.167 -106 -100.5 -148s-91.666 -75.167 -147.999 -99.5s-116.5 -36.5 -180.5 -36.5zM500 -53.998c60 0 116.333 11.333 169 34
s98.667 53.667 138 93s70.333 85.333 93 138s34 109 34 169s-11.333 116.333 -34 169s-53.667 98.667 -93 138s-85.333 70.333 -138 93s-109 34 -169 34c-60.667 0 -117.334 -11.5 -170 -34.5c-52.667 -23 -98.5 -54.167 -137.5 -93.5s-69.833 -85.333 -92.5 -138
s-34 -108.667 -34 -168c0 -60 11.333 -116.333 34 -169s53.667 -98.667 93 -138s85.333 -70.333 138 -93s109 -34 169 -34zM292 551.002h-85v53c22.667 4.6709 42 10.3379 58 17c16 6.66699 31 14.667 45 24h60v-518h-78v424zM627 115.002
c-24.667 0 -46.998 6.33301 -66.998 19s-37 30.667 -51 54s-24.833 52 -32.5 86s-11.5 72 -11.5 114c0 85.333 14.667 151.5 44 198.5s68.666 70.5 117.999 70.5s88.5 -23.5 117.5 -70.5s43.5 -113.167 43.5 -198.5c0 -42 -3.83301 -80 -11.5 -114s-18.5 -62.667 -32.5 -86
s-30.833 -41.333 -50.5 -54s-41.834 -19 -66.501 -19zM627.002 182.002c24.667 0 44.667 16.667 60 50s23 85.333 23 156s-7.66699 122.167 -23 154.5s-35.333 48.5 -60 48.5s-44.667 -16.167 -60 -48.5s-23 -83.833 -23 -154.5s7.66699 -122.667 23 -156s35.333 -50 60 -50
z" />
    <glyph glyph-name="cid216" unicode="&#x246a;" horiz-adv-x="1000" 
d="M500 -86c-64 0 -124.333 12.1689 -181 36.502s-106.167 57.666 -148.5 99.999s-75.666 91.833 -99.999 148.5s-36.5 117 -36.5 181s12.167 124.333 36.5 181s57.666 106.167 99.999 148.5s91.833 75.666 148.5 99.999s117 36.5 181 36.5s124.333 -12.167 181 -36.5
s106.167 -57.666 148.5 -99.999s75.666 -91.833 99.999 -148.5s36.5 -117 36.5 -181c0 -64.667 -12.333 -125.334 -37 -182.001s-58.167 -106 -100.5 -148s-91.666 -75.167 -147.999 -99.5s-116.5 -36.5 -180.5 -36.5zM500 -53.998c60 0 116.333 11.333 169 34
s98.667 53.667 138 93s70.333 85.333 93 138s34 109 34 169s-11.333 116.333 -34 169s-53.667 98.667 -93 138s-85.333 70.333 -138 93s-109 34 -169 34c-60.667 0 -117.334 -11.5 -170 -34.5c-52.667 -23 -98.5 -54.167 -137.5 -93.5s-69.833 -85.333 -92.5 -138
s-34 -108.667 -34 -168c0 -60 11.333 -116.333 34 -169s53.667 -98.667 93 -138s85.333 -70.333 138 -93s109 -34 169 -34zM338 551.002h-85v53c22.667 4.6709 42 10.3379 58 17c16 6.66699 31.333 14.667 46 24h59v-518h-78v424zM611 551.002h-85v53
c22 4.6709 41.167 10.3379 57.5 17c16.333 6.66699 31.5 14.667 45.5 24h59v-518h-77v424z" />
    <glyph glyph-name="cid217" unicode="&#x246b;" horiz-adv-x="1000" 
d="M500 -86c-64 0 -124.333 12.1689 -181 36.502s-106.167 57.666 -148.5 99.999s-75.666 91.833 -99.999 148.5s-36.5 117 -36.5 181s12.167 124.333 36.5 181s57.666 106.167 99.999 148.5s91.833 75.666 148.5 99.999s117 36.5 181 36.5s124.333 -12.167 181 -36.5
s106.167 -57.666 148.5 -99.999s75.666 -91.833 99.999 -148.5s36.5 -117 36.5 -181c0 -64.667 -12.333 -125.334 -37 -182.001s-58.167 -106 -100.5 -148s-91.666 -75.167 -147.999 -99.5s-116.5 -36.5 -180.5 -36.5zM500 -53.998c60 0 116.333 11.333 169 34
s98.667 53.667 138 93s70.333 85.333 93 138s34 109 34 169s-11.333 116.333 -34 169s-53.667 98.667 -93 138s-85.333 70.333 -138 93s-109 34 -169 34c-60.667 0 -117.334 -11.5 -170 -34.5c-52.667 -23 -98.5 -54.167 -137.5 -93.5s-69.833 -85.333 -92.5 -138
s-34 -108.667 -34 -168c0 -60 11.333 -116.333 34 -169s53.667 -98.667 93 -138s85.333 -70.333 138 -93s109 -34 169 -34zM292 551.002h-84.999v53c22 4.6709 41.167 10.3379 57.5 17c16.333 6.66699 31.166 14.667 44.499 24h60v-518h-77v424zM474.001 175.002
c31.333 36.667 59.501 70.165 84.501 100.498s46.167 58.5 63.5 84.5s30.666 50 39.999 72s14 43.333 14 64c0 29.333 -6.33301 52.5 -19 69.5s-31.667 25.5 -57 25.5c-17.333 0 -33.333 -5.16699 -48 -15.5c-14.667 -10.334 -27.667 -23.167 -39 -38.499l-44 43
c20 25.333 41.5 44.5 64.5 57.5s48.5 19.5 76.5 19.5c43.333 0 77.5 -14.167 102.5 -42.5s37.5 -65.833 37.5 -112.5c0 -24 -4.5 -48.167 -13.5 -72.5s-21.167 -49.166 -36.5 -74.499s-33.333 -51.5 -54 -78.5s-42.667 -54.833 -66 -83.5c12 1.33301 25 2.33301 39 3
s27.667 1 41 1h108v-70h-294v48z" />
    <glyph glyph-name="cid218" unicode="&#x246c;" horiz-adv-x="1000" 
d="M500 -86c-64 0 -124.333 12.1689 -181 36.502s-106.167 57.666 -148.5 99.999s-75.666 91.833 -99.999 148.5s-36.5 117 -36.5 181s12.167 124.333 36.5 181s57.666 106.167 99.999 148.5s91.833 75.666 148.5 99.999s117 36.5 181 36.5s124.333 -12.167 181 -36.5
s106.167 -57.666 148.5 -99.999s75.666 -91.833 99.999 -148.5s36.5 -117 36.5 -181c0 -64.667 -12.333 -125.334 -37 -182.001s-58.167 -106 -100.5 -148s-91.666 -75.167 -147.999 -99.5s-116.5 -36.5 -180.5 -36.5zM500 -53.998c60 0 116.333 11.333 169 34
s98.667 53.667 138 93s70.333 85.333 93 138s34 109 34 169s-11.333 116.333 -34 169s-53.667 98.667 -93 138s-85.333 70.333 -138 93s-109 34 -169 34c-60.667 0 -117.334 -11.5 -170 -34.5c-52.667 -23 -98.5 -54.167 -137.5 -93.5s-69.833 -85.333 -92.5 -138
s-34 -108.667 -34 -168c0 -60 11.333 -116.333 34 -169s53.667 -98.667 93 -138s85.333 -70.333 138 -93s109 -34 169 -34zM294 551.002h-86v53c22.667 4.6709 42 10.3379 58 17c16 6.66699 31 14.667 45 24h60v-518h-77v424zM610 115.002
c-34 0 -63.668 6.83105 -89.001 20.498s-45.666 30.167 -60.999 49.5l40 50c14 -15.334 29.667 -28.167 47 -38.5s38 -15.5 62 -15.5c23.333 0 42.666 8 57.999 24s23 37.333 23 64c0 14.667 -2.16699 27.834 -6.5 39.501c-4.33887 11.667 -11.6719 21.667 -22 30
c-10.333 8.33301 -24.333 14.833 -42 19.5s-39.5 7 -65.5 7v61c44.667 0 76 8.33301 94 25s27 38 27 64c0 24 -6.33301 42.833 -19 56.5s-29.667 20.5 -51 20.5c-32 0 -61 -15 -87 -45l-43 48c18.667 19.333 39 34.5 61 45.5s46.667 16.5 74 16.5
c42 0 76.167 -11.833 102.5 -35.5s39.5 -57.5 39.5 -101.5c0 -30 -7.33301 -54.667 -22 -74s-34 -34.666 -58 -45.999v-3c27.333 -8.66699 50.333 -23.834 69 -45.5c18.667 -21.667 28 -50.5 28 -86.5c0 -23.334 -4.16699 -44.167 -12.5 -62.5
c-8.33594 -18.333 -19.6689 -34 -33.999 -47c-14.3359 -13 -31.1689 -23 -50.5 -30c-19.333 -7 -40 -10.5 -62 -10.5z" />
    <glyph glyph-name="cid219" unicode="&#x246d;" horiz-adv-x="1000" 
d="M207 604c22 4.6709 41.168 10.3379 57.501 17c16.333 6.66699 31.166 14.667 44.499 24h60v-518h-77v424h-85v53zM653.001 328l0.00292969 131.999c0 14.667 0.166992 31.834 0.5 51.501s1.16602 37.167 2.49902 52.5h-4c-6.66699 -14 -12.334 -25.833 -17.001 -35.5
s-10.334 -21.5 -17.001 -35.5l-91 -165h126zM725.004 327.999h58v-63h-58v-138h-72v138h-200v55l182 325h90v-317zM500.004 -54.001c60 0 116.333 11.333 169 34s98.667 53.667 138 93s70.333 85.333 93 138s34 109 34 169s-11.333 116.333 -34 169s-53.667 98.667 -93 138
s-85.333 70.333 -138 93s-109 34 -169 34c-60.667 0 -117.334 -11.5 -170 -34.5c-52.667 -23 -98.5 -54.167 -137.5 -93.5s-69.833 -85.333 -92.5 -138s-34 -108.667 -34 -168c0 -60 11.333 -116.333 34 -169s53.667 -98.667 93 -138s85.333 -70.333 138 -93
s109 -34 169 -34zM500.004 845.999c64 0 124.333 -12.165 181 -36.498s106.167 -57.666 148.5 -99.999s75.666 -91.833 99.999 -148.5s36.5 -117 36.5 -181c0 -64.667 -12.333 -125.334 -37 -182.001s-58.167 -106 -100.5 -148s-91.666 -75.167 -147.999 -99.5
s-116.5 -36.5 -180.5 -36.5s-124.333 12.167 -181 36.5s-106.167 57.666 -148.5 99.999s-75.666 91.833 -99.999 148.5s-36.5 117 -36.5 181s12.167 124.333 36.5 181s57.666 106.167 99.999 148.5s91.833 75.666 148.5 99.999s117 36.5 181 36.5z" />
    <glyph glyph-name="cid220" unicode="&#x246e;" horiz-adv-x="1000" 
d="M500 -86c-64 0 -124.333 12.1689 -181 36.502s-106.167 57.666 -148.5 99.999s-75.666 91.833 -99.999 148.5s-36.5 117 -36.5 181s12.167 124.333 36.5 181s57.666 106.167 99.999 148.5s91.833 75.666 148.5 99.999s117 36.5 181 36.5s124.333 -12.167 181 -36.5
s106.167 -57.666 148.5 -99.999s75.666 -91.833 99.999 -148.5s36.5 -117 36.5 -181c0 -64.667 -12.333 -125.334 -37 -182.001s-58.167 -106 -100.5 -148s-91.666 -75.167 -147.999 -99.5s-116.5 -36.5 -180.5 -36.5zM500 -53.998c60 0 116.333 11.333 169 34
s98.667 53.667 138 93s70.333 85.333 93 138s34 109 34 169s-11.333 116.333 -34 169s-53.667 98.667 -93 138s-85.333 70.333 -138 93s-109 34 -169 34c-60.667 0 -117.334 -11.5 -170 -34.5c-52.667 -23 -98.5 -54.167 -137.5 -93.5s-69.833 -85.333 -92.5 -138
s-34 -108.667 -34 -168c0 -60 11.333 -116.333 34 -169s53.667 -98.667 93 -138s85.333 -70.333 138 -93s109 -34 169 -34zM292 551.002h-84.999v53c22 4.6709 41.167 10.3379 57.5 17c16.333 6.66699 31.166 14.667 44.499 24h60v-518h-77v424zM614.001 115.002
c-36 0 -65.998 6.99902 -89.998 20.999s-44.333 30 -61 48l36 53c13.333 -14 28.666 -26.833 45.999 -38.5s38.666 -17.5 63.999 -17.5c24.6689 0 45.3359 9.83301 62 29.5c16.667 19.667 25 46.5 25 80.5c0 32.667 -7.66699 58.667 -23 78
c-15.3359 19.333 -35.6689 29 -61 29c-15.333 0 -28.5 -3 -39.5 -9s-22.833 -14.333 -35.5 -25l-37 26l13 255h239v-70h-174l-8 -140c9.33301 5.33691 19.333 10.1699 30 14.5c10.667 4.33301 21.667 6.5 33 6.5c19.333 0 37.5 -3.33301 54.5 -10s32 -16.667 45 -30
s23.167 -30.166 30.5 -50.499s11 -44.5 11 -72.5s-4.5 -53.167 -13.5 -75.5s-20.833 -41 -35.5 -56s-31.667 -26.5 -51 -34.5s-39.333 -12 -60 -12z" />
    <glyph glyph-name="cid221" unicode="&#x2474;" horiz-adv-x="1000" 
d="M157 -75c-44.667 67.333 -76.668 137.832 -96.001 211.499s-29 154.834 -29 243.501c0 88 9.66699 169 29 243s51.333 144.667 96 212l45 -14c-41.333 -64.667 -70.166 -134.167 -86.499 -208.5c-16.333 -74.334 -24.5 -151.834 -24.5 -232.5
c0.666992 -81.333 9 -159 25 -233s44.667 -143.333 86 -208zM323.999 87.999h155v527h-124v59c32 5.33301 59.5 12.333 82.5 21s44.167 19 63.5 31h69v-638h141v-76h-387v76zM797.999 -61.001c41.333 64.667 70 134.001 86 208.001s24.333 151.667 25 233
c0 80.667 -8.16699 158.167 -24.5 232.5c-16.335 74.333 -45.168 143.833 -86.5 208.5l45 14c44.667 -67.333 76.667 -138 96 -212s29 -155 29 -243c0 -88.667 -9.66699 -169.834 -29 -243.501s-51.333 -144.167 -96 -211.5z" />
    <glyph glyph-name="cid222" unicode="&#x2475;" horiz-adv-x="1000" 
d="M157 -75c-44.667 67.333 -76.668 137.832 -96.001 211.499s-29 154.834 -29 243.501c0 88 9.66699 169 29 243s51.333 144.667 96 212l45 -14c-41.333 -64.667 -70.166 -134.167 -86.499 -208.5c-16.333 -74.334 -24.5 -151.834 -24.5 -232.5
c0.666992 -81.333 9 -159 25 -233s44.667 -143.333 86 -208zM292.999 64.999c50.667 52.667 96 100.834 136 144.501s73.833 84 101.5 121s48.667 71.333 63 103s21.5 62.167 21.5 91.5c0 40.667 -10.333 74 -31 100s-53 39 -97 39c-29.333 0 -56.833 -7.83301 -82.5 -23.5
s-47.5 -35.834 -65.5 -60.501l-54 52c28 33.333 59 59.5 93 78.5s74 28.5 120 28.5c32.667 0 61.834 -5 87.5 -15c25.668 -10 47.335 -24.167 65 -42.5c17.667 -18.333 31.167 -40.333 40.5 -66s14 -54.5 14 -86.5c0 -33.333 -7.16699 -67.333 -21.5 -102
s-34 -70.167 -59 -106.5s-54.5 -74.166 -88.5 -113.499s-71 -80.333 -111 -123c19.333 1.33301 39 2.66602 59 3.99902s39 2 57 2h197v-78h-445v53zM797.999 -61.001c41.333 64.667 70 134.001 86 208.001s24.333 151.667 25 233c0 80.667 -8.16699 158.167 -24.5 232.5
c-16.335 74.333 -45.168 143.833 -86.5 208.5l45 14c44.667 -67.333 76.667 -138 96 -212s29 -155 29 -243c0 -88.667 -9.66699 -169.834 -29 -243.501s-51.333 -144.167 -96 -211.5z" />
    <glyph glyph-name="cid223" unicode="&#x2476;" horiz-adv-x="1000" 
d="M157 -75c-44.667 67.333 -76.668 137.832 -96.001 211.499s-29 154.834 -29 243.501c0 88 9.66699 169 29 243s51.333 144.667 96 212l45 -14c-41.333 -64.667 -70.166 -134.167 -86.499 -208.5c-16.333 -74.334 -24.5 -151.834 -24.5 -232.5
c0.666992 -81.333 9 -159 25 -233s44.667 -143.333 86 -208zM494.999 -1.00098c-54 0 -100.164 10 -138.497 30s-68.166 43.667 -89.499 71l47 58c19.333 -23.333 43.5 -42.833 72.5 -58.5s62.5 -23.5 100.5 -23.5c20.667 0 39.667 3 57 9s32.5 14.5 45.5 25.5
s23.167 24.667 30.5 41s11 34.5 11 54.5c0 22 -3.83301 41.667 -11.5 59s-20.334 32 -38.001 44s-40.5 21.333 -68.5 28s-62 10 -102 10v70c36 0 66.5 3.5 91.5 10.5s45.333 16.667 61 29c15.667 12.335 27 26.668 34 42.999c7 16.333 10.5 33.5 10.5 51.5
c0 36 -10.833 63.833 -32.5 83.5s-50.5 29.5 -86.5 29.5c-28 0 -54.333 -6.33301 -79 -19s-46.667 -30 -66 -52l-50 57c25.333 26.667 54.833 48.167 88.5 64.5s70.5 24.5 110.5 24.5c30.667 0 58.667 -4 84 -12s47.166 -19.667 65.499 -35
c18.333 -15.3359 32.5 -34.1689 42.5 -56.5c10 -22.333 15 -47.833 15 -76.5c0 -43.334 -11.5 -78.834 -34.5 -106.5c-23 -27.667 -55.5 -48.834 -97.5 -63.5v-4c45.333 -11.333 82.666 -32.333 111.999 -63s44 -70.667 44 -120c0 -32 -6 -60.5 -18 -85.5
s-28.333 -46.167 -49 -63.5s-44.834 -30.666 -72.501 -39.999s-57.5 -14 -89.5 -14zM798.002 -61.001c41.333 64.667 70 134.001 86 208.001s24.333 151.667 25 233c0 80.667 -8.16699 158.167 -24.5 232.5c-16.335 74.333 -45.168 143.833 -86.5 208.5l45 14
c44.667 -67.333 76.667 -138 96 -212s29 -155 29 -243c0 -88.667 -9.66699 -169.834 -29 -243.501s-51.333 -144.167 -96 -211.5z" />
    <glyph glyph-name="cid224" unicode="&#x2477;" horiz-adv-x="1000" 
d="M202 821c-41.333 -64.667 -70.167 -134.168 -86.5 -208.501c-16.333 -74.334 -24.5 -151.834 -24.5 -232.5c0.666992 -81.333 9 -159 25 -233s44.667 -143.333 86 -208l-45 -14c-44.667 67.333 -76.667 137.833 -96 211.5s-29 154.834 -29 243.501
c0 88 9.66699 169 29 243s51.333 144.667 96 212zM554.999 282.999v221.003c0 19.333 0.333008 39.666 1 60.999s1.66699 43.666 3 66.999h-4c-10.667 -18.667 -20.167 -36.334 -28.5 -53.001s-17.833 -34 -28.5 -52l-158 -244h215zM641.999 283.002h96v-73h-96v-198h-87
v198h-308v61l292 455h103v-443zM842.999 835.002c44.667 -67.333 76.667 -137.999 96 -211.999s29 -155 29 -243c0 -88.667 -9.66699 -169.834 -29 -243.501s-51.333 -144.167 -96 -211.5l-45 14c41.333 64.667 70 134 86 208s24.333 151.667 25 233
c0 80.667 -8.16699 158.167 -24.5 232.5c-16.335 74.333 -45.168 143.833 -86.5 208.5z" />
    <glyph glyph-name="cid225" unicode="&#x2478;" horiz-adv-x="1000" 
d="M157 -75c-44.667 67.333 -76.668 137.832 -96.001 211.499s-29 154.834 -29 243.501c0 88 9.66699 169 29 243s51.333 144.667 96 212l45 -14c-41.333 -64.667 -70.166 -134.167 -86.499 -208.5c-16.333 -74.334 -24.5 -151.834 -24.5 -232.5
c0.666992 -81.333 9 -159 25 -233s44.667 -143.333 86 -208zM484.999 -2.00098c-27.333 0 -52.166 2.66699 -74.499 8s-42.666 12.5 -60.999 21.5s-34.833 19.5 -49.5 31.5s-28 24.333 -40 37l46 59c19.333 -21.333 42.5 -40 69.5 -56s60.5 -24 100.5 -24
c21.334 0 41.334 3.83301 60 11.5c18.667 7.66699 35 18.5 49 32.5s25 31 33 51s12 42.667 12 68c0 49.333 -13.333 88 -40 116s-62 42 -106 42c-24 0 -44.5 -3.66699 -61.5 -11s-35.5 -18.333 -55.5 -33l-48 30l23 344h347v-79h-267l-20 -213
c17.334 10.667 34.167 18.334 50.499 23.001c16.334 4.66699 36.167 7 59.5 7c28.6689 0 55.8359 -4.33301 81.5 -13c25.667 -8.66699 48 -22.167 67 -40.5s34.167 -41.5 45.5 -69.5s17 -61.333 17 -100s-6.66699 -73.167 -20 -103.5s-31 -55.833 -53 -76.5
s-47.333 -36.334 -76 -47.001s-58.334 -16 -89.001 -16zM797.999 -61.001c41.333 64.667 70 134.001 86 208.001s24.333 151.667 25 233c0 80.667 -8.16699 158.167 -24.5 232.5c-16.335 74.333 -45.168 143.833 -86.5 208.5l45 14c44.667 -67.333 76.667 -138 96 -212
s29 -155 29 -243c0 -88.667 -9.66699 -169.834 -29 -243.501s-51.333 -144.167 -96 -211.5z" />
    <glyph glyph-name="cid226" unicode="&#x2479;" horiz-adv-x="1000" 
d="M202 821c-41.333 -64.667 -70.167 -134.168 -86.5 -208.501c-16.333 -74.334 -24.5 -151.834 -24.5 -232.5c0.666992 -81.333 9 -159 25 -233s44.667 -143.333 86 -208l-45 -14c-44.667 67.333 -76.667 137.833 -96 211.5s-29 154.834 -29 243.501
c0 88 9.66699 169 29 243s51.333 144.667 96 212zM517.999 71.999c18 0 34.499 3.66602 49.499 10.999s28 17.833 39 31.5s19.667 30 26 49s9.5 40.167 9.5 63.5c0 50 -11 87.667 -33 113s-53 38 -93 38c-22 0 -46.167 -6.66699 -72.5 -20s-51.166 -37.666 -74.499 -72.999
c6 -70 22 -123 48 -159s59.667 -54 101 -54zM664.998 606.998c-14 18 -31.834 31.6631 -53.501 40.9961s-44.167 14 -67.5 14c-23.334 0 -45.501 -5.16699 -66.5 -15.5c-21 -10.333 -39.5 -27.333 -55.5 -51s-29 -55 -39 -94s-15.333 -86.833 -16 -143.5
c21.333 28.667 47 50.834 77 66.501s59.333 23.5 88 23.5c58.667 0 106 -18.5 142 -55.5s54 -92.167 54 -165.5c0 -34 -5.5 -65 -16.5 -93s-26 -52 -45 -72s-41.167 -35.5 -66.5 -46.5s-52.333 -16.5 -81 -16.5c-33.333 0 -64.5 7.16699 -93.5 21.5
s-54.167 35.833 -75.5 64.5s-38.166 64.334 -50.499 107.001s-18.5 92.334 -18.5 149.001c0 72 7.16699 133.333 21.5 184c14.333 50.668 33.333 91.835 57 123.501c23.667 31.667 51 54.667 82 69s63.5 21.5 97.5 21.5c40 0 74.667 -7 104 -21s54 -32 74 -54z
M842.997 834.994c44.667 -67.333 76.667 -137.999 96 -211.999s29 -155 29 -243c0 -88.667 -9.66699 -169.834 -29 -243.501s-51.333 -144.167 -96 -211.5l-45 14c41.333 64.667 70 134 86 208s24.333 151.667 25 233c0 80.667 -8.16699 158.167 -24.5 232.5
c-16.335 74.333 -45.168 143.833 -86.5 208.5z" />
    <glyph glyph-name="cid227" unicode="&#x247a;" horiz-adv-x="1000" 
d="M157 -75c-44.667 67.333 -76.668 137.832 -96.001 211.499s-29 154.834 -29 243.501c0 88 9.66699 169 29 243s51.333 144.667 96 212l45 -14c-41.333 -64.667 -70.166 -134.167 -86.499 -208.5c-16.333 -74.334 -24.5 -151.834 -24.5 -232.5
c0.666992 -81.333 9 -159 25 -233s44.667 -143.333 86 -208zM413.999 11.999c2.66699 67.333 8.33203 129 16.999 185s21 109 37 159s35.667 98.667 59 146s51 96.333 83 147h-329v77h429v-56c-38 -54.667 -69.333 -106.5 -94 -155.5s-44.667 -99 -60 -150
c-15.335 -51 -26.668 -105 -33.999 -162c-7.33691 -57 -12.3369 -120.5 -15 -190.5h-93zM797.997 -61.001c41.333 64.667 70 134.001 86 208.001s24.333 151.667 25 233c0 80.667 -8.16699 158.167 -24.5 232.5c-16.335 74.333 -45.168 143.833 -86.5 208.5l45 14
c44.667 -67.333 76.667 -138 96 -212s29 -155 29 -243c0 -88.667 -9.66699 -169.834 -29 -243.501s-51.333 -144.167 -96 -211.5z" />
    <glyph glyph-name="cid228" unicode="&#x247b;" horiz-adv-x="1000" 
d="M157 -75c-44.667 67.333 -76.668 137.832 -96.001 211.499s-29 154.834 -29 243.501c0 88 9.66699 169 29 243s51.333 144.667 96 212l45 -14c-41.333 -64.667 -70.166 -134.167 -86.499 -208.5c-16.333 -74.334 -24.5 -151.834 -24.5 -232.5
c0.666992 -81.333 9 -159 25 -233s44.667 -143.333 86 -208zM502.999 -1.00098c-34 0 -65.168 4.83594 -93.501 14.5029s-52.666 23.167 -72.999 40.5s-36.166 38 -47.499 62s-17 50.333 -17 79c0 24.667 3.83301 46.834 11.5 66.5c7.66699 19.667 17.667 37.334 30 53.001
s26.333 29.5 42 41.5s31.834 22.667 48.501 32v4c-29.333 21.334 -53.5 45.167 -72.5 71.499c-19 26.333 -28.5 58.5 -28.5 96.5c0 26.667 5 51.167 15 73.5s24 41.166 42 56.499s39.167 27.333 63.5 36s50.833 13 79.5 13c31.333 0 59.333 -4.5 84 -13.5
s45.667 -21.667 63 -38s30.666 -35.833 39.999 -58.5s14 -47.334 14 -74.001c0 -18 -2.83301 -35.167 -8.5 -51.5s-13.334 -32 -23.001 -47s-20.5 -29.167 -32.5 -42.5s-24.333 -25.666 -37 -36.999v-4c18 -10.667 34.833 -21.667 50.5 -33s29 -24.166 40 -38.499
s19.667 -30.833 26 -49.5s9.5 -40.667 9.5 -66c0 -26.667 -5.16699 -51.334 -15.5 -74.001c-10.3359 -22.667 -25.1689 -42.334 -44.5 -59.001c-19.333 -16.667 -43 -29.834 -71 -39.501s-59.667 -14.5 -95 -14.5zM548.998 401.002
c23.333 24.667 41.666 48.665 54.999 71.998s20 49 20 77c0 16.667 -2.83301 32.5 -8.5 47.5s-13.667 28 -24 39c-10.334 11 -23.167 19.667 -38.5 26c-15.335 6.33301 -32.668 9.5 -51.999 9.5c-32 0 -59 -10 -81 -30s-33 -47.333 -33 -82c0 -20 4 -37.667 12 -53
s19.167 -29.166 33.5 -41.499s31.333 -23.666 51 -33.999s41.5 -20.5 65.5 -30.5zM504.998 67c42.667 0 76.001 10.999 100.001 32.999s36 51.333 36 88c0 24 -4.66699 44.167 -14 60.5s-22.5 30.833 -39.5 43.5s-37 24.334 -60 35.001s-48.167 21.667 -75.5 33
c-13.333 -10 -25.833 -20.333 -37.5 -31s-22 -22.334 -31 -35c-9 -12.667 -16 -26.5 -21 -41.5s-7.5 -31.5 -7.5 -49.5c0 -20 3.66699 -38.333 11 -55c7.33496 -16.667 17.668 -31 31 -43c13.334 -12 29.167 -21.333 47.499 -28c18.333 -6.66699 38.5 -10 60.5 -10z
M797.999 -61.001c41.333 64.667 70 134.001 86 208.001s24.333 151.667 25 233c0 80.667 -8.16699 158.167 -24.5 232.5c-16.335 74.333 -45.168 143.833 -86.5 208.5l45 14c44.667 -67.333 76.667 -138 96 -212s29 -155 29 -243c0 -88.667 -9.66699 -169.834 -29 -243.501
s-51.333 -144.167 -96 -211.5z" />
    <glyph glyph-name="cid229" unicode="&#x247c;" horiz-adv-x="1000" 
d="M202 821c-41.333 -64.667 -70.167 -134.168 -86.5 -208.501c-16.333 -74.334 -24.5 -151.834 -24.5 -232.5c0.666992 -81.333 9 -159 25 -233s44.667 -143.333 86 -208l-45 -14c-44.667 67.333 -76.667 137.833 -96 211.5s-29 154.834 -29 243.501
c0 88 9.66699 169 29 243s51.333 144.667 96 212zM483.999 359.999c22 0 46.168 6.66699 72.501 20c26.333 13.334 51.166 37.667 74.499 73c-6 70.667 -21.833 124 -47.5 160s-59.5 54 -101.5 54c-36 0 -65.5 -14.167 -88.5 -42.5c-23 -28.334 -34.5 -66.167 -34.5 -113.5
c0 -50 10.833 -87.667 32.5 -113s52.5 -38 92.5 -38zM335 131.999c14 -18.667 31.833 -32.667 53.5 -42s44.167 -14 67.5 -14s45.5 5.16699 66.5 15.5s39.5 27.5 55.5 51.5s28.833 55.333 38.5 94s15.167 86.667 16.5 144c-21.333 -28.667 -47 -50.834 -77 -66.5
c-30 -15.667 -59.333 -23.5 -88 -23.5c-58.667 0 -106 18.5 -142 55.5s-54 91.833 -54 164.5c0 34 5.5 65 16.5 93s26 52 45 72s41.167 35.5 66.5 46.5s52 16.5 80 16.5c33.333 0 64.5 -7.16699 93.5 -21.5c29 -14.3359 54.333 -35.6689 76 -64
c21.667 -28.333 38.667 -64 51 -107s18.5 -92.833 18.5 -149.5c0 -72 -7 -133.167 -21 -183.5s-33 -91.5 -57 -123.5s-51.5 -55.167 -82.5 -69.5s-63.5 -21.5 -97.5 -21.5c-40 0 -74.667 7 -104 21s-54 32.333 -74 55zM843 834.999
c44.667 -67.333 76.667 -137.999 96 -211.999s29 -155 29 -243c0 -88.667 -9.66699 -169.834 -29 -243.501s-51.333 -144.167 -96 -211.5l-45 14c41.333 64.667 70 134 86 208s24.333 151.667 25 233c0 80.667 -8.16699 158.167 -24.5 232.5
c-16.335 74.333 -45.168 143.833 -86.5 208.5z" />
    <glyph glyph-name="cid230" unicode="&#x247d;" horiz-adv-x="1000" 
d="M798 -61c41.333 64.667 70 134.001 86 208.001s24.333 151.667 25 233c0 80.667 -8.16699 158.167 -24.5 232.5c-16.335 74.333 -45.168 143.833 -86.5 208.5l45 14c44.667 -67.333 76.667 -138 96 -212s29 -155 29 -243c0 -88.667 -9.66699 -169.834 -29 -243.501
s-51.333 -144.167 -96 -211.5zM642 69.001c16 0 30.333 5.5 43 16.5s23.667 28.5 33 52.5s16.5 55.333 21.5 94s7.5 85.667 7.5 141s-2.5 102 -7.5 140s-12.167 68.667 -21.5 92s-20.333 40 -33 50s-27 15 -43 15c-15.333 0 -29.5 -5 -42.5 -15s-24.167 -26.667 -33.5 -50
s-16.5 -54 -21.5 -92s-7.5 -84.667 -7.5 -140s2.5 -102.333 7.5 -141s12.167 -70 21.5 -94s20.5 -41.5 33.5 -52.5s27.167 -16.5 42.5 -16.5zM642 -0.999023c-26 0 -50 7.16895 -72 21.502s-40.833 36.5 -56.5 66.5s-28 68.667 -37 116s-13.5 104 -13.5 170
s4.5 122.167 13.5 168.5s21.333 84.166 37 113.499s34.5 50.666 56.5 63.999s46 20 72 20s49.833 -6.66699 71.5 -20c21.667 -13.3359 40.5 -34.6689 56.5 -64c16 -29.334 28.333 -67.167 37 -113.5s13 -102.5 13 -168.5s-4.33301 -122.667 -13 -170s-21 -86 -37 -116
s-34.833 -52.167 -56.5 -66.5s-45.5 -21.5 -71.5 -21.5zM293 623.003h-105v51c28 5.33301 52.333 12.5 73 21.5s40 19.167 58 30.5h46v-714h-72v611zM157 -74.9971c-44.667 67.333 -76.668 137.832 -96.001 211.499s-29 154.834 -29 243.501c0 88 9.66699 169 29 243
s51.333 144.667 96 212l45 -14c-41.333 -64.667 -70.166 -134.167 -86.499 -208.5c-16.333 -74.334 -24.5 -151.834 -24.5 -232.5c0.666992 -81.333 9 -159 25 -233s44.667 -143.333 86 -208z" />
    <glyph glyph-name="cid231" unicode="&#x247e;" horiz-adv-x="1000" 
d="M798 -61c41.333 64.667 70 134.001 86 208.001s24.333 151.667 25 233c0 80.667 -8.16699 158.167 -24.5 232.5c-16.335 74.333 -45.168 143.833 -86.5 208.5l45 14c44.667 -67.333 76.667 -138 96 -212s29 -155 29 -243c0 -88.667 -9.66699 -169.834 -29 -243.501
s-51.333 -144.167 -96 -211.5zM645 623.001h-104v51c28 5.33301 52.333 12.5 73 21.5s40 19.167 58 30.5h46v-714h-73v611zM341 623.001h-105.001v51c28.667 5.33301 53.334 12.5 74.001 21.5s40 19.167 58 30.5h45v-714h-72v611zM156.999 -74.999
c-44.667 67.333 -76.668 137.832 -96.001 211.499s-29 154.834 -29 243.501c0 88 9.66699 169 29 243s51.333 144.667 96 212l45 -14c-41.333 -64.667 -70.166 -134.167 -86.499 -208.5c-16.333 -74.334 -24.5 -151.834 -24.5 -232.5c0.666992 -81.333 9 -159 25 -233
s44.667 -143.333 86 -208z" />
    <glyph glyph-name="cid232" unicode="&#x247f;" horiz-adv-x="1000" 
d="M798 -61c41.333 64.667 70 134.001 86 208.001s24.333 151.667 25 233c0 80.667 -8.16699 158.167 -24.5 232.5c-16.335 74.333 -45.168 143.833 -86.5 208.5l45 14c44.667 -67.333 76.667 -138 96 -212s29 -155 29 -243c0 -88.667 -9.66699 -169.834 -29 -243.501
s-51.333 -144.167 -96 -211.5zM465 65.001c86 107.333 149.833 199.001 191.5 275.001s62.5 142.333 62.5 199c0 40.667 -8 73 -24 97s-41.333 36 -76 36c-22 0 -42.833 -7.33301 -62.5 -22s-37.167 -32.667 -52.5 -54l-46 43c24 28.667 48.667 52.5 74 71.5
s56 28.5 92 28.5c52 0 92.5 -18 121.5 -54s43.5 -84 43.5 -144c0 -66.667 -20.167 -138 -60.5 -214s-95.5 -159.667 -165.5 -251c18 1.33301 36.333 2.66602 55 3.99902c18.6689 1.33301 36.3359 2 53 2h141v-70h-347v53zM293 623.002h-105v51
c28 5.33301 52.333 12.5 73 21.5s40 19.167 58 30.5h46v-714h-72v611zM157 -74.998c-44.667 67.333 -76.668 137.832 -96.001 211.499s-29 154.834 -29 243.501c0 88 9.66699 169 29 243s51.333 144.667 96 212l45 -14c-41.333 -64.667 -70.166 -134.167 -86.499 -208.5
c-16.333 -74.334 -24.5 -151.834 -24.5 -232.5c0.666992 -81.333 9 -159 25 -233s44.667 -143.333 86 -208z" />
    <glyph glyph-name="cid233" unicode="&#x2480;" horiz-adv-x="1000" 
d="M798 -61c41.333 64.667 70 134.001 86 208.001s24.333 151.667 25 233c0 80.667 -8.16699 158.167 -24.5 232.5c-16.335 74.333 -45.168 143.833 -86.5 208.5l45 14c44.667 -67.333 76.667 -138 96 -212s29 -155 29 -243c0 -88.667 -9.66699 -169.834 -29 -243.501
s-51.333 -144.167 -96 -211.5zM684 385.001c18 -5.33301 35.168 -13.1719 51.501 -23.5049s30.5 -23.166 42.5 -38.499s21.5 -33.166 28.5 -53.499s10.5 -42.833 10.5 -67.5c0 -32 -5 -60.5 -15 -85.5s-23.5 -46.167 -40.5 -63.5s-37 -30.666 -60 -39.999
s-47.5 -14 -73.5 -14c-43.333 0 -80 9 -110 27s-54 38.333 -72 61l42 52c16 -19.333 34.833 -35.833 56.5 -49.5s48.5 -20.5 80.5 -20.5c32.667 0 60.667 11.5 84 34.5s35 55.5 35 97.5c0 46 -14.333 82.333 -43 109s-75.334 40 -140.001 40v65
c29.333 0 54.333 3.66699 75 11s37.667 17.5 51 30.5s23 28 29 45s9 35.5 9 55.5c0 36 -9.16699 64.167 -27.5 84.5s-42.5 30.5 -72.5 30.5c-21.335 0 -41.168 -5.33301 -59.5 -16c-18.333 -10.667 -34.833 -25 -49.5 -43l-46 50c21.334 22.667 44.834 41 70.5 55
c25.667 14 54.167 21 85.5 21c51.333 0 92.833 -15.5 124.5 -46.5s47.5 -75.5 47.5 -133.5c0 -43.333 -10.5 -79.166 -31.5 -107.499s-48.5 -49.166 -82.5 -62.499v-4zM293.001 622.995h-105v51c28 5.33301 52.333 12.5 73 21.5s40 19.167 58 30.5h46v-714h-72v611z
M157.001 -75.0049c-44.667 67.333 -76.668 137.832 -96.001 211.499s-29 154.834 -29 243.501c0 88 9.66699 169 29 243s51.333 144.667 96 212l45 -14c-41.333 -64.667 -70.166 -134.167 -86.499 -208.5c-16.333 -74.334 -24.5 -151.834 -24.5 -232.5
c0.666992 -81.333 9 -159 25 -233s44.667 -143.333 86 -208z" />
    <glyph glyph-name="cid234" unicode="&#x2481;" horiz-adv-x="1000" 
d="M202 821c-41.333 -64.667 -70.167 -134.168 -86.5 -208.501c-16.333 -74.334 -24.5 -151.834 -24.5 -232.5c0.666992 -81.333 9 -159 25 -233s44.667 -143.333 86 -208l-45 -14c-44.667 67.333 -76.667 137.833 -96 211.5s-29 154.834 -29 243.501
c0 88 9.66699 169 29 243s51.333 144.667 96 212zM187.999 673.999c28 5.33301 52.333 12.5 73 21.5s40 19.167 58 30.5h46v-714h-72v611h-105v51zM675.999 282.999l0.00195312 207c0 10 0.166992 21 0.5 33s0.666016 24.5 0.999023 37.5s0.666016 25.667 0.999023 38
s0.833008 23.5 1.5 33.5h-4c-7.33301 -19.333 -14.5 -37.333 -21.5 -54s-14.833 -34.667 -23.5 -54l-122 -241h167zM744.001 217.999v-206h-68v206h-239v53l232 455h75v-443h75v-65h-75zM843.001 834.999c44.667 -67.333 76.667 -137.999 96 -211.999s29 -155 29 -243
c0 -88.667 -9.66699 -169.834 -29 -243.501s-51.333 -144.167 -96 -211.5l-45 14c41.333 64.667 70 134 86 208s24.333 151.667 25 233c0 80.667 -8.16699 158.167 -24.5 232.5c-16.335 74.333 -45.168 143.833 -86.5 208.5z" />
    <glyph glyph-name="cid235" unicode="&#x2482;" horiz-adv-x="1000" 
d="M798 -61c41.333 64.667 70 134.001 86 208.001s24.333 151.667 25 233c0 80.667 -8.16699 158.167 -24.5 232.5c-16.335 74.333 -45.168 143.833 -86.5 208.5l45 14c44.667 -67.333 76.667 -138 96 -212s29 -155 29 -243c0 -88.667 -9.66699 -169.834 -29 -243.501
s-51.333 -144.167 -96 -211.5zM546 430.001c14 9.33496 27.501 16.6689 40.501 22.001c13 5.33301 28.5 8 46.5 8c22.667 0 44.167 -4.33301 64.5 -13s38.166 -22 53.499 -40s27.5 -40.667 36.5 -68s13.5 -60 13.5 -98c0 -38.667 -5.16699 -73.167 -15.5 -103.5
s-24.166 -55.833 -41.499 -76.5c-17.3359 -20.667 -37.1689 -36.334 -59.5 -47.001c-22.333 -10.667 -45.5 -16 -69.5 -16c-22 0 -41.833 2.5 -59.5 7.5s-33.667 11.5 -48 19.5s-27.333 17.167 -39 27.5s-22.167 20.833 -31.5 31.5l42 52c15.333 -18 32.833 -34 52.5 -48
s44.167 -21 73.5 -21c17.333 0 33.5 4 48.5 12s28 19.333 39 34s19.667 32.667 26 54s9.5 45 9.5 71c0 50 -10.333 89.5 -31 118.5s-47.334 43.5 -80.001 43.5c-18 0 -33.5 -3.83301 -46.5 -11.5s-26.833 -18.167 -41.5 -31.5l-47 27l21 342h273v-71h-213zM293.001 623.002
h-105v51c28 5.33301 52.333 12.5 73 21.5s40 19.167 58 30.5h46v-714h-72v611zM157.001 -74.998c-44.667 67.333 -76.668 137.832 -96.001 211.499s-29 154.834 -29 243.501c0 88 9.66699 169 29 243s51.333 144.667 96 212l45 -14
c-41.333 -64.667 -70.166 -134.167 -86.499 -208.5c-16.333 -74.334 -24.5 -151.834 -24.5 -232.5c0.666992 -81.333 9 -159 25 -233s44.667 -143.333 86 -208z" />
    <glyph glyph-name="cid236" unicode="&#x249c;" horiz-adv-x="1000" 
d="M157 -75c-44.667 67.333 -76.668 137.832 -96.001 211.499s-29 154.834 -29 243.501c0 88 9.66699 169 29 243s51.333 144.667 96 212l45 -14c-41.333 -64.667 -70.166 -134.167 -86.499 -208.5c-16.333 -74.334 -24.5 -151.834 -24.5 -232.5
c0.666992 -81.333 9 -159 25 -233s44.667 -143.333 86 -208zM438.999 91.999c-22 0 -42.5 3.49707 -61.5 10.4971s-35.5 17.167 -49.5 30.5s-25 29.5 -33 48.5s-12 40.833 -12 65.5c0 58.667 26 103.834 78 135.501s134.667 53.834 248 66.501
c0 17.334 -1.66699 34.167 -5 50.499c-3.33301 16.333 -9 30.833 -17 43.5c-8 12.668 -19 22.835 -33 30.501c-14 7.66699 -31.667 11.5 -53 11.5c-30.667 0 -59.5 -6.16699 -86.5 -18.5s-51.167 -25.833 -72.5 -40.5l-36 65c24.667 16.667 55.167 32.5 91.5 47.5
c36.334 15 76.167 22.5 119.5 22.5c64.667 0 111.667 -20.167 141 -60.5s44 -94.833 44 -163.5v-331h-76l-8 64h-4c-25.333 -21.333 -52.5 -39.666 -81.5 -54.999s-60.167 -23 -93.5 -23zM465.999 167.996c25.333 0 49.168 6 71.501 18s46.166 29.667 71.499 53v148
c-44 -5.33301 -80.833 -12 -110.5 -20s-53.667 -17.5 -72 -28.5s-31.5 -23.5 -39.5 -37.5s-12 -29.667 -12 -47c0 -30.667 8.66699 -52.667 26 -66s39 -20 65 -20zM798.001 -61.0039c41.333 64.667 70 134.001 86 208.001s24.333 151.667 25 233
c0 80.667 -8.16699 158.167 -24.5 232.5c-16.335 74.333 -45.168 143.833 -86.5 208.5l45 14c44.667 -67.333 76.667 -138 96 -212s29 -155 29 -243c0 -88.667 -9.66699 -169.834 -29 -243.501s-51.333 -144.167 -96 -211.5z" />
    <glyph glyph-name="cid237" unicode="&#x249d;" horiz-adv-x="1000" 
d="M157 -75c-44.667 67.333 -76.668 137.832 -96.001 211.499s-29 154.834 -29 243.501c0 88 9.66699 169 29 243s51.333 144.667 96 212l45 -14c-41.333 -64.667 -70.166 -134.167 -86.499 -208.5c-16.333 -74.334 -24.5 -151.834 -24.5 -232.5
c0.666992 -81.333 9 -159 25 -233s44.667 -143.333 86 -208zM527.999 -0.000976562c-23.333 0 -47.999 5.83398 -73.999 17.501s-50.667 28.167 -74 49.5h-2l-9 -53h-75v794h94v-216l-3 -98c24 21.333 49.833 39.166 77.5 53.499s56.167 21.5 85.5 21.5
c34 0 64 -6.5 90 -19.5s48 -31.5 66 -55.5s31.5 -52.833 40.5 -86.5s13.5 -71.5 13.5 -113.5c0 -46.667 -6.33301 -88.167 -19 -124.5s-29.5 -67 -50.5 -92s-45.333 -44.167 -73 -57.5s-56.834 -20 -87.501 -20zM513 79c21.333 0 41 4.83496 59 14.502s33.667 23.667 47 42
s23.666 40.666 30.999 66.999s11 56.166 11 89.499c0 30 -2.5 57.167 -7.5 81.5c-5 24.334 -13 45.167 -24 62.5c-11 17.335 -25.167 30.668 -42.5 40c-17.333 9.33301 -38 14 -62 14c-41.333 0 -87 -24.333 -137 -73v-282c22.667 -20.667 44.834 -35.167 66.501 -43.5
s41.167 -12.5 58.5 -12.5zM798 -60.998c41.333 64.667 70 134.001 86 208.001s24.333 151.667 25 233c0 80.667 -8.16699 158.167 -24.5 232.5c-16.335 74.333 -45.168 143.833 -86.5 208.5l45 14c44.667 -67.333 76.667 -138 96 -212s29 -155 29 -243
c0 -88.667 -9.66699 -169.834 -29 -243.501s-51.333 -144.167 -96 -211.5z" />
    <glyph glyph-name="cid238" unicode="&#x249e;" horiz-adv-x="1000" 
d="M157 -75c-44.667 67.333 -76.668 137.832 -96.001 211.499s-29 154.834 -29 243.501c0 88 9.66699 169 29 243s51.333 144.667 96 212l45 -14c-41.333 -64.667 -70.166 -134.167 -86.499 -208.5c-16.333 -74.334 -24.5 -151.834 -24.5 -232.5
c0.666992 -81.333 9 -159 25 -233s44.667 -143.333 86 -208zM535.999 91.999c-36 0 -69.498 6.33105 -100.498 18.998s-57.833 31.334 -80.5 56.001s-40.5 54.5 -53.5 89.5s-19.5 75.167 -19.5 120.5c0 44.667 7.16699 84.667 21.5 120s33.5 65.166 57.5 89.499
s51.667 42.833 83 55.5s64.333 19 99 19c36 0 67 -6.5 93 -19.5s48 -28.167 66 -45.5l-47 -60c-16 14 -32.5 25.5 -49.5 34.5s-36.167 13.5 -57.5 13.5c-24.667 0 -47.334 -5 -68.001 -15s-38.5 -24.167 -53.5 -42.5s-26.833 -40.166 -35.5 -65.499s-13 -53.333 -13 -84
c0 -31.333 4.16699 -59.666 12.5 -84.999s19.833 -47 34.5 -65s32.167 -32 52.5 -42c20.334 -10 42.834 -15 67.5 -15c25.333 0 48.666 5.33301 69.999 16s40.333 23.667 57 39l41 -62c-24.667 -22 -52.167 -39.333 -82.5 -52s-61.833 -19 -94.5 -19zM798.001 -61.0029
c41.333 64.667 70 134.001 86 208.001s24.333 151.667 25 233c0 80.667 -8.16699 158.167 -24.5 232.5c-16.335 74.333 -45.168 143.833 -86.5 208.5l45 14c44.667 -67.333 76.667 -138 96 -212s29 -155 29 -243c0 -88.667 -9.66699 -169.834 -29 -243.501
s-51.333 -144.167 -96 -211.5z" />
    <glyph glyph-name="cid239" unicode="&#x249f;" horiz-adv-x="1000" 
d="M157 -75c-44.667 67.333 -76.668 137.832 -96.001 211.499s-29 154.834 -29 243.501c0 88 9.66699 169 29 243s51.333 144.667 96 212l45 -14c-41.333 -64.667 -70.166 -134.167 -86.499 -208.5c-16.333 -74.334 -24.5 -151.834 -24.5 -232.5
c0.666992 -81.333 9 -159 25 -233s44.667 -143.333 86 -208zM459.999 -0.000976562c-32.667 0 -62.335 6.33398 -89.001 19.001c-26.667 12.667 -49.5 31.167 -68.5 55.5s-33.667 54 -44 89s-15.5 75.167 -15.5 120.5c0 44 6.33301 83.667 19 119
c12.667 35.334 29.5 65.167 50.5 89.5s45.167 43.166 72.5 56.499s56 20 86 20s56.167 -5.33301 78.5 -16s44.833 -25.667 67.5 -45l-4 91v209h95v-794h-78l-9 63h-2c-20 -21.333 -43.667 -39.5 -71 -54.5s-56.666 -22.5 -87.999 -22.5zM480.998 79
c45.333 0 89.333 24.333 132 73v283c-22 20 -43 34.167 -63 42.5s-40.667 12.5 -62 12.5c-20.667 0 -40 -4.83301 -58 -14.5s-33.5 -23.5 -46.5 -41.5s-23.333 -39.667 -31 -65s-11.5 -53.333 -11.5 -84c0 -65.333 12 -116 36 -152s58.667 -54 104 -54zM797.998 -61
c41.333 64.667 70 134.001 86 208.001s24.333 151.667 25 233c0 80.667 -8.16699 158.167 -24.5 232.5c-16.335 74.333 -45.168 143.833 -86.5 208.5l45 14c44.667 -67.333 76.667 -138 96 -212s29 -155 29 -243c0 -88.667 -9.66699 -169.834 -29 -243.501
s-51.333 -144.167 -96 -211.5z" />
    <glyph glyph-name="cid240" unicode="&#x24a0;" horiz-adv-x="1000" 
d="M157 -75c-44.667 67.333 -76.668 137.832 -96.001 211.499s-29 154.834 -29 243.501c0 88 9.66699 169 29 243s51.333 144.667 96 212l45 -14c-41.333 -64.667 -70.166 -134.167 -86.499 -208.5c-16.333 -74.334 -24.5 -151.834 -24.5 -232.5
c0.666992 -81.333 9 -159 25 -233s44.667 -143.333 86 -208zM534.999 91.999c-35.333 0 -68.332 6.50195 -98.999 19.502s-57.5 31.667 -80.5 56s-41.167 54.166 -54.5 89.499s-20 75.333 -20 120c0 44 6.66699 83.5 20 118.5s31 64.833 53 89.5s47.333 43.5 76 56.5
s58.334 19.5 89.001 19.5c33.333 0 63 -6 89 -18s48 -29 66 -51s31.667 -48.667 41 -80s14 -66.333 14 -105c0 -9.33301 -0.166992 -18.5 -0.5 -27.5c-0.335938 -9 -1.16895 -16.833 -2.5 -23.5h-352c3.33301 -58.667 20.5 -104.834 51.5 -138.501s71.167 -50.5 120.5 -50.5
c25.333 0 48.166 3.83301 68.499 11.5s40.166 18.167 59.499 31.5l34 -61c-23.333 -16 -49 -29.5 -77 -40.5s-60 -16.5 -96 -16.5zM647 418.001c0 55.334 -11 97.334 -33 126c-22 28.667 -53.333 43 -94 43c-18 0 -35.333 -3.83301 -52 -11.5s-31.667 -18.667 -45 -33
s-24.5 -32 -33.5 -53s-14.833 -44.833 -17.5 -71.5h275zM798 -60.999c41.333 64.667 70 134.001 86 208.001s24.333 151.667 25 233c0 80.667 -8.16699 158.167 -24.5 232.5c-16.335 74.333 -45.168 143.833 -86.5 208.5l45 14c44.667 -67.333 76.667 -138 96 -212
s29 -155 29 -243c0 -88.667 -9.66699 -169.834 -29 -243.501s-51.333 -144.167 -96 -211.5z" />
    <glyph glyph-name="cid241" unicode="&#x24a1;" horiz-adv-x="1000" 
d="M202 821c-41.333 -64.667 -70.167 -134.168 -86.5 -208.501c-16.333 -74.334 -24.5 -151.834 -24.5 -232.5c0.666992 -81.333 9 -159 25 -233s44.667 -143.333 86 -208l-45 -14c-44.667 67.333 -76.667 137.833 -96 211.5s-29 154.834 -29 243.501
c0 88 9.66699 169 29 243s51.333 144.667 96 212zM397.999 639.999c0 55.333 12.833 99.333 38.5 132s66.167 49 121.5 49c16.6689 0 32.8359 -1.83301 48.5 -5.5c15.6689 -3.66699 29.8359 -8.16699 42.5 -13.5l-20 -71c-20.667 9.33301 -41 14 -61 14
c-50.667 0 -76 -35 -76 -105v-84h115v-76h-115v-466h-94v466h-74v71l74 5v84zM842.999 834.999c44.667 -67.333 76.667 -137.999 96 -211.999s29 -155 29 -243c0 -88.667 -9.66699 -169.834 -29 -243.501s-51.333 -144.167 -96 -211.5l-45 14c41.333 64.667 70 134 86 208
s24.333 151.667 25 233c0 80.667 -8.16699 158.167 -24.5 232.5c-16.335 74.333 -45.168 143.833 -86.5 208.5z" />
    <glyph glyph-name="cid242" unicode="&#x24a2;" horiz-adv-x="1000" 
d="M157 -75c-44.667 67.333 -76.668 137.832 -96.001 211.499s-29 154.834 -29 243.501c0 88 9.66699 169 29 243s51.333 144.667 96 212l45 -14c-41.333 -64.667 -70.166 -134.167 -86.499 -208.5c-16.333 -74.334 -24.5 -151.834 -24.5 -232.5
c0.666992 -81.333 9 -159 25 -233s44.667 -143.333 86 -208zM492.999 -31.001c-30 0 -57.501 3.00098 -82.501 9.00098s-46.333 14.667 -64 26s-31.5 25.666 -41.5 42.999s-15 37 -15 59c0 21.333 6.16699 42 18.5 62s29.5 37.333 51.5 52v4
c-13.333 9.33301 -24.666 20.833 -33.999 34.5s-14 30.5 -14 50.5c0 21.334 6.5 40.167 19.5 56.5s26.167 29.5 39.5 39.5v4c-17.333 14 -33.333 33 -48 57s-22 52 -22 84c0 28.667 5 54.667 15 78s23.667 43 41 59s37.5 28.333 60.5 37s47.167 13 72.5 13
c26 0 47.667 -4.33301 65 -13h180v-72h-103c11.333 -11.3359 21.166 -26.1689 29.499 -44.5c8.33301 -18.3359 12.5 -38.1689 12.5 -59.5c0 -28.667 -4.66699 -54.334 -14 -77.001s-22.333 -42 -39 -58s-36.167 -28.167 -58.5 -36.5s-46.5 -12.5 -72.5 -12.5
c-8 0 -18.167 1.33301 -30.5 4s-24.166 6.66699 -35.499 12c-8.66797 -7.33301 -16.335 -15.166 -23 -23.499c-6.66699 -8.33301 -10 -19.166 -10 -32.499c0 -15.333 5.83301 -28 17.5 -38s33.5 -15 65.5 -15h81c60 0 105 -9.83301 135 -29.5s45 -50.834 45 -93.501
c0 -24 -5.66699 -46.833 -17 -68.5s-27.5 -40.667 -48.5 -57s-46.5 -29.333 -76.5 -39s-63.333 -14.5 -100 -14.5zM489.998 426c29.333 0 53.666 11.167 72.999 33.5s29 52.5 29 90.5s-9.66699 67.5 -29 88.5c-19.334 21 -43.667 31.5 -72.999 31.5
c-28 0 -51.833 -10.5 -71.5 -31.5s-29.5 -50.5 -29.5 -88.5c0 -19.333 2.66699 -36.5 8 -51.5c5.33691 -15 12.6699 -27.833 22 -38.5c9.33301 -10.668 20 -18.835 32 -24.5c12 -5.66699 25 -8.5 39 -8.5v-1zM505.998 33c20.667 0 39.5 2.83203 56.5 8.49902
s31.5 13.167 43.5 22.5s21.167 19.833 27.5 31.5s9.5 23.834 9.5 36.501c0 23.333 -8.5 39.333 -25.5 48s-41.5 13 -73.5 13h-68c-7.33301 0 -16.333 0.5 -27 1.5s-21.334 3.16699 -32 6.5c-16 -12 -27.333 -25.333 -34 -40s-10 -29 -10 -43c0 -26 11.667 -46.667 35 -62
s56 -23 98 -23zM797.998 -61.001c41.333 64.667 70 134.001 86 208.001s24.333 151.667 25 233c0 80.667 -8.16699 158.167 -24.5 232.5c-16.335 74.333 -45.168 143.833 -86.5 208.5l45 14c44.667 -67.333 76.667 -138 96 -212s29 -155 29 -243
c0 -88.667 -9.66699 -169.834 -29 -243.501s-51.333 -144.167 -96 -211.5z" />
    <glyph glyph-name="cid243" unicode="&#x24a3;" horiz-adv-x="1000" 
d="M157 -75c-44.667 67.333 -76.668 137.832 -96.001 211.499s-29 154.834 -29 243.501c0 88 9.66699 169 29 243s51.333 144.667 96 212l45 -14c-41.333 -64.667 -70.166 -134.167 -86.499 -208.5c-16.333 -74.334 -24.5 -151.834 -24.5 -232.5
c0.666992 -81.333 9 -159 25 -233s44.667 -143.333 86 -208zM292.999 807.999h94.001v-216l-4 -112c12.667 12 25.667 23.5 39 34.5c13.334 11 27.167 20.5 41.499 28.5c14.333 8 29.5 14.333 45.5 19s33.333 7 52 7c56 0 96.833 -18 122.5 -54s38.5 -88.667 38.5 -158v-343
h-93v331c0 50 -7.66699 86.5 -23 109.5s-40.333 34.5 -75 34.5c-27.333 0 -51.5 -7.16699 -72.5 -21.5s-44.833 -34.833 -71.5 -61.5v-392h-94v794zM798 -61.001c41.333 64.667 70 134.001 86 208.001s24.333 151.667 25 233c0 80.667 -8.16699 158.167 -24.5 232.5
c-16.335 74.333 -45.168 143.833 -86.5 208.5l45 14c44.667 -67.333 76.667 -138 96 -212s29 -155 29 -243c0 -88.667 -9.66699 -169.834 -29 -243.501s-51.333 -144.167 -96 -211.5z" />
    <glyph glyph-name="cid244" unicode="&#x24a4;" horiz-adv-x="1000" 
d="M157 -75c-44.667 67.333 -76.668 137.832 -96.001 211.499s-29 154.834 -29 243.501c0 88 9.66699 169 29 243s51.333 144.667 96 212l45 -14c-41.333 -64.667 -70.166 -134.167 -86.499 -208.5c-16.333 -74.334 -24.5 -151.834 -24.5 -232.5
c0.666992 -81.333 9 -159 25 -233s44.667 -143.333 86 -208zM451.999 555.999h95v-542h-95v542zM500.999 665.999c-18.667 0 -34.167 5.83301 -46.5 17.5s-18.5 26.167 -18.5 43.5c0 18 6.16699 32.5 18.5 43.5s27.833 16.5 46.5 16.5c17.333 0 32.333 -5.5 45 -16.5
s19 -25.5 19 -43.5c0 -17.333 -6.33301 -31.833 -19 -43.5s-27.667 -17.5 -45 -17.5zM797.999 -61.001c41.333 64.667 70 134.001 86 208.001s24.333 151.667 25 233c0 80.667 -8.16699 158.167 -24.5 232.5c-16.335 74.333 -45.168 143.833 -86.5 208.5l45 14
c44.667 -67.333 76.667 -138 96 -212s29 -155 29 -243c0 -88.667 -9.66699 -169.834 -29 -243.501s-51.333 -144.167 -96 -211.5z" />
    <glyph glyph-name="cid245" unicode="&#x24a5;" horiz-adv-x="1000" 
d="M157 -75c-44.667 67.333 -76.668 137.832 -96.001 211.499s-29 154.834 -29 243.501c0 88 9.66699 169 29 243s51.333 144.667 96 212l45 -14c-41.333 -64.667 -70.166 -134.167 -86.499 -208.5c-16.333 -74.334 -24.5 -151.834 -24.5 -232.5
c0.666992 -81.333 9 -159 25 -233s44.667 -143.333 86 -208zM415.999 -148.001c-16.667 0 -31.834 1.50195 -45.5 4.50195c-13.667 3 -25.167 6.16699 -34.5 9.5l18 72c7.33301 -2.66602 15.5 -4.83301 24.5 -6.5s18.167 -2.5 27.5 -2.5c27.333 0 45.333 9.5 54 28.5
s13 44.833 13 77.5v601h93v-601c0 -28 -2.66699 -53.333 -8 -76s-14 -41.834 -26 -57.501s-27.5 -27.834 -46.5 -36.501s-42.167 -13 -69.5 -13zM519.999 747.001c-18.667 0 -34 5.66699 -46 17s-18 25.666 -18 42.999c0 18.667 6 33.5 18 44.5s27.333 16.5 46 16.5
c18 0 33.167 -5.5 45.5 -16.5s18.5 -25.833 18.5 -44.5c0 -17.3359 -6.16699 -31.6689 -18.5 -42.999c-12.333 -11.333 -27.5 -17 -45.5 -17zM797.999 -60.999c41.333 64.667 70 134.001 86 208.001s24.333 151.667 25 233c0 80.667 -8.16699 158.167 -24.5 232.5
c-16.335 74.333 -45.168 143.833 -86.5 208.5l45 14c44.667 -67.333 76.667 -138 96 -212s29 -155 29 -243c0 -88.667 -9.66699 -169.834 -29 -243.501s-51.333 -144.167 -96 -211.5z" />
    <glyph glyph-name="cid246" unicode="&#x24a6;" horiz-adv-x="1000" 
d="M157 -75c-44.667 67.333 -76.668 137.832 -96.001 211.499s-29 154.834 -29 243.501c0 88 9.66699 169 29 243s51.333 144.667 96 212l45 -14c-41.333 -64.667 -70.166 -134.167 -86.499 -208.5c-16.333 -74.334 -24.5 -151.834 -24.5 -232.5
c0.666992 -81.333 9 -159 25 -233s44.667 -143.333 86 -208zM300.999 807.999h92v-535h4l217 283h104l-172 -218l196 -324h-103l-147 259l-99 -117v-142h-92v794zM797.999 -61.001c41.333 64.667 70 134.001 86 208.001s24.333 151.667 25 233
c0 80.667 -8.16699 158.167 -24.5 232.5c-16.335 74.333 -45.168 143.833 -86.5 208.5l45 14c44.667 -67.333 76.667 -138 96 -212s29 -155 29 -243c0 -88.667 -9.66699 -169.834 -29 -243.501s-51.333 -144.167 -96 -211.5z" />
    <glyph glyph-name="cid247" unicode="&#x24a7;" horiz-adv-x="1000" 
d="M157 -75c-44.667 67.333 -76.668 137.832 -96.001 211.499s-29 154.834 -29 243.501c0 88 9.66699 169 29 243s51.333 144.667 96 212l45 -14c-41.333 -64.667 -70.166 -134.167 -86.499 -208.5c-16.333 -74.334 -24.5 -151.834 -24.5 -232.5
c0.666992 -81.333 9 -159 25 -233s44.667 -143.333 86 -208zM546.999 -0.000976562c-35.333 0 -60.667 10.833 -76 32.5s-23 52.5 -23 92.5v683h95v-690c0 -14.667 2.5 -25 7.5 -31s10.833 -9 17.5 -9h8c2.66699 0 6.66699 0.666992 12 2l13 -71c-7.33301 -2 -15 -4 -23 -6
s-18.333 -3 -31 -3zM797.998 -61.001c41.333 64.667 70 134.001 86 208.001s24.333 151.667 25 233c0 80.667 -8.16699 158.167 -24.5 232.5c-16.335 74.333 -45.168 143.833 -86.5 208.5l45 14c44.667 -67.333 76.667 -138 96 -212s29 -155 29 -243
c0 -88.667 -9.66699 -169.834 -29 -243.501s-51.333 -144.167 -96 -211.5z" />
    <glyph glyph-name="cid248" unicode="&#x24a8;" horiz-adv-x="1000" 
d="M157 -75c-44.667 67.333 -76.668 137.832 -96.001 211.499s-29 154.834 -29 243.501c0 88 9.66699 169 29 243s51.333 144.667 96 212l45 -14c-41.333 -64.667 -70.166 -134.167 -86.499 -208.5c-16.333 -74.334 -24.5 -151.834 -24.5 -232.5
c0.666992 -81.333 9 -159 25 -233s44.667 -143.333 86 -208zM217.999 647.999l67.998 -0.00195312l8 -58h3c17.333 20 36.333 36.833 57 50.5s43.334 20.5 68.001 20.5c30 0 53.167 -7.33301 69.5 -22s28.833 -34.667 37.5 -60c20.667 24.667 41.667 44.5 63 59.5
s46 22.5 74 22.5c41.333 0 72 -15.667 92 -47c20 -31.334 30 -77.667 30 -138.999v-369h-83v357c0 41.333 -5 71.333 -15 90s-25.667 28 -47 28c-17.3359 0 -33.6689 -5.16699 -49 -15.5c-15.3359 -10.3359 -31.6689 -26.1689 -49 -47.5v-412h-81v357
c0 41.333 -5.33301 71.333 -16 90s-26.667 28 -48 28c-18.667 0 -35.167 -5.16699 -49.5 -15.5c-14.333 -10.335 -30.166 -26.168 -47.499 -47.499v-412h-85v542zM797.997 -61.0029c41.333 64.667 70 134.001 86 208.001s24.333 151.667 25 233
c0 80.667 -8.16699 158.167 -24.5 232.5c-16.335 74.333 -45.168 143.833 -86.5 208.5l45 14c44.667 -67.333 76.667 -138 96 -212s29 -155 29 -243c0 -88.667 -9.66699 -169.834 -29 -243.501s-51.333 -144.167 -96 -211.5z" />
    <glyph glyph-name="cid249" unicode="&#x24a9;" horiz-adv-x="1000" 
d="M157 -75c-44.667 67.333 -76.668 137.832 -96.001 211.499s-29 154.834 -29 243.501c0 88 9.66699 169 29 243s51.333 144.667 96 212l45 -14c-41.333 -64.667 -70.166 -134.167 -86.499 -208.5c-16.333 -74.334 -24.5 -151.834 -24.5 -232.5
c0.666992 -81.333 9 -159 25 -233s44.667 -143.333 86 -208zM288.999 647.999l77.001 0.00195312l9 -76h3c25.334 25.333 52.167 46.5 80.5 63.5s61.166 25.5 98.499 25.5c56.668 0 97.835 -17.833 123.5 -53.5c25.667 -35.667 38.5 -87.834 38.5 -156.501v-345h-94v333
c0 50 -7.66699 86.167 -23 108.5s-40.333 33.5 -75 33.5c-27.333 0 -51.5 -6.83301 -72.5 -20.5s-44.5 -33.834 -70.5 -60.501v-394h-95v542zM798 -60.999c41.333 64.667 70 134.001 86 208.001s24.333 151.667 25 233c0 80.667 -8.16699 158.167 -24.5 232.5
c-16.335 74.333 -45.168 143.833 -86.5 208.5l45 14c44.667 -67.333 76.667 -138 96 -212s29 -155 29 -243c0 -88.667 -9.66699 -169.834 -29 -243.501s-51.333 -144.167 -96 -211.5z" />
    <glyph glyph-name="cid250" unicode="&#x24aa;" horiz-adv-x="1000" 
d="M157 -75c-44.667 67.333 -76.668 137.832 -96.001 211.499s-29 154.834 -29 243.501c0 88 9.66699 169 29 243s51.333 144.667 96 212l45 -14c-41.333 -64.667 -70.166 -134.167 -86.499 -208.5c-16.333 -74.334 -24.5 -151.834 -24.5 -232.5
c0.666992 -81.333 9 -159 25 -233s44.667 -143.333 86 -208zM499.999 91.999c-32.667 0 -63.999 6.33301 -93.999 19s-56.5 31.334 -79.5 56.001s-41.333 54.5 -55 89.5c-13.668 35 -20.501 75.167 -20.5 120.5c0 44.667 6.83301 84.667 20.5 120s32 65.166 55 89.499
s49.5 42.833 79.5 55.5s61.333 19 94 19s64 -6.33301 94 -19s56.333 -31.167 79 -55.5c22.667 -24.334 40.834 -54.167 54.5 -89.499c13.667 -35.333 20.5 -75.333 20.5 -120c0 -45.333 -6.83301 -85.5 -20.5 -120.5s-31.834 -64.833 -54.501 -89.5s-49 -43.334 -79 -56.001
s-61.333 -19 -94 -19zM500 169.999c22.6689 0 43.335 4.99805 62 14.998c18.667 10 34.667 24 48 42s23.666 39.667 30.999 65c7.33301 25.334 11 53.667 11 85c0 30.667 -3.66699 58.667 -11 84c-7.33789 25.334 -17.6709 47.167 -30.999 65.5
c-13.333 18.333 -29.333 32.5 -48 42.5s-39.334 15 -62.001 15c-22.668 0 -43.335 -5 -62.001 -15c-18.667 -10 -34.834 -24.167 -48.5 -42.5c-13.667 -18.333 -24.167 -40.166 -31.5 -65.499s-11 -53.333 -11 -84c0 -31.333 3.66699 -59.666 11 -84.999
s17.833 -47 31.5 -65s29.834 -32 48.501 -42s39.334 -15 62.001 -15zM797.999 -61.0029c41.333 64.667 70 134.001 86 208.001s24.333 151.667 25 233c0 80.667 -8.16699 158.167 -24.5 232.5c-16.335 74.333 -45.168 143.833 -86.5 208.5l45 14
c44.667 -67.333 76.667 -138 96 -212s29 -155 29 -243c0 -88.667 -9.66699 -169.834 -29 -243.501s-51.333 -144.167 -96 -211.5z" />
    <glyph glyph-name="cid251" unicode="&#x24ab;" horiz-adv-x="1000" 
d="M157 -75c-44.667 67.333 -76.668 137.832 -96.001 211.499s-29 154.834 -29 243.501c0 88 9.66699 169 29 243s51.333 144.667 96 212l45 -14c-41.333 -64.667 -70.166 -134.167 -86.499 -208.5c-16.333 -74.334 -24.5 -151.834 -24.5 -232.5
c0.666992 -81.333 9 -159 25 -233s44.667 -143.333 86 -208zM290.999 723.999h76.998l9 -62h2c24.667 20.6689 51.334 38.3359 80.001 53c28.667 14.667 58.334 22 89.001 22c34.668 0 65.335 -6.5 92.001 -19.5c26.667 -13 49 -31.5 67 -55.5s31.5 -52.833 40.5 -86.5
s13.5 -71.5 13.5 -113.5c0 -46.667 -6.33301 -88.167 -19 -124.5s-29.834 -67 -51.501 -92s-46.5 -44 -74.5 -57s-57.333 -19.5 -88 -19.5c-23.333 0 -47.333 5.33301 -72 16s-49.334 26 -74 46l3 -94v-144h-94v731zM512.997 246.999
c21.333 0 41.1689 4.83398 59.502 14.501s34.166 23.667 47.499 42c13.333 18.334 23.833 40.667 31.5 67c7.66699 26.334 11.5 56.167 11.5 89.5c0 30 -2.5 57.167 -7.5 81.5s-13 45.166 -24 62.499s-25.333 30.833 -43 40.5s-38.834 14.5 -63.501 14.5
c-22 0 -44.333 -6.33301 -67 -19s-47 -30.667 -73 -54v-283c23.333 -20 46 -34.333 68 -43s42 -13 60 -13zM798 -61c41.333 64.667 70 134.001 86 208.001s24.333 151.667 25 233c0 80.667 -8.16699 158.167 -24.5 232.5c-16.335 74.333 -45.168 143.833 -86.5 208.5l45 14
c44.667 -67.333 76.667 -138 96 -212s29 -155 29 -243c0 -88.667 -9.66699 -169.834 -29 -243.501s-51.333 -144.167 -96 -211.5z" />
    <glyph glyph-name="cid252" unicode="&#x24ac;" horiz-adv-x="1000" 
d="M157 -75c-44.667 67.333 -76.668 137.832 -96.001 211.499s-29 154.834 -29 243.501c0 88 9.66699 169 29 243s51.333 144.667 96 212l45 -14c-41.333 -64.667 -70.166 -134.167 -86.499 -208.5c-16.333 -74.334 -24.5 -151.834 -24.5 -232.5
c0.666992 -81.333 9 -159 25 -233s44.667 -143.333 86 -208zM614.999 145.999l5 96.001c-21.3359 -20 -45.6689 -37.167 -73 -51.5c-27.334 -14.333 -56.334 -21.5 -87 -21.5c-33.333 0 -63.5 6.33301 -90.5 19s-50.167 31 -69.5 55s-34.333 53.667 -45 89
s-16 75.666 -16 120.999c0 44 6.33301 83.5 19 118.5s29.667 64.833 51 89.5s46 43.5 74 56.5s57.333 19.5 88 19.5s57.667 -5.33301 81 -16s47 -26.667 71 -48h3l8 51h76v-731h-95v153zM480.999 247c24 0 46.833 6 68.5 18s43.5 30.667 65.5 56v283
c-22.667 19.333 -44.334 33.333 -65.001 42s-41.667 13 -63 13s-41 -5 -59 -15s-33.833 -24 -47.5 -42c-13.668 -18 -24.335 -39.667 -32 -65c-7.66699 -25.333 -11.5 -53.333 -11.5 -84c0 -65.333 12.333 -116 37 -152s60.334 -54 107.001 -54zM797.999 -61
c41.333 64.667 70 134.001 86 208.001s24.333 151.667 25 233c0 80.667 -8.16699 158.167 -24.5 232.5c-16.335 74.333 -45.168 143.833 -86.5 208.5l45 14c44.667 -67.333 76.667 -138 96 -212s29 -155 29 -243c0 -88.667 -9.66699 -169.834 -29 -243.501
s-51.333 -144.167 -96 -211.5z" />
    <glyph glyph-name="cid253" unicode="&#x24ad;" horiz-adv-x="1000" 
d="M157 -75c-44.667 67.333 -76.668 137.832 -96.001 211.499s-29 154.834 -29 243.501c0 88 9.66699 169 29 243s51.333 144.667 96 212l45 -14c-41.333 -64.667 -70.166 -134.167 -86.499 -208.5c-16.333 -74.334 -24.5 -151.834 -24.5 -232.5
c0.666992 -81.333 9 -159 25 -233s44.667 -143.333 86 -208zM371.999 647.999l77.998 0.000976562l8 -98h4c18.667 34.6689 41.334 61.8359 68.001 81.5c26.668 19.667 55.335 29.5 86.001 29.5c12 0 22.333 -0.666992 31 -2s17.667 -4.33301 27 -9l-19 -82
c-8.66699 3.33301 -16.667 5.66602 -24 6.99902c-7.33789 1.33301 -16.6709 2 -28 2c-22.667 0 -46.5 -9.33301 -71.5 -28s-46.5 -50.667 -64.5 -96v-347h-95v542zM797.997 -61c41.333 64.667 70 134.001 86 208.001s24.333 151.667 25 233
c0 80.667 -8.16699 158.167 -24.5 232.5c-16.335 74.333 -45.168 143.833 -86.5 208.5l45 14c44.667 -67.333 76.667 -138 96 -212s29 -155 29 -243c0 -88.667 -9.66699 -169.834 -29 -243.501s-51.333 -144.167 -96 -211.5z" />
    <glyph glyph-name="cid254" unicode="&#x24ae;" horiz-adv-x="1000" 
d="M157 -75c-44.667 67.333 -76.668 137.832 -96.001 211.499s-29 154.834 -29 243.501c0 88 9.66699 169 29 243s51.333 144.667 96 212l45 -14c-41.333 -64.667 -70.166 -134.167 -86.499 -208.5c-16.333 -74.334 -24.5 -151.834 -24.5 -232.5
c0.666992 -81.333 9 -159 25 -233s44.667 -143.333 86 -208zM499.999 91.999c-38.667 0 -75.668 7.33301 -111.001 22s-65.666 33 -90.999 55l45 61c24 -19.333 48.333 -34.833 73 -46.5s53.667 -17.5 87 -17.5c35.333 0 61.666 8 78.999 24s26 35.333 26 58
c0 14 -3.66699 26.167 -11 36.5c-7.33789 10.333 -16.6709 19.5 -28 27.5c-11.333 8 -24.5 15.167 -39.5 21.5c-15 6.33594 -29.833 12.1689 -44.5 17.5c-19.333 6.66699 -38.666 14.334 -57.999 23.001s-36.666 19 -51.999 31s-27.833 26.333 -37.5 43
s-14.5 36.334 -14.5 59.001c0 22 4.33301 42.333 13 61c8.66699 18.6689 21 34.8359 37 48.5c16 13.667 35.667 24.5 59 32.5c23.334 8 49.667 12 79 12c34 0 65.5 -5.83301 94.5 -17.5s53.833 -25.834 74.5 -42.501l-45 -60c-18.667 13.333 -37.834 24.666 -57.501 33.999
s-41.167 14 -64.5 14c-34 0 -59 -7.83301 -75 -23.5s-24 -33.5 -24 -53.5c0 -13.333 3.33301 -24.5 10 -33.5s15.5 -17 26.5 -24s23.833 -13.333 38.5 -19s29.667 -11.167 45 -16.5c19.333 -7.33301 38.833 -15.333 58.5 -24c19.6689 -8.66699 37.3359 -19.167 53 -31.5
c15.667 -12.333 28.5 -27.333 38.5 -45s15 -39.5 15 -65.5c0 -22 -4.33301 -42.833 -13 -62.5s-21.5 -36.667 -38.5 -51s-37.833 -25.833 -62.5 -34.5s-53 -13 -85 -13zM797.998 -61.001c41.333 64.667 70 134.001 86 208.001s24.333 151.667 25 233
c0 80.667 -8.16699 158.167 -24.5 232.5c-16.335 74.333 -45.168 143.833 -86.5 208.5l45 14c44.667 -67.333 76.667 -138 96 -212s29 -155 29 -243c0 -88.667 -9.66699 -169.834 -29 -243.501s-51.333 -144.167 -96 -211.5z" />
    <glyph glyph-name="cid255" unicode="&#x24af;" horiz-adv-x="1000" 
d="M157 -75c-44.667 67.333 -76.668 137.832 -96.001 211.499s-29 154.834 -29 243.501c0 88 9.66699 169 29 243s51.333 144.667 96 212l45 -14c-41.333 -64.667 -70.166 -134.167 -86.499 -208.5c-16.333 -74.334 -24.5 -151.834 -24.5 -232.5
c0.666992 -81.333 9 -159 25 -233s44.667 -143.333 86 -208zM572.999 48.999c-29.333 0 -53.835 4.33398 -73.502 13.001s-35.667 21 -48 37s-21.166 35.167 -26.499 57.5s-8 47.166 -8 74.499v297h-80v71l85 5l11 152h78v-152h147v-76h-147v-299
c0 -33.333 6.16699 -59 18.5 -77s33.833 -27 64.5 -27c9.33301 0 19.833 1.5 31.5 4.5c11.6719 3 21.8389 6.5 30.501 10.5l18 -71c-15.3359 -5.33301 -31.6689 -10 -49 -14c-17.3359 -4 -34.6689 -6 -52 -6zM797.997 -61c41.333 64.667 70 134.001 86 208.001
s24.333 151.667 25 233c0 80.667 -8.16699 158.167 -24.5 232.5c-16.335 74.333 -45.168 143.833 -86.5 208.5l45 14c44.667 -67.333 76.667 -138 96 -212s29 -155 29 -243c0 -88.667 -9.66699 -169.834 -29 -243.501s-51.333 -144.167 -96 -211.5z" />
    <glyph glyph-name="cid256" unicode="&#x24b0;" horiz-adv-x="1000" 
d="M157 -75c-44.667 67.333 -76.668 137.832 -96.001 211.499s-29 154.834 -29 243.501c0 88 9.66699 169 29 243s51.333 144.667 96 212l45 -14c-41.333 -64.667 -70.166 -134.167 -86.499 -208.5c-16.333 -74.334 -24.5 -151.834 -24.5 -232.5
c0.666992 -81.333 9 -159 25 -233s44.667 -143.333 86 -208zM446.999 91.999c-56.667 0 -98.168 17.832 -124.501 53.499s-39.5 87.834 -39.5 156.501v346h94v-333c0 -50 7.83301 -86 23.5 -108s40.834 -33 75.501 -33c26.667 0 50.334 7 71.001 21s43.667 36.667 69 68v385
h94v-542h-77l-9 83h-3c-24.667 -29.333 -50.834 -52.833 -78.501 -70.5s-59.5 -26.5 -95.5 -26.5zM797.998 -61.002c41.333 64.667 70 134.001 86 208.001s24.333 151.667 25 233c0 80.667 -8.16699 158.167 -24.5 232.5c-16.335 74.333 -45.168 143.833 -86.5 208.5l45 14
c44.667 -67.333 76.667 -138 96 -212s29 -155 29 -243c0 -88.667 -9.66699 -169.834 -29 -243.501s-51.333 -144.167 -96 -211.5z" />
    <glyph glyph-name="cid257" unicode="&#x24b1;" horiz-adv-x="1000" 
d="M157 -75c-44.667 67.333 -76.668 137.832 -96.001 211.499s-29 154.834 -29 243.501c0 88 9.66699 169 29 243s51.333 144.667 96 212l45 -14c-41.333 -64.667 -70.166 -134.167 -86.499 -208.5c-16.333 -74.334 -24.5 -151.834 -24.5 -232.5
c0.666992 -81.333 9 -159 25 -233s44.667 -143.333 86 -208zM251.999 647.999h97l101 -306c8.66699 -26.667 17.167 -53.667 25.5 -81s16.833 -53.666 25.5 -78.999h4c8 25.333 16.333 51.666 25 78.999s16.667 54.333 24 81l102 306h92l-191 -542h-110zM797.999 -61.001
c41.333 64.667 70 134.001 86 208.001s24.333 151.667 25 233c0 80.667 -8.16699 158.167 -24.5 232.5c-16.335 74.333 -45.168 143.833 -86.5 208.5l45 14c44.667 -67.333 76.667 -138 96 -212s29 -155 29 -243c0 -88.667 -9.66699 -169.834 -29 -243.501
s-51.333 -144.167 -96 -211.5z" />
    <glyph glyph-name="cid258" unicode="&#x24b2;" horiz-adv-x="1000" 
d="M157 -75c-44.667 67.333 -76.668 137.832 -96.001 211.499s-29 154.834 -29 243.501c0 88 9.66699 169 29 243s51.333 144.667 96 212l45 -14c-41.333 -64.667 -70.166 -134.167 -86.499 -208.5c-16.333 -74.334 -24.5 -151.834 -24.5 -232.5
c0.666992 -81.333 9 -159 25 -233s44.667 -143.333 86 -208zM165.999 647.999l89.999 -0.00195312l65 -311c5.33301 -26 10 -51.5 14 -76.5s8.66699 -50.167 14 -75.5h4c6 25.333 11.167 50.5 15.5 75.5s9.5 50.5 15.5 76.5l73 311h92l72 -311
c6 -25.333 11.333 -50.666 16 -75.999s10 -50.666 16 -75.999h4c5.33301 25.333 10.333 50.5 15 75.5s9.66699 50.5 15 76.5l63 311h84l-121 -542h-113l-67 289c-6 26 -11.333 51.667 -16 77s-9.66699 52 -15 80h-5c-5.33301 -28 -10.166 -55 -14.499 -81
s-9.83301 -51.667 -16.5 -77l-64 -288h-111zM797.998 -61.0029c41.333 64.667 70 134.001 86 208.001s24.333 151.667 25 233c0 80.667 -8.16699 158.167 -24.5 232.5c-16.335 74.333 -45.168 143.833 -86.5 208.5l45 14c44.667 -67.333 76.667 -138 96 -212
s29 -155 29 -243c0 -88.667 -9.66699 -169.834 -29 -243.501s-51.333 -144.167 -96 -211.5z" />
    <glyph glyph-name="cid259" unicode="&#x24b3;" horiz-adv-x="1000" 
d="M157 -75c-44.667 67.333 -76.668 137.832 -96.001 211.499s-29 154.834 -29 243.501c0 88 9.66699 169 29 243s51.333 144.667 96 212l45 -14c-41.333 -64.667 -70.166 -134.167 -86.499 -208.5c-16.333 -74.334 -24.5 -151.834 -24.5 -232.5
c0.666992 -81.333 9 -159 25 -233s44.667 -143.333 86 -208zM442.999 388.999l-164.001 258.999h102l72 -118c8 -14.667 16.5 -29.5 25.5 -44.5s18.167 -30.167 27.5 -45.5h4c8.6709 15.333 16.8379 30.5 24.501 45.5c7.6709 15.002 15.8379 29.835 24.5 44.5l65 118h99
l-164 -269l176 -273h-102l-79 125c-9.33301 16 -18.833 32.333 -28.5 49s-19.5 32.667 -29.5 48h-5c-9.33301 -15.333 -18.333 -31.166 -27 -47.499s-17.667 -32.833 -27 -49.5l-73 -125h-98zM797.998 -61.002c41.333 64.667 70 134.001 86 208.001s24.333 151.667 25 233
c0 80.667 -8.16699 158.167 -24.5 232.5c-16.335 74.333 -45.168 143.833 -86.5 208.5l45 14c44.667 -67.333 76.667 -138 96 -212s29 -155 29 -243c0 -88.667 -9.66699 -169.834 -29 -243.501s-51.333 -144.167 -96 -211.5z" />
    <glyph glyph-name="cid260" unicode="&#x24b4;" horiz-adv-x="1000" 
d="M157 -75c-44.667 67.333 -76.668 137.832 -96.001 211.499s-29 154.834 -29 243.501c0 88 9.66699 169 29 243s51.333 144.667 96 212l45 -14c-41.333 -64.667 -70.166 -134.167 -86.499 -208.5c-16.333 -74.334 -24.5 -151.834 -24.5 -232.5
c0.666992 -81.333 9 -159 25 -233s44.667 -143.333 86 -208zM352.999 -11.001c-26.667 0 -50 3.66602 -70 10.999l18 75c6.66699 -2 14.334 -3.83301 23.001 -5.5s16.667 -2.5 24 -2.5c30 0 54 6.83301 72 20.5s30.667 32.834 38 57.501l10 36l-216 543h97l108 -297
c9.33496 -24 18.168 -49.333 26.499 -76c8.33398 -26.667 17.167 -52.667 26.5 -78h4c8 24.667 15.833 50.334 23.5 77.001s15.167 52.334 22.5 77.001l94 297h92l-202 -582c-8 -22.667 -17.333 -43.334 -28 -62.001s-23.5 -34.834 -38.5 -48.501
s-32.833 -24.167 -53.5 -31.5s-44.334 -11 -71 -11zM797.999 -61.002c41.333 64.667 70 134.001 86 208.001s24.333 151.667 25 233c0 80.667 -8.16699 158.167 -24.5 232.5c-16.335 74.333 -45.168 143.833 -86.5 208.5l45 14c44.667 -67.333 76.667 -138 96 -212
s29 -155 29 -243c0 -88.667 -9.66699 -169.834 -29 -243.501s-51.333 -144.167 -96 -211.5z" />
    <glyph glyph-name="cid261" unicode="&#x24b5;" horiz-adv-x="1000" 
d="M157 -75c-44.667 67.333 -76.668 137.832 -96.001 211.499s-29 154.834 -29 243.501c0 88 9.66699 169 29 243s51.333 144.667 96 212l45 -14c-41.333 -64.667 -70.166 -134.167 -86.499 -208.5c-16.333 -74.334 -24.5 -151.834 -24.5 -232.5
c0.666992 -81.333 9 -159 25 -233s44.667 -143.333 86 -208zM297.999 155.999l283 416h-251v76h370v-50l-284 -416h293v-76h-411v50zM797.999 -61.001c41.333 64.667 70 134.001 86 208.001s24.333 151.667 25 233c0 80.667 -8.16699 158.167 -24.5 232.5
c-16.335 74.333 -45.168 143.833 -86.5 208.5l45 14c44.667 -67.333 76.667 -138 96 -212s29 -155 29 -243c0 -88.667 -9.66699 -169.834 -29 -243.501s-51.333 -144.167 -96 -211.5z" />
    <glyph glyph-name="cid262" unicode="&#x24d0;" horiz-adv-x="1000" 
d="M500 -86c-64 0 -124.333 12.1689 -181 36.502s-106.167 57.666 -148.5 99.999s-75.666 91.833 -99.999 148.5s-36.5 117 -36.5 181s12.167 124.333 36.5 181s57.666 106.167 99.999 148.5s91.833 75.666 148.5 99.999s117 36.5 181 36.5s124.333 -12.167 181 -36.5
s106.167 -57.666 148.5 -99.999s75.666 -91.833 99.999 -148.5s36.5 -117 36.5 -181c0 -64.667 -12.333 -125.334 -37 -182.001s-58.167 -106 -100.5 -148s-91.666 -75.167 -147.999 -99.5s-116.5 -36.5 -180.5 -36.5zM500 -53.998c60 0 116.333 11.333 169 34
s98.667 53.667 138 93s70.333 85.333 93 138s34 109 34 169s-11.333 116.333 -34 169s-53.667 98.667 -93 138s-85.333 70.333 -138 93s-109 34 -169 34c-60.667 0 -117.334 -11.5 -170 -34.5c-52.667 -23 -98.5 -54.167 -137.5 -93.5s-69.833 -85.333 -92.5 -138
s-34 -108.667 -34 -168c0 -60 11.333 -116.333 34 -169s53.667 -98.667 93 -138s85.333 -70.333 138 -93s109 -34 169 -34zM460 185.002c-32.667 0 -59.001 9.66797 -79.001 29.001s-30 45 -30 77c0 39.333 17.5 69.5 52.5 90.5s90.833 35.167 167.5 42.5
c-0.666992 23.334 -5.5 42.667 -14.5 57.999c-9 15.333 -26.5 23 -52.5 23c-19.333 0 -39.166 -4 -59.499 -12s-38.166 -16.667 -53.499 -26l-25 49c18 11.333 40 22 66 32s53.667 15 83 15c44 0 76.333 -13 97 -39s31 -63 31 -111v-219h-57l-8 42h-5
c-14.667 -13.334 -31.334 -25.167 -50.001 -35.5s-39.667 -15.5 -63 -15.5zM481.999 242.003c29.333 0 59 14.667 89 44v93c-56 -5.33301 -95.167 -15.333 -117.5 -30s-33.5 -32 -33.5 -52c0 -19.333 5.5 -33.333 16.5 -42s26.167 -13 45.5 -13z" />
    <glyph glyph-name="cid263" unicode="&#x24d1;" horiz-adv-x="1000" 
d="M500 -86c-64 0 -124.333 12.1689 -181 36.502s-106.167 57.666 -148.5 99.999s-75.666 91.833 -99.999 148.5s-36.5 117 -36.5 181s12.167 124.333 36.5 181s57.666 106.167 99.999 148.5s91.833 75.666 148.5 99.999s117 36.5 181 36.5s124.333 -12.167 181 -36.5
s106.167 -57.666 148.5 -99.999s75.666 -91.833 99.999 -148.5s36.5 -117 36.5 -181c0 -64.667 -12.333 -125.334 -37 -182.001s-58.167 -106 -100.5 -148s-91.666 -75.167 -147.999 -99.5s-116.5 -36.5 -180.5 -36.5zM500 -53.998c60 0 116.333 11.333 169 34
s98.667 53.667 138 93s70.333 85.333 93 138s34 109 34 169s-11.333 116.333 -34 169s-53.667 98.667 -93 138s-85.333 70.333 -138 93s-109 34 -169 34c-60.667 0 -117.334 -11.5 -170 -34.5c-52.667 -23 -98.5 -54.167 -137.5 -93.5s-69.833 -85.333 -92.5 -138
s-34 -108.667 -34 -168c0 -60 11.333 -116.333 34 -169s53.667 -98.667 93 -138s85.333 -70.333 138 -93s109 -34 169 -34zM535 141.002c-16 0 -32.833 3.83301 -50.5 11.5s-34.167 18.834 -49.5 33.5h-5l-8 -36h-53v523h70v-140l-3 -64c16.667 14 34 25.833 52 35.5
s37.667 14.5 59 14.5c46.668 0 82.335 -16.5 107 -49.5c24.667 -33 37 -77.167 37 -132.5c0 -31.333 -4.16699 -59.166 -12.5 -83.499c-8.33594 -24.333 -19.6689 -44.833 -34 -61.5c-14.333 -16.667 -31 -29.334 -50 -38.001s-38.833 -13 -59.5 -13zM525 200.002
c26.667 0 49 11.667 67 35c18 23.334 27 56.667 27 100c0 39.333 -7.16699 70 -21.5 92s-36.833 33 -67.5 33c-30 0 -60.333 -15.333 -91 -46v-180c14.667 -12 29.5 -20.667 44.5 -26c15.001 -5.33301 28.834 -8 41.5 -8z" />
    <glyph glyph-name="cid264" unicode="&#x24d2;" horiz-adv-x="1000" 
d="M500 -86c-64 0 -124.333 12.1689 -181 36.502s-106.167 57.666 -148.5 99.999s-75.666 91.833 -99.999 148.5s-36.5 117 -36.5 181s12.167 124.333 36.5 181s57.666 106.167 99.999 148.5s91.833 75.666 148.5 99.999s117 36.5 181 36.5s124.333 -12.167 181 -36.5
s106.167 -57.666 148.5 -99.999s75.666 -91.833 99.999 -148.5s36.5 -117 36.5 -181c0 -64.667 -12.333 -125.334 -37 -182.001s-58.167 -106 -100.5 -148s-91.666 -75.167 -147.999 -99.5s-116.5 -36.5 -180.5 -36.5zM500 -53.998c60 0 116.333 11.333 169 34
s98.667 53.667 138 93s70.333 85.333 93 138s34 109 34 169s-11.333 116.333 -34 169s-53.667 98.667 -93 138s-85.333 70.333 -138 93s-109 34 -169 34c-60.667 0 -117.334 -11.5 -170 -34.5c-52.667 -23 -98.5 -54.167 -137.5 -93.5s-69.833 -85.333 -92.5 -138
s-34 -108.667 -34 -168c0 -60 11.333 -116.333 34 -169s53.667 -98.667 93 -138s85.333 -70.333 138 -93s109 -34 169 -34zM518 185.002c-25.333 0 -48.499 4.16797 -69.499 12.501s-39.167 20.666 -54.5 36.999s-27.333 36.333 -36 60s-13 50.5 -13 80.5
c0 29.334 4.83301 55.667 14.5 79s22.5 43 38.5 59s34.667 28.333 56 37c21.334 8.66699 43.667 13 66.999 13c26 0 48 -4.16699 66 -12.5c18 -8.33789 32.667 -17.1709 44 -26.5l-34 -46c-11.333 9.33496 -22.333 16.168 -33 20.499c-10.667 4.33301 -24 6.5 -40 6.5
c-30.667 0 -56 -12.167 -76 -36.5s-30 -55.5 -30 -93.5c0 -39.333 9.83301 -71 29.5 -95s45.5 -36 77.5 -36c18.667 0 34.5 2.83301 47.5 8.5s24.5 12.834 34.5 21.501l29 -46c-12.667 -10.667 -28.5 -20.5 -47.5 -29.5s-42.5 -13.5 -70.5 -13.5z" />
    <glyph glyph-name="cid265" unicode="&#x24d3;" horiz-adv-x="1000" 
d="M500 -86c-64 0 -124.333 12.1689 -181 36.502s-106.167 57.666 -148.5 99.999s-75.666 91.833 -99.999 148.5s-36.5 117 -36.5 181s12.167 124.333 36.5 181s57.666 106.167 99.999 148.5s91.833 75.666 148.5 99.999s117 36.5 181 36.5s124.333 -12.167 181 -36.5
s106.167 -57.666 148.5 -99.999s75.666 -91.833 99.999 -148.5s36.5 -117 36.5 -181c0 -64.667 -12.333 -125.334 -37 -182.001s-58.167 -106 -100.5 -148s-91.666 -75.167 -147.999 -99.5s-116.5 -36.5 -180.5 -36.5zM500 -53.998c60 0 116.333 11.333 169 34
s98.667 53.667 138 93s70.333 85.333 93 138s34 109 34 169s-11.333 116.333 -34 169s-53.667 98.667 -93 138s-85.333 70.333 -138 93s-109 34 -169 34c-60.667 0 -117.334 -11.5 -170 -34.5c-52.667 -23 -98.5 -54.167 -137.5 -93.5s-69.833 -85.333 -92.5 -138
s-34 -108.667 -34 -168c0 -60 11.333 -116.333 34 -169s53.667 -98.667 93 -138s85.333 -70.333 138 -93s109 -34 169 -34zM478 141.002c-47.333 0 -84.667 17.001 -112 51.001s-41 82.333 -41 145c0 28 4.33301 53.167 13 75.5s20.334 41.5 35.001 57.5
s31.334 28.167 50.001 36.5s38 12.5 58 12.5s38 -3.66699 54 -11s31.667 -17.333 47 -30l-4 63v132h70v-523h-57l-7 39h-3c-14.667 -12.667 -30.334 -23.834 -47.001 -33.501s-35.334 -14.5 -56.001 -14.5zM493.999 200.003c14.667 0 28.667 3.83203 42 11.499
s27.333 18.834 42 33.501v180c-15.333 13.335 -30 22.668 -44 28c-14 5.33301 -27.667 8 -41 8c-26 0 -48.167 -11.167 -66.5 -33.5s-27.5 -52.5 -27.5 -90.5c0 -44 7.66699 -77.833 23 -101.5s39.333 -35.5 72 -35.5z" />
    </font>
</defs>
</svg>
